<svg width="18" height="24" xmlns="http://www.w3.org/2000/svg"><defs><radialGradient cy="87.699%" fx="50%" fy="87.699%" r="79.739%" gradientTransform="matrix(-.10134 .7702 -.47506 -.03746 .967 .525)" id="radialGradient-1"><stop stop-color="#FFDD82" offset="0%"/><stop stop-color="#FFBA00" offset="58.23%"/><stop stop-color="#FF5F5F" offset="100%"/></radialGradient></defs><g id="UI-Set" fill="none" fill-rule="evenodd"><g id="01.-Icons" transform="translate(-1152 -462)" fill="url(#radialGradient-1)" fill-rule="nonzero"><g id="icon/-fire" transform="translate(1152 462)"><path d="M8.37 23.208c-4.505 0-7.47-3.246-7.37-3.474.084-.194 1.59.892 1.59.434 0-.708-2.44-2.194-2.44-5.151 0-2.545 1.553-4.735 1.981-4.735.18 0-.418 2.857 1.654 2.857 1.034 0 .612-1.727 1.034-3.697.177-.829.491-1.405.78-2.049.309-.686.59-1.416.647-1.48.094-.104.762.382 1.46-.269 1.158-1.078.003-4.627.323-4.8.087-.047.83.565 1.825 1.353 1.868 1.48 4.492 3.89 4.407 5.901-.128 2.996-.134 3.827.747 3.827 1.18 0 .801-1.702 1.037-1.702.236 0 1.42 3.126 1.42 4.703 0 3.45-2.746 4.713-2.746 5.242 0 .45.915.08.99.274.076.195-3.182 2.766-7.338 2.766zM1.19 9.965c-.14 0-.167-.471-.163-.758a2.7 2.7 0 0 1 .14-.783c.154-.476.463-.897.683-1.114.667-.657.718-1.341.919-1.341.2 0 .136 1.564-.252 2.387-.388.824-1.186 1.61-1.326 1.61z" id="Combined-Shape"/></g></g></g></svg>