<svg version="1.2" baseProfile="tiny" id="Слой_1" xmlns="http://www.w3.org/2000/svg" viewBox="0 0 20 20"><symbol id="input-pencil" viewBox="0 0 20 20"><g id="UI-Set"><g id="_x30_1.-Icons" transform="translate(-333 -533)"><g id="Header-icons" transform="translate(128 128)"><g id="_x32_0px" transform="translate(0 329)"><g transform="translate(204 75)" id="Icon_x2F_-20px_x2F_-Pencil"><path id="Rectangle-40" fill="#FFBB03" d="M3.1 15.3l9.4-9.4c.2-.2.5-.2.7 0L16 8.7c.2.2.2.5 0 .7l-9.4 9.4c0 .1-.1.2-.2.2l-3.4.6c-.3 0-.5-.1-.6-.4V19l.6-3.4c0-.1.1-.2.1-.3z"/><path id="Rectangle-40_1_" fill="#404040" d="M3 15.4L6.6 19l-3.6.6c-.3 0-.5-.1-.6-.4V19l.6-3.6z"/><path id="Rectangle-41" fill="#02C5AB" d="M14 4.5l1.8-1.8c.4-.4 1-.4 1.4 0l2.1 2.1c.4.4.4 1 0 1.4L17.5 8c-.2.2-.5.2-.7 0L14 5.2c-.2-.2-.2-.5 0-.7z"/></g></g></g></g></g></symbol><symbol id="input-search" viewBox="0 0 20 20"><g transform="translate(-196 -532)"><g id="Header-icons_1_" transform="translate(128 128)"><g id="_x32_0px_1_" transform="translate(0 329)"><g id="Icon_x2F_-20px_x2F_-Search_x2F_" transform="translate(68 75)"><path id="Combined-Shape" fill="#1A1A1A" d="M7.6 12.6c2.8 0 5-2.2 5-5s-2.2-5-5-5-5 2.2-5 5 2.2 5 5 5zm5.6-.8l5.9 5.9c.4.4.4 1 0 1.4s-1 .4-1.4 0l-5.9-5.9c-1.2.9-2.6 1.4-4.2 1.4-3.9 0-7-3.1-7-7s3.1-7 7-7 7 3.1 7 7c0 1.6-.5 3-1.4 4.2z"/></g></g></g></g></symbol><symbol id="input-check" viewBox="0 0 20 20"><g id="Group-6"><path id="Rectangle-8" fill="#1A1A1A" d="M4.6 9.4l.8-.8c.2-.2.5-.2.7 0l2.3 2.3c.2.2.5.2.7 0l4.8-4.8c.2-.2.5-.2.7 0l.8.8c.2.2.2.5 0 .7l-6.3 6.3c-.2.2-.5.2-.7 0l-3.8-3.8c-.2-.2-.2-.5 0-.7z"/></g></symbol></svg>