<svg width="122" height="122" xmlns="http://www.w3.org/2000/svg" xmlns:xlink="http://www.w3.org/1999/xlink"><defs><circle id="path-1" cx="61" cy="61" r="61"/><path id="path-3" d="M0 0l17.325 9.5h28.35L63 0v19L45.675 9.5h-28.35L0 19z"/></defs><g id="UI-Set" fill="none" fill-rule="evenodd"><g id="01.-Icons" transform="translate(-128 -1458)"><g id="hp-01" transform="translate(128 1458)"><mask id="mask-2" fill="#fff"><use xlink:href="#path-1"/></mask><use id="Oval-10" fill="#02C5AB" xlink:href="#path-1"/><g id="Group-42" mask="url(#mask-2)"><g transform="translate(30 36)"><g id="Group-32" transform="translate(0 16)"><mask id="mask-4" fill="#fff"><use xlink:href="#path-3"/></mask><use id="Rectangle-6" fill-opacity="0" fill="#FFF" xlink:href="#path-3"/><path d="M31.5 39.167C47.79 39.167 61 25.887 61 9.5S47.79-20.167 31.5-20.167 2-6.887 2 9.5s13.21 29.667 29.5 29.667zm0 2C14.103 41.167 0 26.989 0 9.5s14.103-31.667 31.5-31.667S63-7.989 63 9.5 48.897 41.167 31.5 41.167z" id="Oval-5" fill="#000" fill-rule="nonzero" mask="url(#mask-4)"/><path d="M31.5 34.417c13.68 0 24.775-11.154 24.775-24.917 0-13.763-11.095-24.917-24.775-24.917C17.82-15.417 6.725-4.263 6.725 9.5c0 13.763 11.095 24.917 24.775 24.917zm0 2C16.713 36.417 4.725 24.366 4.725 9.5c0-14.866 11.988-26.917 26.775-26.917 14.787 0 26.775 12.051 26.775 26.917 0 14.866-11.988 26.917-26.775 26.917z" id="Oval-5" fill="#000" fill-rule="nonzero" mask="url(#mask-4)"/><path d="M31.5 29.667c11.07 0 20.05-9.027 20.05-20.167 0-11.14-8.98-20.167-20.05-20.167S11.45-1.64 11.45 9.5c0 11.14 8.98 20.167 20.05 20.167zm0 2c-12.178 0-22.05-9.925-22.05-22.167s9.872-22.167 22.05-22.167S53.55-2.742 53.55 9.5 43.678 31.667 31.5 31.667z" id="Oval-5" fill="#000" fill-rule="nonzero" mask="url(#mask-4)"/></g><g id="Group-15" transform="translate(17)"><rect id="Rectangle-13" fill="#1A1A1A" width="28" height="50" rx="4"/><rect id="Rectangle-16" fill="#FFF" x="2" y="2" width="24" height="46" rx="2"/></g></g></g></g></g></g></svg>