<svg width="96" height="80" xmlns="http://www.w3.org/2000/svg"><g id="05.-Offer-Page" fill="none" fill-rule="evenodd"><g id="05.2.3-Offer-page-1440" transform="translate(-80 -774)" fill-rule="nonzero"><g id="Group-24" transform="translate(64 742)"><g id="Group-45" transform="translate(16 16)"><g id="03-travel" transform="translate(0 16)"><path d="M0 32h96c0 26.51-21.49 48-48 48S0 58.51 0 32z" id="Rectangle-3" fill="#2898BC"/><g id="Group-2" transform="translate(28)"><circle id="Oval" fill="#FFBB03" cx="27" cy="6" r="6"/><g id="Group" transform="translate(0 14)" fill="#136A5E"><path d="M23.649 8.881l2.25-1.648a3 3 0 0 1 3.92.326L40 18H0L10.4 1.633a3 3 0 0 1 5.102.06l3.804 6.316a3 3 0 0 0 4.343.872z" id="Rectangle-2"/></g></g></g></g></g></g></g></svg>