<svg width="40" height="42" xmlns="http://www.w3.org/2000/svg" xmlns:xlink="http://www.w3.org/1999/xlink"><defs><path id="path-1" d="M0 0h24v12H0z"/></defs><g id="05.-Offer-Page" fill="none" fill-rule="evenodd"><g id="05.2.4-Offer-page-1440" transform="translate(-108 -786)"><g id="banner" transform="translate(64 742)"><g id="icon/-gift" transform="translate(16 16)"><g id="04-gift" transform="translate(28 28)"><g id="Group-3" transform="translate(8)"><mask id="mask-2" fill="#fff"><use xlink:href="#path-1"/></mask><path d="M3.161 12H20.84c4.7-2.466 4.04-4.778-1.183-4.42 2.881-4.404 1.168-6.117-3.236-3.236.358-5.222-1.954-5.882-4.42-1.183C9.534-1.538 7.221-.878 7.58 4.344 3.175 1.462 1.462 3.175 4.344 7.58-.879 7.221-1.538 9.534 3.161 12" id="Fill-1" fill="#FF5F5F" mask="url(#mask-2)"/></g><g id="box" transform="translate(0 12)" fill-rule="nonzero"><g id="Group-2" transform="translate(4 8)"><path id="Rectangle-16" fill="#2898BC" d="M0 0h32v22H0z"/><circle id="Oval" fill="#BCF2EB" cx="2" cy="5" r="1"/><circle id="Oval" fill="#BCF2EB" cx="10" cy="5" r="1"/><circle id="Oval" fill="#BCF2EB" cx="18" cy="5" r="1"/><circle id="Oval" fill="#BCF2EB" cx="26" cy="5" r="1"/><circle id="Oval" fill="#BCF2EB" cx="2" cy="17" r="1"/><circle id="Oval" fill="#BCF2EB" cx="10" cy="17" r="1"/><circle id="Oval" fill="#BCF2EB" cx="18" cy="17" r="1"/><circle id="Oval" fill="#BCF2EB" cx="26" cy="17" r="1"/><circle id="Oval" fill="#BCF2EB" cx="6" cy="11" r="1"/><circle id="Oval" fill="#BCF2EB" cx="14" cy="11" r="1"/><circle id="Oval" fill="#BCF2EB" cx="22" cy="11" r="1"/><circle id="Oval" fill="#BCF2EB" cx="30" cy="11" r="1"/></g><path id="Rectangle-16" fill="#2898BC" d="M0 0h40v7H0z"/></g></g></g></g></g></g></svg>