<svg width="56" height="56" xmlns="http://www.w3.org/2000/svg" xmlns:xlink="http://www.w3.org/1999/xlink"><defs><circle id="path-1" cx="24" cy="24" r="24"/><filter x="-16.7%" y="-12.5%" width="133.3%" height="133.3%" filterUnits="objectBoundingBox" id="filter-3"><feOffset dy="2" in="SourceAlpha" result="shadowOffsetOuter1"/><feGaussianBlur stdDeviation="2" in="shadowOffsetOuter1" result="shadowBlurOuter1"/><feColorMatrix values="0 0 0 0 0 0 0 0 0 0 0 0 0 0 0 0 0 0 0.11 0" in="shadowBlurOuter1" result="shadowMatrixOuter1"/><feMorphology radius=".5" operator="dilate" in="SourceAlpha" result="shadowSpreadOuter2"/><feOffset in="shadowSpreadOuter2" result="shadowOffsetOuter2"/><feColorMatrix values="0 0 0 0 0 0 0 0 0 0 0 0 0 0 0 0 0 0 0.09 0" in="shadowOffsetOuter2" result="shadowMatrixOuter2"/><feMerge><feMergeNode in="shadowMatrixOuter1"/><feMergeNode in="shadowMatrixOuter2"/></feMerge></filter></defs><g id="UI-Set" fill="none" fill-rule="evenodd"><g id="01.-Icons" transform="translate(-348 -972)"><g id="Icon/-Misc/-Graph/" transform="translate(352 974)"><g id="Icon/-Graph/"><mask id="mask-2" fill="#fff"><use xlink:href="#path-1"/></mask><g id="Oval-3"><use fill="#000" filter="url(#filter-3)" xlink:href="#path-1"/><use fill="#FFF" xlink:href="#path-1"/></g><path id="Path-7" fill="#404040" fill-rule="nonzero" mask="url(#mask-2)" d="M4.735 30.883l2.78-3.876 5.48 15.615 7.474-25.137 2.395 4.93 1.675-9.11L29.126 30.9l1.497-4.824 1.048 5.843 2.396-7.399 1.542 5.505 11.307-11.033 1.982 6.026 5.08-6.536 9.222-4.024-.4-.916-9.456 4.125-4.083 5.254-1.895-5.765-11.249 10.976-1.981-7.071-2.186 6.75-1.066-5.948-1.675 5.394L24.37 8.694l-1.939 10.542-2.187-4.503-7.327 24.645-5.094-14.516-2.858 3.985-2.72-6.48-19.542 14.432.594.804L1.816 23.927z"/><circle id="Oval-6" fill="#02C5AB" mask="url(#mask-2)" cx="24.5" cy="9.5" r="3.5"/></g></g></g></g></svg>