<svg version="1.2" baseProfile="tiny" id="Слой_1" xmlns="http://www.w3.org/2000/svg" viewBox="0 0 14 14"><path fill="#2898BC" d="M2.9 10.9l2.2-.7.3.1c.6.2 1.2.3 1.8.3 2.8 0 5-1.8 5-4s-2.2-4-5-4-5 1.8-5 4c0 .8.3 1.6.9 2.3l.4.5-.6 1.5zm-1.7 1.6l1.2-3c-.8-.8-1.2-1.9-1.2-3 0-2.8 2.7-5 6-5s6 2.2 6 5-2.7 5-6 5c-.7 0-1.4-.1-2.1-.3l-3.9 1.3z"/><path fill="#02C5AB" d="M6.3 11.4c-.4-.2-1-.8-2-1.7-1-1-1.5-1.6-1.8-2C-.1 4 1.4 1.9 1.8 1.4c.5-.4 1.9-.5 1.9-.3C3.7 1.4 5 4.2 5 4.5c0 .3-.9 1.1-1.1 1.4-.2.2 1.7 2.4 1.8 2.4 0 0 2.2 2 2.5 1.7.3-.3 1.1-1.1 1.4-1.1.3 0 3.1 1.3 3.3 1.3.3 0 .2 1.5-.3 1.9-.5.5-2.6 2-6.3-.7z"/></svg>