<svg width="28" height="32" xmlns="http://www.w3.org/2000/svg"><g id="05.-Offer-Page" fill="none" fill-rule="evenodd"><g id="05.2.1-Offer-page-1440" transform="translate(-114 -790)"><g id="Group-24" transform="translate(64 742)"><g id="Group-35" transform="translate(16 16)"><g id="Illustrations/-Service" transform="translate(34 32)"><path d="M12 0a7.997 7.997 0 0 1 4 6.93V8A8 8 0 1 1 0 8V6.93A7.997 7.997 0 0 1 4 0v5.93a4 4 0 1 0 8 0V0z" id="Combined-Shape" fill="#BCF2EB"/><path d="M5 12h6v17a3 3 0 0 1-6 0V12z" id="Rectangle-2" fill="#BCF2EB"/><path id="Rectangle-3" fill="#FFF" d="M23 0h2v16h-2z"/><path d="M23 0h2a1 1 0 0 1 1 1v3a2 2 0 1 1-4 0V1a1 1 0 0 1 1-1z" id="Rectangle-3" fill="#FFF"/><path d="M21 16h6a1 1 0 0 1 1 1v11a4 4 0 1 1-8 0V17a1 1 0 0 1 1-1z" id="Rectangle-3" fill="#404040"/></g></g></g></g></g></svg>