<svg width="122" height="122" xmlns="http://www.w3.org/2000/svg" xmlns:xlink="http://www.w3.org/1999/xlink"><defs><circle id="path-1" cx="61" cy="61" r="61"/></defs><g id="UI-Set" fill="none" fill-rule="evenodd"><g id="01.-Icons" transform="translate(-298 -1458)"><g id="hp-2" transform="translate(298 1458)"><mask id="mask-2" fill="#fff"><use xlink:href="#path-1"/></mask><use id="Oval-10" fill="#FFBB03" xlink:href="#path-1"/><g id="Group-37" mask="url(#mask-2)"><g transform="translate(37 35)" id="Group-34"><path d="M0 10h48v40.4a1.6 1.6 0 0 1-1.6 1.6H1.6A1.6 1.6 0 0 1 0 50.4V10z" id="Rectangle-11" fill="#FFF"/><path d="M1.6 0h44.8A1.6 1.6 0 0 1 48 1.6V10H0V1.6A1.6 1.6 0 0 1 1.6 0z" id="Rectangle-11" fill="#FF5F5F"/><path d="M17.576 24.514h1.553c1.23 0 1.846-.603 1.846-1.807 0-.469-.147-.851-.44-1.147-.293-.297-.706-.445-1.24-.445-.436 0-.816.127-1.138.381-.322.254-.483.57-.483.947h-3.291c0-.748.208-1.416.625-2.002.416-.586.994-1.043 1.733-1.372a5.943 5.943 0 0 1 2.437-.493c1.582 0 2.825.361 3.73 1.084.905.723 1.358 1.716 1.358 2.979 0 .612-.188 1.19-.562 1.733-.374.544-.92.985-1.636 1.323.756.274 1.348.689 1.778 1.245.43.557.644 1.246.644 2.066 0 1.27-.488 2.285-1.465 3.047-.976.761-2.259 1.142-3.847 1.142a6.306 6.306 0 0 1-2.593-.532c-.798-.355-1.401-.846-1.812-1.475-.41-.628-.615-1.342-.615-2.143h3.31c0 .436.177.814.528 1.133.352.319.785.478 1.299.478.58 0 1.042-.16 1.387-.483.345-.322.517-.734.517-1.235 0-.717-.179-1.224-.537-1.524-.358-.3-.853-.45-1.484-.45h-1.602v-2.45zM32.664 33h-3.3V22.492l-3.243.947v-2.5l6.24-2.158h.303V33z" id="31" fill="#1A1A1A"/><path d="M16.828 40.773h1.32V45h-1.32v-2.46L15.668 45h-1.324v-4.227h1.324v2.454l1.16-2.454zm3.457 1.563h.414c.094-.513.316-.915.666-1.205.35-.29.793-.436 1.326-.436.605 0 1.088.18 1.45.541.362.361.558.847.59 1.46l.003.234c0 .65-.182 1.172-.547 1.562-.364.39-.86.586-1.488.586-.552 0-1.006-.152-1.361-.455-.356-.303-.572-.726-.65-1.268h-.403V45h-1.32v-4.227h1.32v1.563zm1.688.594c0 .39.06.677.183.86a.616.616 0 0 0 .543.273c.469 0 .709-.361.719-1.083v-.132c0-.758-.242-1.137-.727-1.137-.44 0-.678.327-.714.98l-.004.239zm7.078-2.157V45h-1.317v-3.21h-.789l-.07 1.292c-.05.64-.194 1.12-.434 1.438-.24.317-.595.477-1.066.48h-.414l-.016-1.008.137-.015c.175-.021.304-.138.389-.35.084-.212.138-.533.162-.963l.082-1.89h3.336zm4.394 0V45h-1.312v-1.398h-.508L30.879 45h-1.313l.868-1.621a1.438 1.438 0 0 1-.584-.477 1.154 1.154 0 0 1-.205-.672c0-.43.171-.778.515-1.044.344-.267.792-.405 1.344-.413h1.941zm-2.484 1.504c0 .128.053.238.158.33a.628.628 0 0 0 .408.147h.606v-.973h-.586a.615.615 0 0 0-.422.145.452.452 0 0 0-.164.351z" id="июля" fill="#1A1A1A"/></g></g></g></g></g></svg>