<svg xmlns="http://www.w3.org/2000/svg" xmlns:xlink="http://www.w3.org/1999/xlink" width="177" height="96"><defs><linearGradient x1="50%" y1="100%" x2="50%" y2="40.517%" id="A"><stop stop-color="#F2F2F2" offset="0%"/><stop stop-color="#fff" offset="100%"/></linearGradient><path id="B" d="M1 1l44 32L89 1"/><filter x="-13.1%" y="-29.7%" width="126.1%" height="171.9%" id="C"><feOffset dy="2" in="SourceAlpha"/><feGaussianBlur stdDeviation="3.5"/><feComposite in2="SourceAlpha" operator="out"/><feColorMatrix values="0 0 0 0 0 0 0 0 0 0 0 0 0 0 0 0 0 0 0.08 0"/></filter><linearGradient x1="50%" y1="0%" x2="50%" y2="98.481%" id="D"><stop stop-color="#FDE473" offset="0%"/><stop stop-color="#FFBF1A" offset="100%"/></linearGradient><path d="M139.24 32.732a6 6 0 0 0-4.895-5.599l-31.577-5.875a28 28 0 0 1-12.177-5.51L79.246 6.836A31.995 31.995 0 0 0 59.478 0H43.324a20 20 0 0 0-17.15 9.709L22.04 16.6a7 7 0 0 1-6.003 3.4H9a9 9 0 0 0-9 9v15a4 4 0 0 0 4 4h6.453c1.85 0 3.48-1.265 3.885-3.07C15.737 38.674 21.323 34 28 34c5.92 0 10.983 3.675 13.03 8.87C42.243 45.95 45.18 48 48.5 48h47c3.31 0 6.246-2.05 7.46-5.13C105.016 37.675 110.08 34 116 34c6.12 0 11.323 3.926 13.226 9.398.976 2.806 3.73 4.602 6.7 4.602h1.973l.1-.003a2 2 0 0 0 1.897-2.097l-.658-13.168z" id="E"/><path id="F" d="M32.5 28h-3a1.5 1.5 0 1 1 0-3h3a1.5 1.5 0 1 1 0 3"/><path id="G" d="M39 49c0 6.075-4.925 11-11 11s-11-4.925-11-11 4.925-11 11-11 11 4.925 11 11"/></defs><g fill="none"><g transform="translate(82 4)"><path d="M.5.5h89v63H.5z" stroke="#E0E0E0" fill="url(#A)"/><use filter="url(#C)" xlink:href="#B" fill="#000"/><path d="M2.538 1.5L45 32.382 87.462 1.5H2.538z" stroke="#E0E0E0" fill="#fff"/></g><g transform="translate(0 36)"><mask id="H" fill="#fff"><use xlink:href="#E"/></mask><use xlink:href="#E" fill="url(#D)"/><path d="M84.56 20H59a5 5 0 0 1-5-5V9a4 4 0 0 1 4-4h.137a28.99 28.99 0 0 1 17.68 6.014l9.352 7.193c.757.583.345 1.793-.6 1.793M31.3 20c-2.332 0-3.772-2.544-2.572-4.543l1.904-3.174A15 15 0 0 1 43.493 5H45a4 4 0 0 1 4 4v7a4 4 0 0 1-4 4H31.3z" mask="url(#H)" fill="#fff"/><g fill="#000"><use xlink:href="#F" mask="url(#H)"/><use xlink:href="#F" x="27" mask="url(#H)"/></g><path d="M4 38H0v-8h2a4 4 0 0 1 4 4v2a2 2 0 0 1-2 2" mask="url(#H)" fill="#FF5F5F"/><path d="M138 38a5 5 0 0 1-5-5v-1a2 2 0 0 1 2-2h1a4 4 0 0 1 4 4v2a2 2 0 0 1-2 2" fill="#FFDC5F"/><use xlink:href="#G" fill="#1A1A1A"/><path d="M33 49a5 5 0 1 1-10 0 5 5 0 1 1 10 0" fill="#fff"/><use xlink:href="#G" x="88" fill="#1A1A1A"/><path d="M121 49a5 5 0 1 1-10 0 5 5 0 1 1 10 0" fill="#fff"/></g></g></svg>