<svg xmlns="http://www.w3.org/2000/svg" xmlns:xlink="http://www.w3.org/1999/xlink" width="24" height="24"><defs><circle id="A" cx="12" cy="12" r="12"/></defs><mask id="B" fill="#fff"><use xlink:href="#A"/></mask><use xlink:href="#A" fill="#02C5AB"/><g transform="translate(4 2)" fill="#fff" mask="url(#B)"><path d="M0 6h7.5v3H0zm2 4h5.5v7H2zm6.5 0H14v7H8.5zm0-4H16v3H8.5z"/><path d="M8.545 4.455c1.26-.132 2.168-.454 2.724-.946.82-.725.88-1.3.4-1.726-.522-.46-1.286-.398-2.136.354-.53.47-.867 1.237-.988 2.32zm-1.083 0C6.2 4.323 5.294 4.001 4.737 3.51c-.818-.724-.88-1.302-.4-1.726.523-.462 1.286-.399 2.136.353.531.47.867 1.237.989 2.318z" stroke="#fff" fill="none"/></g></svg>