<svg width="140" height="60" xmlns="http://www.w3.org/2000/svg" xmlns:xlink="http://www.w3.org/1999/xlink"><defs><linearGradient x1="50%" y1="0%" x2="50%" y2="98.481%" id="linearGradient-1"><stop stop-color="#FDE473" offset="0%"/><stop stop-color="#FFBF1A" offset="100%"/></linearGradient><path d="M139.24 32.732a6 6 0 0 0-4.896-5.599l-31.577-5.875a28.002 28.002 0 0 1-12.177-5.51L79.246 6.836A31.997 31.997 0 0 0 59.478 0H43.324a20 20 0 0 0-17.15 9.71L22.04 16.6a7 7 0 0 1-6.002 3.4H9a9 9 0 0 0-9 9v15a4 4 0 0 0 4 4h6.453c1.851 0 3.481-1.266 3.885-3.072C15.738 38.674 21.323 34 28 34c5.921 0 10.983 3.675 13.03 8.87 1.213 3.08 4.15 5.13 7.46 5.13h47.02c3.31 0 6.246-2.05 7.46-5.13C105.016 37.674 110.08 34 116 34c6.12 0 11.323 3.926 13.226 9.398.976 2.806 3.731 4.602 6.701 4.602h1.973c.033 0 .066 0 .1-.003a1.999 1.999 0 0 0 1.897-2.097l-.658-13.168z" id="path-2"/></defs><g id="UI-Set" fill="none" fill-rule="evenodd"><g id="01.-Icons" transform="translate(-129 -1967)"><g id="Illustration/-Car-yellow" transform="translate(129 1967)"><g id="Group-21"><mask id="mask-3" fill="#fff"><use xlink:href="#path-2"/></mask><use id="Fill-1" fill="url(#linearGradient-1)" xlink:href="#path-2"/><path d="M84.56 20H59a5 5 0 0 1-5-5V9a4 4 0 0 1 4-4h.137a28.996 28.996 0 0 1 17.68 6.014l9.353 7.193c.757.583.345 1.793-.61 1.793" id="Fill-15" fill="#FFF" mask="url(#mask-3)"/><path d="M31.299 20c-2.332 0-3.773-2.544-2.572-4.543l1.904-3.174A15 15 0 0 1 43.492 5H45a4 4 0 0 1 4 4v7a4 4 0 0 1-4 4H31.298z" id="Fill-17" fill="#FFF" mask="url(#mask-3)"/><path d="M32.5 28h-3a1.5 1.5 0 0 1 0-3h3a1.5 1.5 0 0 1 0 3" id="Fill-5" fill="#000" mask="url(#mask-3)"/><path d="M59.5 28h-3a1.5 1.5 0 0 1 0-3h3a1.5 1.5 0 0 1 0 3" id="Fill-7" fill="#000" mask="url(#mask-3)"/><path d="M4 38H0v-8h2a4 4 0 0 1 4 4v2a2 2 0 0 1-2 2" id="Fill-11" fill="#FF5F5F" mask="url(#mask-3)"/></g><path d="M138 38a5 5 0 0 1-5-5v-1a2 2 0 0 1 2-2h1a4 4 0 0 1 4 4v2a2 2 0 0 1-2 2" id="Fill-13" fill="#FFDC5F"/><g id="Group-24" transform="translate(17 38)"><path d="M22 11c0 6.075-4.925 11-11 11S0 17.075 0 11 4.925 0 11 0s11 4.925 11 11" id="Fill-3" fill="#1A1A1A"/><path d="M16 11a5 5 0 1 1-10.001-.001A5 5 0 0 1 16 11" id="Fill-9" fill="#FFF"/></g><g id="Group-23" transform="translate(105 38)"><path d="M22 11c0 6.075-4.925 11-11 11S0 17.075 0 11 4.925 0 11 0s11 4.925 11 11" id="Fill-19" fill="#1A1A1A"/><path d="M16 11a5 5 0 1 1-10.001-.001A5 5 0 0 1 16 11" id="Fill-21" fill="#FFF"/></g></g></g></g></svg>