<svg width="101" height="94" xmlns="http://www.w3.org/2000/svg"><g id="11.-Credit" fill="none" fill-rule="evenodd"><g id="11.1.1-Credit-Promo-1440" transform="translate(-336 -579)"><g id="Group-7" transform="translate(298 544)"><g transform="translate(38 35)" id="Illustration/-Credit/-Docs"><g id="Group-28"><rect id="Rectangle-8" fill="#BCF2EB" width="60" height="80" rx="5"/><g id="Group-7" transform="translate(18 28)" fill="#404040"><path id="Rectangle-10" d="M0 0h24v1H0zm0 6h24v1H0zm0 6h24v1H0zm0 6h24v1H0zm0 6h12v1H0z"/></g></g><g id="Group-17" transform="translate(28 14)"><path d="M5 0h39l16 16v59a5 5 0 0 1-5 5H5a5 5 0 0 1-5-5V5a5 5 0 0 1 5-5z" id="Rectangle-8" fill="#FFF"/><path d="M44 0l16 16H49a5 5 0 0 1-5-5V0z" id="Rectangle" fill="#BCF2EB"/><g id="Group-41" transform="translate(18 28)" fill="#404040"><path id="Rectangle-10" d="M0 0h24v1H0zm0 6h24v1H0zm0 6h24v1H0zm0 6h24v1H0zm0 6h12v1H0z"/></g></g><g id="Icon/-20px/-Pencil" transform="translate(69 53)"><path d="M2.773 13.227h23.078a.5.5 0 0 1 .5.5v7.421a.5.5 0 0 1-.5.5H2.774v-8.421z" id="Rectangle-40" fill="#FFBB03" transform="rotate(-45 14.562 17.438)"/><path d="M7 23.433v8.421L1.675 28.05a.5.5 0 0 1 0-.813L7 23.433z" id="Rectangle-40" fill="#404040" transform="rotate(-45 4.356 27.644)"/><path d="M23.603 1.318h5.237a1 1 0 0 1 1 1v6.42a1 1 0 0 1-1 1h-5.237a.5.5 0 0 1-.5-.5v-7.42a.5.5 0 0 1 .5-.5z" id="Rectangle-41" fill="#BCF2EB" transform="rotate(-45 26.472 5.528)"/></g></g></g></g></g></svg>