<svg width="88" height="94" xmlns="http://www.w3.org/2000/svg"><g id="UI-Set" fill="none" fill-rule="evenodd"><g id="01.-Icons" transform="translate(-778 -1663)"><g id="Group-7" transform="translate(740 1628)"><g transform="translate(38 35)" id="Illustration/-Credit/-Docs-1"><g id="Group-28"><rect id="Rectangle-8" fill="#BCF2EB" width="60" height="80" rx="5"/><g id="Group-7" transform="translate(18 28)" fill="#404040"><path id="Rectangle-10" d="M0 0h24v1H0zm0 6h24v1H0zm0 6h24v1H0zm0 6h24v1H0zm0 6h12v1H0z"/></g></g><g id="Group-17" transform="translate(28 14)"><path d="M5 0h39l16 16v59a5 5 0 0 1-5 5H5a5 5 0 0 1-5-5V5a5 5 0 0 1 5-5z" id="Rectangle-8" fill="#FFF"/><path d="M44 0l16 16H49a5 5 0 0 1-5-5V0z" id="Rectangle" fill="#BCF2EB"/><g id="Group-41" transform="translate(18 28)" fill="#404040"><path id="Rectangle-10" d="M0 0h24v1H0zm0 6h24v1H0zm0 6h24v1H0zm0 6h24v1H0zm0 6h12v1H0z"/></g></g></g></g></g></g></svg>