<svg width="52" height="59" xmlns="http://www.w3.org/2000/svg"><g id="11.-Credit" fill="none" fill-rule="evenodd"><g id="11.1.1-Credit-Promo-1440" transform="translate(-694 -596)" fill="#404040"><g id="Group-44" transform="translate(574 544)"><g id="Group-47" transform="translate(64)"><g id="Illustration/-Credit/-Percent" transform="translate(56 52)"><path d="M.557 12.063c0-3.36 1.016-6.16 3.047-8.399 2.032-2.24 4.558-3.36 7.578-3.36 3.047 0 5.573 1.127 7.579 3.38 2.005 2.252 3.007 5.11 3.007 8.574v2.812c0 3.308-.996 6.081-2.988 8.32-1.992 2.24-4.499 3.36-7.52 3.36-3.046 0-5.592-1.107-7.636-3.32C1.58 21.216.557 18.352.557 14.836v-2.774zm2.149 3.007c0 2.709.775 4.974 2.324 6.797 1.55 1.823 3.626 2.735 6.23 2.735 2.5 0 4.519-.899 6.055-2.696 1.537-1.797 2.305-4.14 2.305-7.031v-2.813c0-2.812-.775-5.117-2.324-6.914-1.55-1.796-3.587-2.695-6.114-2.695-2.473 0-4.505.899-6.093 2.695C3.5 6.945 2.706 9.341 2.706 12.336v2.734zm27.383 28.985c0-3.36 1.009-6.153 3.027-8.38 2.018-2.226 4.538-3.34 7.559-3.34 3.047 0 5.58 1.114 7.597 3.34 2.019 2.227 3.028 5.111 3.028 8.653v2.774c0 3.359-1.01 6.152-3.028 8.378-2.018 2.227-4.524 3.34-7.52 3.34-3.02 0-5.553-1.106-7.597-3.32-2.044-2.214-3.066-5.078-3.066-8.594v-2.851zm2.148 3.047c0 2.786.775 5.078 2.324 6.875 1.55 1.796 3.614 2.695 6.192 2.695 2.552 0 4.59-.905 6.113-2.715 1.524-1.81 2.285-4.16 2.285-7.05v-2.852c0-2.943-.761-5.274-2.285-6.992-1.523-1.72-3.587-2.579-6.191-2.579-2.578 0-4.63.88-6.153 2.637-1.523 1.758-2.285 4.121-2.285 7.09v2.89zm-19.648 5.78l-1.758-1.21L38.604 7.219l1.758 1.21L12.59 52.884z" id="%"/></g></g></g></g></g></svg>