<svg width="32" height="32" xmlns="http://www.w3.org/2000/svg"><g id="11.-Credit" fill="none" fill-rule="evenodd"><g id="11.2-Credit-Promo-1440" transform="translate(-630 -3520)"><g id="Group-46" transform="translate(0 3316)"><g id="Group-28" transform="translate(630 204)"><rect id="Rectangle" fill="#BCF2EB" width="32" height="32" rx="16"/><path d="M13.727 16.148c0 1.693-.29 2.951-.868 3.774-.578.823-1.481 1.234-2.71 1.234-1.214 0-2.113-.402-2.696-1.207-.583-.804-.885-2.006-.906-3.605v-1.93c0-1.672.289-2.914.867-3.726.578-.813 1.484-1.22 2.719-1.22 1.224 0 2.125.393 2.703 1.177.578.783.875 1.993.89 3.628v1.875zm-1.446-1.976c0-1.224-.172-2.116-.515-2.676-.344-.56-.888-.84-1.633-.84-.74 0-1.279.279-1.617.836-.339.557-.513 1.414-.524 2.57v2.313c0 1.23.179 2.137.535 2.723.357.586.897.879 1.621.879.714 0 1.244-.276 1.59-.829.347-.552.528-1.421.543-2.609v-2.367zm3.172-2.36c0-.682.218-1.244.652-1.687.435-.443.994-.664 1.676-.664.693 0 1.254.223 1.684.668.43.445.644 1.022.644 1.73v.555c0 .688-.217 1.249-.652 1.684-.435.435-.988.652-1.66.652-.677 0-1.237-.217-1.68-.652-.443-.435-.664-1.015-.664-1.739v-.546zm1.078.602c0 .406.115.74.344 1.004.23.263.536.395.922.395.37 0 .668-.128.894-.383.227-.256.34-.604.34-1.047v-.57c0-.407-.112-.743-.336-1.008-.224-.266-.528-.399-.914-.399-.385 0-.69.133-.914.399-.224.265-.336.612-.336 1.039v.57zm4.461 5.797c0-.682.218-1.244.653-1.684.434-.44.993-.66 1.675-.66.683 0 1.242.219 1.68.656.438.438.656 1.019.656 1.743v.554c0 .683-.217 1.244-.652 1.684-.435.44-.991.66-1.668.66-.677 0-1.237-.217-1.68-.652-.442-.435-.664-1.015-.664-1.739v-.562zm1.078.61c0 .41.115.748.344 1.011.23.263.537.395.922.395.375 0 .674-.13.898-.387.224-.258.336-.608.336-1.05v-.58c0-.41-.113-.746-.34-1.007-.226-.26-.53-.39-.91-.39-.37 0-.67.128-.902.386-.232.258-.348.606-.348 1.043v.578zm-3.945 1.32l-.82-.516 5.554-8.89.82.515-5.554 8.89z" id="99+" fill="#404040"/></g></g></g></g></svg>