<svg width="48" height="18" xmlns="http://www.w3.org/2000/svg"><g id="11.-Credit" fill="none" fill-rule="evenodd"><g id="11.2-Credit-Promo-1440" transform="translate(-930 -3559)" fill="#FFF"><g id="Group-46" transform="translate(0 3316)"><g id="Group-34" transform="translate(914 212)"><path d="M27.743 46.381c1.495 0 3.117.513 4.913 2.104.18.159.419-.039.262-.237-1.764-2.228-3.396-2.652-5.024-3.01-1.991-.44-3.015-1.56-3.729-2.79-.142-.244-.205-.201-.218.113-.016.385.01.894.097 1.395-.08.004-.161.003-.243.003A5.157 5.157 0 1 1 28.96 38.8c0 .203-.01.403-.033.6-.377-.068-1.118-.076-1.638-.03-.195.016-.168.107-.02.134 1.705.308 2.876 1.365 3.144 3.282.006.044.064.057.086.019a7.801 7.801 0 1 0-6.697 3.797c1.144 0 2.278-.222 3.942-.222zm.58-2.833c.348.294.453.643.27.889a.565.565 0 0 1-.466.21.827.827 0 0 1-.531-.193c-.316-.276-.409-.723-.202-.977a.46.46 0 0 1 .368-.154c.19 0 .39.08.561.225zm1.602-.745c.051.342-.057.484-.166.484-.118 0-.267-.139-.442-.412-.173-.27-.236-.58-.15-.737.056-.103.175-.148.324-.092.29.11.403.553.434.757zm10.814-1.786l-.9-1.082a.174.174 0 0 1 .135-.285h1.881c.09-.267.14-.552.14-.848 0-1.355-1.008-2.524-2.392-2.524-1.385 0-2.393 1.169-2.393 2.524s1.008 2.507 2.393 2.507c.42 0 .803-.107 1.136-.292zm4.07 1.828c.098.108.017.282-.13.282h-2.053a.281.281 0 0 1-.217-.101l-.348-.419a4.505 4.505 0 0 1-2.458.728 4.538 4.538 0 0 1-4.533-4.533c0-2.5 2.033-4.533 4.533-4.533 2.5 0 4.533 2.033 4.533 4.533 0 .9-.266 1.74-.72 2.447l1.393 1.596zm18.968-8.368h-1.676c-.123 0-.223.1-.223.224v8.202c0 .123.1.223.223.223h1.676c.123 0 .223-.1.223-.223v-8.202c0-.124-.1-.224-.223-.224zm-2.82 0h-1.875a.223.223 0 0 0-.213.157l-1.484 4.848-1.63-4.853a.223.223 0 0 0-.211-.152h-1.309a.223.223 0 0 0-.211.152l-1.631 4.853-1.484-4.848a.223.223 0 0 0-.213-.157h-1.875a.224.224 0 0 0-.18.092.22.22 0 0 0-.031.2l2.754 8.207c.03.09.115.151.211.151h1.488c.096 0 .181-.06.212-.151l1.614-4.795 1.615 4.795c.03.09.115.151.211.151h1.488c.096 0 .182-.06.212-.151l2.754-8.207a.22.22 0 0 0-.03-.2.224.224 0 0 0-.182-.092zm-13.057.224v8.202c0 .123-.1.223-.223.223h-1.676a.223.223 0 0 1-.223-.223v-8.202c0-.124.1-.224.223-.224h1.676c.123 0 .223.1.223.224z" id="Fill-1"/></g></g></g></g></svg>