<svg width="36" height="29" xmlns="http://www.w3.org/2000/svg"><g id="11.-Credit" fill="none" fill-rule="evenodd"><g id="11.2-Credit-Promo-1440" transform="translate(-596 -3666)" fill="#FFF" fill-rule="nonzero"><g id="Group-46" transform="translate(0 3316)"><g id="Group-22" transform="translate(574 324)"><g id="homepage_selected-clients_mastercard_logo.svg_a" transform="translate(22 26)"><path d="M6.578 28.203V26.33a1.104 1.104 0 0 0-1.16-1.185 1.137 1.137 0 0 0-1.035.53 1.08 1.08 0 0 0-.974-.53.97.97 0 0 0-.863.443v-.368h-.641v2.983h.647v-1.654c0-.518.284-.793.722-.793.425 0 .64.281.64.787v1.66h.648v-1.654c0-.518.296-.793.721-.793.438 0 .647.281.647.787v1.66h.648zm9.578-2.984h-1.048v-.905h-.648v.905h-.598v.593h.598v1.36c0 .694.265 1.106 1.022 1.106.284 0 .562-.08.802-.231l-.185-.556a1.172 1.172 0 0 1-.567.169c-.32 0-.426-.2-.426-.5v-1.348h1.05v-.593zm5.466-.075a.867.867 0 0 0-.778.437v-.362h-.634v2.984h.64V26.53c0-.493.21-.768.63-.768.137-.001.273.024.4.075l.197-.611c-.146-.053-.3-.08-.456-.082h.001zm-8.266.312a2.182 2.182 0 0 0-1.202-.312c-.746 0-1.227.362-1.227.956 0 .487.357.786 1.017.88l.302.044c.351.05.518.144.518.312 0 .23-.234.362-.672.362-.353.01-.698-.1-.98-.312l-.302.506c.372.264.82.4 1.276.387.85 0 1.343-.406 1.343-.974 0-.524-.388-.8-1.029-.892l-.302-.045c-.277-.037-.5-.093-.5-.293 0-.218.21-.35.562-.35.323.006.639.094.918.257l.278-.526zm17.173-.312a.867.867 0 0 0-.778.437v-.362h-.631v2.984h.641V26.53c0-.493.21-.768.629-.768.137-.001.273.024.4.075l.197-.611c-.146-.053-.3-.08-.456-.082h-.002zm-8.257 1.567a1.498 1.498 0 0 0 1.572 1.567c.385.02.764-.108 1.06-.356l-.308-.524c-.221.17-.492.265-.77.268a.958.958 0 0 1 0-1.91c.278.004.549.098.77.27l.308-.525a1.531 1.531 0 0 0-1.06-.356 1.498 1.498 0 0 0-1.572 1.567zm6.004 0V25.22h-.642v.362a1.113 1.113 0 0 0-.93-.437c-.826 0-1.474.655-1.474 1.566s.648 1.567 1.474 1.567c.363.015.71-.148.93-.437v.362h.642V26.71zm-2.386 0a.893.893 0 1 1 1.781.125.893.893 0 0 1-1.781-.125zm-7.736-1.566c-.863 0-1.467.636-1.467 1.566 0 .949.629 1.567 1.511 1.567a1.78 1.78 0 0 0 1.208-.418l-.314-.48a1.393 1.393 0 0 1-.857.31.82.82 0 0 1-.881-.73h2.188a3.3 3.3 0 0 0 .012-.25c-.006-.93-.573-1.566-1.4-1.566zm-.013.58c.413 0 .678.262.746.724h-1.529a.762.762 0 0 1 .783-.724zm16.083.986v-2.689h-.641v1.56a1.113 1.113 0 0 0-.931-.436c-.826 0-1.473.655-1.473 1.566s.647 1.567 1.473 1.567c.363.015.71-.148.93-.437v.362h.642V26.71zm-2.386 0a.893.893 0 1 1 1.782.125.893.893 0 0 1-1.782-.125zm-21.648 0V25.22h-.642v.362a1.113 1.113 0 0 0-.93-.437c-.826 0-1.474.655-1.474 1.566s.648 1.567 1.474 1.567c.363.015.71-.148.93-.437v.362h.642V26.71zm-2.386 0a.893.893 0 1 1 1.781.125.893.893 0 0 1-1.781-.125zm27.489 1.06a.29.29 0 0 1 .275.18.295.295 0 0 1-.159.388.295.295 0 0 1-.33-.064.296.296 0 0 1 .213-.504zm0 .527c.03 0 .06-.006.089-.018a.232.232 0 0 0 .12-.123.24.24 0 0 0 0-.18.227.227 0 0 0-.42 0 .24.24 0 0 0 0 .18.227.227 0 0 0 .21.141zm.017-.37a.123.123 0 0 1 .081.024.08.08 0 0 1 .028.064.075.075 0 0 1-.022.056.107.107 0 0 1-.064.027l.089.104h-.07l-.082-.103h-.027v.103h-.058v-.275h.125zm-.066.052v.073h.066a.065.065 0 0 0 .037-.01.031.031 0 0 0 .013-.027.03.03 0 0 0-.013-.028.067.067 0 0 0-.037-.009h-.066zm-.347-9.7v-.363h.144v-.073h-.367v.074h.144v.362h.079zm.712 0v-.437h-.113l-.129.3-.13-.3h-.112v.436h.08v-.329l.121.284h.082l.122-.284v.33h.079zm-18.591 2.17c.086.076.178.15.268.225a10.948 10.948 0 0 1-6.143 1.878c-6.13 0-11.097-5.031-11.097-11.236C.046 5.11 5.014.08 11.143.08c2.19-.003 4.329.651 6.143 1.877-.09.075-.181.148-.268.225a12.196 12.196 0 0 0 0 18.267zM24.859.08a10.963 10.963 0 0 0-6.143 1.88c.09.074.181.148.268.225a12.196 12.196 0 0 1 0 18.266c-.086.077-.177.15-.268.225a10.95 10.95 0 0 0 6.143 1.878c6.129 0 11.097-5.03 11.097-11.236 0-6.205-4.969-11.236-11.098-11.236h.001zM18 2.488a11.32 11.32 0 0 0 0 17.66 11.32 11.32 0 0 0 0-17.66z" id="Shape"/></g></g></g></g></g></svg>