<svg width="33" height="10" xmlns="http://www.w3.org/2000/svg"><g id="11.-Credit" fill="none" fill-rule="evenodd"><g id="11.2-Credit-Promo-1440" transform="translate(-937 -3674)" fill="#FFF"><g id="Group-46" transform="translate(0 3316)"><g id="Group-44" transform="translate(914 324)"><g id="mir-logo" transform="translate(23.667 34)"><g id="g5"><path d="M8.623 0v.004c-.004 0-1.25-.004-1.582 1.187-.305 1.091-1.163 4.105-1.187 4.188h-.237S4.739 2.3 4.43 1.187C4.098-.004 2.848 0 2.848 0H0v9.058h2.848v-5.38h.237l1.662 5.38h1.977l1.662-5.375h.237v5.375h2.848V0H8.623z" id="path7"/></g><g id="g9" transform="translate(12.697)"><path d="M6.329 0s-.835.075-1.226.95L3.085 5.38h-.237V0H0v9.058h2.69s.874-.079 1.266-.95l1.977-4.43h.238v5.38h2.848V0h-2.69z" id="path11"/></g><g id="g13" transform="translate(22.981 4.114)"><path d="M0 0v4.944h2.848V2.057h3.085A3.081 3.081 0 0 0 8.841 0H0z" id="path15"/></g><g id="g17" transform="translate(22.546)"><path d="M6.368 0H.036a4.55 4.55 0 0 0 4.473 3.718H9.39a3.04 3.04 0 0 0 .064-.633A3.084 3.084 0 0 0 6.368 0z" id="path24"/></g></g></g></g></g></g></svg>