<svg width="64" height="20" xmlns="http://www.w3.org/2000/svg"><g id="11.-Credit" fill="none" fill-rule="evenodd"><g id="11.2-Credit-Promo-1440" transform="translate(-242 -3991)" fill="#FFF" fill-rule="nonzero"><g id="Group-46" transform="translate(0 3316)"><g id="Group-49" transform="translate(234 644)"><g id="logo-eleksnet" transform="translate(8 31)"><path d="M17.447 10.514H6.687V8.96h10.767a7.788 7.788 0 0 0-7.75-7.04A7.787 7.787 0 0 0 1.92 9.704a7.787 7.787 0 0 0 7.784 7.785 7.789 7.789 0 0 0 7.743-6.975zm1.766-.81c0 5.238-4.245 9.47-9.47 9.47-5.237 0-9.482-4.245-9.482-9.47 0-5.237 4.245-9.469 9.47-9.469 5.237 0 9.482 4.232 9.482 9.47zm-7.118-4.453c0 .666-.536 1.201-1.202 1.201a1.198 1.198 0 0 1-1.202-1.201c0-.667.536-1.202 1.202-1.202.666 0 1.202.535 1.202 1.202z" id="Combined-Shape"/><path d="M23.889 9.26h3.71c-.131-1.554-1.072-2.756-2.73-2.756-.653 0-1.215.183-1.725.392l-.248-.783a4.864 4.864 0 0 1 2.025-.457c2.495 0 3.788 1.815 3.788 4.127 0 2.638-1.725 4.127-3.853 4.127-.784 0-1.516-.157-2.09-.405l.222-.823a4.471 4.471 0 0 0 1.737.366c1.75 0 2.808-1.28 2.886-2.939H23.89V9.26z" id="Shape"/><path d="M33.384 8.02v5.733H32.34V8.83h-1.973v1.49c0 1.606-.156 2.69-.9 3.173-.288.222-.602.353-1.137.353l-.105-.823c.196-.04.431-.118.575-.235.536-.392.588-1.202.588-2.495V8.02h3.996zm30.525 0v.822h-1.79v4.925h-1.045V8.842h-1.79V8.02zm-13.806 0v2.311h2.704V8.02h1.044v5.747h-1.044v-2.6h-2.704v2.6h-1.045V8.02zm-9.705 0v2.494h.235L42.79 8.02h1.267l-2.508 2.586c.94.104 1.489.718 1.946 1.75.157.379.34.94.6 1.397h-1.083c-.157-.248-.34-.705-.536-1.175-.392-.927-.927-1.345-1.88-1.345h-.197v2.52h-1.045V8.02h1.045zm-2.39 2.311c.013-.666-.274-1.698-1.437-1.698-1.07 0-1.515.967-1.606 1.698h3.043zm-3.043.758c.026 1.398.914 1.985 1.96 1.985.744 0 1.214-.13 1.593-.3l.195.744c-.365.17-1.005.366-1.92.366-1.75 0-2.82-1.175-2.82-2.9 0-1.724 1.031-3.095 2.703-3.095 1.868 0 2.364 1.646 2.364 2.704 0 .209-.013.365-.04.483h-4.035v.013z" id="Shape"/><path d="M48.34 13.544c-.275.131-.876.34-1.646.34-1.737 0-2.86-1.175-2.86-2.926 0-1.763 1.214-3.056 3.082-3.056.614 0 1.162.157 1.45.314l-.235.796c-.249-.13-.64-.274-1.215-.274-1.32 0-2.025.98-2.025 2.168 0 1.332.85 2.142 1.999 2.142.588 0 .98-.144 1.28-.274l.17.77zm10.148-3.213c.013-.666-.274-1.698-1.437-1.698-1.07 0-1.515.967-1.593 1.698h3.03zm-3.043.758c.026 1.398.914 1.985 1.96 1.985.744 0 1.214-.13 1.593-.3l.195.744c-.365.17-1.005.366-1.92.366-1.75 0-2.82-1.175-2.82-2.9 0-1.724 1.031-3.095 2.703-3.095 1.868 0 2.364 1.646 2.364 2.704 0 .209-.013.365-.04.483h-4.035v.013z" id="Shape"/></g></g></g></g></g></svg>