<svg width="32" height="31" xmlns="http://www.w3.org/2000/svg"><g id="11.-Credit" fill="none" fill-rule="evenodd"><g id="11.2-Credit-Promo-1440" transform="translate(-938 -4098)" fill="#FFF"><g id="Group-43" transform="translate(938 4098)"><path d="M3.556 1C2.133 1 1 2.079 1 3.385v15.23C1 19.921 2.133 21 3.556 21h24.888C29.867 21 31 19.921 31 18.615V3.385C31 2.079 29.867 1 28.444 1H3.556zm0-1h24.888C30.408 0 32 1.515 32 3.385v15.23C32 20.485 30.408 22 28.444 22H3.556C1.592 22 0 20.485 0 18.615V3.385C0 1.515 1.592 0 3.556 0z" id="Rectangle-12" fill-rule="nonzero"/><circle id="Oval-2" cx="25" cy="15" r="3"/><path id="Rectangle-12" d="M0 5h32v4H0zm2 9h18v2H2z"/><path d="M17.5 27H21l-4 4-4-4h3.5v-9h1v9z" id="Combined-Shape"/></g></g></g></svg>