<svg width="64" height="13" xmlns="http://www.w3.org/2000/svg"><g id="11.-Credit" fill="none" fill-rule="evenodd"><g id="11.2-Credit-Promo-1440" transform="translate(-242 -3562)" fill="#FFF"><g id="Group-46" transform="translate(0 3316)"><g id="Group-36" transform="translate(234 212)"><g id="Group" transform="translate(8 34)"><path d="M.005 6.095v-.479c.002-.06.006-.119.01-.178l3.81 2.191 8.07-4.641a6.347 6.347 0 0 1 .632 3.741 6.29 6.29 0 0 1-1.107 2.777 6.304 6.304 0 0 1-1.845 1.723 6.316 6.316 0 0 1-3.108.92h-.35a6.324 6.324 0 0 1-1.126-.133 6.327 6.327 0 0 1-2.346-1.031 6.293 6.293 0 0 1-2.64-4.89zM8.733.057c.254.107.5.23.736.368L3.825 3.672 1.2 2.162c.136-.188.282-.368.438-.54L3.825 2.88 8.733.057zM3.825 4.464L10.105.85c.193.147.377.306.553.474l-6.833 3.93L.52 3.353c.091-.21.194-.416.308-.615l2.997 1.725zm0 1.582l7.312-4.206a5.843 5.843 0 0 1 .173.218c.083.11.163.222.239.337L3.825 6.838.107 4.7a6.371 6.371 0 0 1 .171-.693l3.547 2.04z" id="Clip-2"/><path id="Fill-4" d="M15.903 10.301v-.343h48.048v.645H15.903v-.302"/><path d="M20.715 7.563a2.712 2.712 0 0 1-.764.217c-.157.023-.34.033-.547.033-.403 0-.731-.076-.986-.226a1.608 1.608 0 0 1-.599-.623 2.768 2.768 0 0 1-.297-.934 7.95 7.95 0 0 1-.08-1.17c0-.326.015-.658.047-.995.03-.336.106-.638.226-.906a1.61 1.61 0 0 1 .528-.655c.233-.17.55-.254.953-.254.365 0 .68.098.948.296.267.198.433.499.496.9h.414v-1.31a2.392 2.392 0 0 0-.42-.147 4.047 4.047 0 0 0-.504-.094 9.802 9.802 0 0 0-.519-.052 6.741 6.741 0 0 0-.462-.019c-.579 0-1.072.08-1.481.236a2.499 2.499 0 0 0-1.005.684 2.794 2.794 0 0 0-.575 1.095 5.36 5.36 0 0 0-.185 1.466c0 .516.062.978.185 1.388.122.409.31.756.565 1.042.255.286.577.504.968.655.39.151.855.226 1.396.226a4.513 4.513 0 0 0 1.363-.202 4.1 4.1 0 0 0 .495-.193c.145-.07.27-.135.378-.198l-.208-.406-.33.146zm5.722-3.038c-.23-.16-.53-.276-.896-.349a7.169 7.169 0 0 0-1.345-.108h-.547V2.502c0-.17.034-.277.104-.32.069-.045.213-.067.434-.067h.792c.245 0 .445.01.599.028.154.02.282.064.383.132.1.07.181.173.245.312.062.138.125.323.188.556h.35V1.71h-4.868v.211c.026.007.053.019.122.038s.123.048.16.085a.273.273 0 0 1 .071.16c.01.068.014.156.014.265v5.048c0 .108-.005.196-.014.265a.271.271 0 0 1-.07.16.35.35 0 0 1-.161.084c-.07.02-.096.032-.122.038v.211h2.47c.34 0 .675-.018 1.005-.057.33-.036.625-.13.882-.278.26-.147.466-.367.624-.66.157-.293.236-.694.236-1.203 0-.365-.052-.675-.156-.929a1.379 1.379 0 0 0-.5-.623zm-.934 2.543c-.073.226-.169.4-.288.519a.828.828 0 0 1-.41.23 2.145 2.145 0 0 1-.477.053c-.157 0-.28-.011-.368-.033a.412.412 0 0 1-.203-.109.364.364 0 0 1-.09-.197 2.193 2.193 0 0 1-.018-.312V4.474h.566c.51 0 .87.13 1.08.39.21.262.316.688.316 1.28 0 .39-.036.698-.108.924zm6.48.292a.71.71 0 0 1-.202.34.686.686 0 0 1-.373.141 6.08 6.08 0 0 1-.665.029c-.264 0-.47-.01-.618-.029a.779.779 0 0 1-.334-.104.324.324 0 0 1-.142-.221 1.954 1.954 0 0 1-.028-.372V5.077h.886a5.013 5.013 0 0 1 .59.038c.11.012.215.033.316.062.1.028.186.064.254.108v-.84a.848.848 0 0 1-.254.104 3.108 3.108 0 0 1-.637.09 7.547 7.547 0 0 1-.269.005h-.886v-2.18c0-.145.02-.24.06-.283.042-.044.128-.066.26-.066h.708c.246 0 .444.01.6.028.153.02.28.064.38.132.102.07.183.173.246.312.063.138.126.323.189.556h.35V1.71h-4.557v.211c.026.007.052.019.121.038.07.019.123.048.161.085a.271.271 0 0 1 .07.16 2 2 0 0 1 .015.274v5.03c0 .113-.005.204-.014.274a.269.269 0 0 1-.07.16.355.355 0 0 1-.162.084c-.068.02-.095.032-.122.038v.211h4.708V6.747h-.434c-.05.258-.1.462-.147.613zm5.699-5.353a2 2 0 0 0-.769-.246 7.654 7.654 0 0 0-.896-.051h-2.594v.211c.026.007.052.019.122.038s.123.048.16.085a.27.27 0 0 1 .071.16 2 2 0 0 1 .015.274v5.03c0 .113-.005.204-.015.274a.267.267 0 0 1-.071.16.346.346 0 0 1-.16.084c-.07.02-.096.032-.122.038v.211h2.15v-.211c-.026-.006-.053-.018-.122-.038a.35.35 0 0 1-.16-.085.272.272 0 0 1-.072-.16 2.217 2.217 0 0 1-.013-.273V5.672h.65c.34 0 .664-.026.973-.076.307-.05.58-.15.815-.297.236-.148.423-.357.562-.627.138-.27.207-.63.207-1.076 0-.428-.066-.767-.198-1.019a1.386 1.386 0 0 0-.533-.57zm-.971 2.811c-.161.299-.443.448-.845.448h-.66V2.473c0-.062.004-.118.013-.165a.2.2 0 0 1 .066-.113.369.369 0 0 1 .161-.062c.073-.012.172-.018.297-.018.17 0 .329.022.477.066a.913.913 0 0 1 .386.231c.11.11.196.257.255.44.06.18.09.41.09.687 0 .554-.08.98-.24 1.279zm6.914-.293c-.229-.16-.528-.276-.896-.349a7.16 7.16 0 0 0-1.344-.108h-.547V2.502c0-.17.034-.277.103-.32.07-.045.215-.067.435-.067h.792c.245 0 .445.01.599.028.154.02.28.064.382.132.1.07.182.173.246.312.062.138.125.323.188.556h.349V1.71h-4.867v.211c.026.007.052.019.121.038.07.019.123.048.16.085a.27.27 0 0 1 .072.16c.01.07.014.16.014.274v3.719-.001 1.312c0 .113-.005.204-.014.274a.267.267 0 0 1-.071.16.348.348 0 0 1-.16.084c-.07.02-.096.032-.122.038v.211h2.47c.34 0 .675-.018 1.006-.057.33-.036.623-.13.882-.278.257-.147.465-.367.622-.66.158-.293.236-.694.236-1.203 0-.365-.052-.675-.156-.929a1.377 1.377 0 0 0-.5-.623zm-.934 2.543a1.27 1.27 0 0 1-.287.519.829.829 0 0 1-.411.23 2.144 2.144 0 0 1-.476.053 1.59 1.59 0 0 1-.368-.033.411.411 0 0 1-.203-.109.368.368 0 0 1-.09-.197 2.203 2.203 0 0 1-.018-.312V4.474h.565c.51 0 .87.13 1.08.39.21.262.317.688.317 1.28 0 .39-.036.698-.109.924zm13.92-5.358H54.84v.211c.025.007.052.019.12.038.07.019.124.048.162.085a.271.271 0 0 1 .07.16 2 2 0 0 1 .015.274v2.1h-2.538v-2.1c0-.113.005-.205.014-.274a.27.27 0 0 1 .07-.16.362.362 0 0 1 .162-.085c.069-.019.095-.032.121-.038V1.71h-2.141v.211c.026.007.053.019.122.038a.36.36 0 0 1 .16.085.271.271 0 0 1 .071.16c.01.067.014.154.014.262V7.52c0 .108-.005.195-.013.263a.27.27 0 0 1-.072.16.352.352 0 0 1-.16.084c-.07.02-.096.032-.122.038v.211h2.14v-.211c-.026-.006-.052-.018-.121-.038a.35.35 0 0 1-.161-.085.268.268 0 0 1-.07-.16 1.984 1.984 0 0 1-.015-.273V5.01h2.538v2.497c0 .113-.005.204-.014.274a.27.27 0 0 1-.071.16.353.353 0 0 1-.16.084c-.07.02-.097.032-.122.038v.211h2.14v-.211c-.026-.006-.053-.018-.122-.038a.35.35 0 0 1-.16-.085.265.265 0 0 1-.071-.16 2.008 2.008 0 0 1-.014-.273V6.196l-.01.029V3.76l.01.028v-1.31c0-.113.005-.205.014-.274a.27.27 0 0 1 .07-.16.365.365 0 0 1 .161-.085c.069-.019.096-.032.122-.038V1.71h-.367zm-6.66 5.093l-1.5-4.3a3.186 3.186 0 0 1-.137-.478 8.256 8.256 0 0 1-.052-.315h-1.877v.211c.026.007.053.02.122.038a.36.36 0 0 1 .16.085c.038.038.062.09.072.16.005.04.009.089.01.143a1.285 1.285 0 0 1-.081.429L45.62 5.37a71.803 71.803 0 0 1-.853 2.037 7.265 7.265 0 0 1-.448.868h1.188c.013-.157.062-.426.147-.806.085-.38.237-.904.457-1.571h2.085l.283.84c.125.376.227.695.302.952.076.258.12.453.132.585h1.67c-.07-.132-.156-.31-.26-.533a11.575 11.575 0 0 1-.372-.939zm-3.69-1.339l.907-2.651.887 2.651h-1.793zm17.02 2.114a84.934 84.934 0 0 1-1.104-1.236c-.176-.201-.343-.4-.5-.595a10.695 10.695 0 0 1-.868-1.226l.104-.133c.157-.2.343-.432.557-.693.213-.26.433-.519.66-.773.227-.255.453-.49.679-.708a3.88 3.88 0 0 1 .614-.495v-.01h-1.538a4.17 4.17 0 0 1-.232.486c-.103.192-.225.398-.362.618-.139.22-.283.449-.435.684-.15.236-.301.46-.452.675l-.42.594c-.129.182-.238.33-.326.443.158.214.3.41.43.585l.367.505a76.215 76.215 0 0 1 .684.958c.126.176.238.349.336.518.097.17.186.337.269.5l2.217.02c-.233-.24-.46-.479-.68-.717zm-3.65.363a.267.267 0 0 1-.071-.16 2.008 2.008 0 0 1-.014-.273v-5.03c0-.113.004-.205.014-.274a.27.27 0 0 1 .07-.16.36.36 0 0 1 .162-.085c.068-.019.095-.032.121-.038V1.71h-2.141v.211c.026.007.053.019.122.038.07.019.122.048.16.085a.272.272 0 0 1 .071.16c.01.07.014.16.014.274v5.03c0 .113-.005.204-.014.274a.269.269 0 0 1-.07.16.35.35 0 0 1-.161.084c-.07.02-.096.032-.122.038v.211h2.141v-.211c-.026-.006-.053-.018-.121-.038a.347.347 0 0 1-.161-.085z" id="Fill-5"/></g></g></g></g></g></svg>