<svg width="40" height="13" xmlns="http://www.w3.org/2000/svg"><g id="11.-Credit" fill="none" fill-rule="evenodd"><g id="11.2-Credit-Promo-1440" transform="translate(-254 -3672)" fill="#FFF" fill-rule="nonzero"><g id="Group-46" transform="translate(0 3316)"><g id="Group-32" transform="translate(234 324)"><g id="Visa_Inc._logo" transform="translate(20 32)"><path id="polygon9" d="M17.317 12.747H14.08L16.104.227h3.237z"/><path d="M29.052.533A7.978 7.978 0 0 0 26.148 0c-3.196 0-5.448 1.705-5.461 4.142-.027 1.798 1.611 2.797 2.837 3.396 1.252.613 1.678 1.013 1.678 1.56-.013.838-1.012 1.224-1.944 1.224-1.293 0-1.985-.199-3.038-.665l-.426-.2-.453 2.81c.76.346 2.158.653 3.61.666 3.397 0 5.609-1.678 5.635-4.275.013-1.426-.852-2.518-2.717-3.41-1.133-.573-1.826-.96-1.826-1.545.013-.533.586-1.079 1.864-1.079a5.5 5.5 0 0 1 2.412.48l.293.132.44-2.703z" id="path11"/><path d="M33.354 8.311c.267-.719 1.293-3.503 1.293-3.503-.014.027.266-.732.426-1.198l.226 1.079s.613 2.996.746 3.622h-2.69zM37.35.227h-2.504c-.772 0-1.358.226-1.692 1.039l-4.808 11.48h3.397l.679-1.878h4.156c.093.44.387 1.878.387 1.878h2.997L37.35.226z" id="path13"/><path d="M11.376.227l-3.17 8.537-.347-1.731c-.586-1.998-2.424-4.169-4.476-5.248l2.904 10.948h3.424L14.799.227h-3.423z" id="path15"/><path d="M5.262.227H.053L0 .48c4.063 1.039 6.754 3.543 7.859 6.553L6.727 1.28C6.54.48 5.967.253 5.262.227z" id="path17"/></g></g></g></g></g></svg>