<svg width="48" height="24" xmlns="http://www.w3.org/2000/svg"><g id="11.-Credit" fill="none" fill-rule="evenodd"><g id="11.2-Credit-Promo-1440" transform="translate(-590 -3988)" fill-rule="nonzero"><g id="Group-46" transform="translate(0 3316)"><g id="Group-53" transform="translate(574 644)"><g id="Group-42" transform="translate(16 28)"><path d="M4.695 1.872c.343-.344.674-.687 1.03-1.019.368.344.724.687 1.092 1.019-.368.33-.724.687-1.092 1.018-.356-.331-.687-.675-1.03-1.018z" id="Shape" fill="#FFF"/><path d="M3.64 3.491c.589-.16 1.202-.22 1.815-.258v5.84H3.48c-.22 0-.405-.172-.49-.368-.479-1.117-.933-2.257-1.424-3.374-.122.086-.257.184-.38.258.442 1.165.957 2.306 1.411 3.472-.344 0-.687.012-1.03-.013C1.21 7.76.658 6.546.142 5.318c.994-.87 2.196-1.52 3.497-1.827zM2.462 4.939c.442 1.055.846 2.122 1.3 3.19.123.281.479.196.736.196v-4a9.75 9.75 0 0 0-2.036.614zm3.521-1.706c.846.05 1.705.172 2.515.467 1.03.343 1.975.932 2.797 1.631-.454 1.276-1.018 2.515-1.558 3.754h-.883c.392-.969.797-1.926 1.19-2.895.085-.196.159-.38.22-.577-.135-.086-.257-.171-.404-.257-.454 1.116-.933 2.22-1.399 3.337-.074.208-.27.404-.503.392H5.983c.012-1.963 0-3.913 0-5.852zm.957 1.092c0 1.325.012 2.662 0 4.012.172 0 .356.012.527-.012.197-.086.258-.307.332-.491.343-.859.699-1.718 1.042-2.576.037-.11.123-.221.098-.332a8.741 8.741 0 0 0-2-.6z" id="Combined-Shape" fill="#FFF"/><path d="M11.626 5.613c.736-.638 1.754-.797 2.7-.736.662.074 1.385.209 1.888.7.417.392.516 1.03.405 1.57a1.622 1.622 0 0 1-.834 1.116c.393.221.785.528.945.97.159.527.049 1.116-.221 1.594-.344.614-.982 1.006-1.656 1.166-.7.16-1.424.085-2.098-.135-.479-.16-.945-.393-1.325-.736.147-.209.282-.442.43-.663.073-.123.183-.233.33-.233.246-.037.454.123.663.22.515.283 1.14.418 1.73.283.282-.061.527-.27.6-.54.074-.282.099-.625-.085-.883-.196-.282-.564-.38-.883-.417-.405-.025-.81 0-1.215-.012.012-.405 0-.822 0-1.227.442-.012.896.024 1.337-.037.258-.037.516-.16.638-.405.123-.307.086-.724-.208-.92-.344-.22-.785-.22-1.19-.16-.356.062-.675.258-1.006.393-.172.074-.405.012-.503-.147-.16-.245-.282-.515-.442-.76z" id="Shape" fill="#FEFAFA"/><path d="M19.355 6.865c.736-.098 1.533 0 2.134.454.503.368.822.969.908 1.582.098.7 0 1.46-.392 2.061-.331.528-.884.883-1.485 1.018-.736.16-1.533.074-2.183-.319-.577-.355-.97-.981-1.092-1.644-.11-.613-.062-1.263.208-1.827.368-.724 1.117-1.215 1.902-1.325zm.098 1.202a.74.74 0 0 0-.442.417c-.171.368-.171.773-.184 1.165-.012.356.05.749.295 1.031.405.442 1.227.405 1.533-.123.233-.417.233-.908.209-1.374-.037-.368-.123-.81-.454-1.03-.282-.184-.65-.184-.957-.086zm10.649-1.202c.76-.11 1.607.024 2.208.527.478.38.76.97.834 1.57.086.724-.025 1.497-.454 2.098a2.32 2.32 0 0 1-1.41.933c-.737.16-1.559.073-2.197-.356-.515-.344-.858-.908-.993-1.51-.148-.71-.086-1.496.282-2.134.368-.625 1.03-1.03 1.73-1.128zm.098 1.19a.798.798 0 0 0-.442.429c-.184.356-.172.773-.184 1.165-.012.356.061.749.307 1.031.306.331.858.38 1.239.16.38-.246.466-.737.49-1.154 0-.466.013-.981-.27-1.374-.257-.343-.76-.38-1.14-.257zm8.207-1.019c.675-.085 1.362-.208 2.049-.196a2.063 2.063 0 0 1 1.374.589c.392.393.625.932.662 1.484v3.153c-.294-.012-.589.012-.883-.012-.27-.025-.282-.356-.405-.54-.344.184-.626.479-1.018.564-.528.135-1.141.086-1.607-.22-.38-.258-.552-.736-.577-1.178a1.59 1.59 0 0 1 .65-1.374c.32-.209.675-.331 1.043-.442.393-.11.81-.135 1.227-.135.012-.294-.147-.6-.442-.674-.49-.135-1.006.036-1.497.086a.49.49 0 0 1-.478-.258c-.123-.258-.098-.564-.098-.847zm1.129 2.945c-.344.171-.38.785.024.932.466.172 1.018-.024 1.35-.393.024-.245-.037-.503-.05-.76-.441.012-.92 0-1.324.22z" id="Combined-Shape" fill="#FEFAFA"/><path d="M23.44 9.735c.172-.907.098-1.84.147-2.76h3.877v5.103h-1.497V8.141h-1.092c-.049.76-.06 1.533-.22 2.281-.11.479-.283.97-.638 1.325-.38.38-.945.503-1.46.479-.123 0-.258-.074-.258-.209-.012-.319 0-.626-.012-.944.233-.025.466-.099.65-.234.295-.319.442-.711.503-1.104zm9.667-2.76h4.76v1.08H36.31v3.938h-1.57V8.055h-1.632v-1.08z" id="Shape" fill="#FEFAFA"/><path d="M43.608 7.429c.467-.331 1.031-.454 1.595-.454h2.049v5.03h-1.423V10.03c-.184.012-.393.037-.515.196-.344.43-.442.994-.736 1.46-.148.233-.43.307-.687.319-.393.012-.798 0-1.19 0 .368-.614.723-1.215 1.104-1.828a.862.862 0 0 1 .589-.417c-.467-.098-.97-.331-1.178-.798-.258-.527-.037-1.177.392-1.533zm1.387.552c-.405.147-.491.76-.16 1.043.258.27.663.16.994.184V7.92c-.282.012-.564-.037-.834.061z" id="Combined-Shape" fill="#FEFAFA"/><path d="M1.763 9.539h7.974v.945H1.763v-.945z" id="Shape" fill="#FFF"/><path d="M1.775 11.11h2.38v4.01c.27.013.552 0 .822-.085.11-.049.196-.147.27-.233.589-.785.908-1.742 1.497-2.527.233-.32.515-.614.87-.798.663-.294 1.4-.33 2.11-.306v1.435a.483.483 0 0 1-.22.442c-.233.135-.503.147-.736.257-.209.086-.38.246-.503.43-.393.527-.54 1.202-.933 1.73a1.346 1.346 0 0 1-.515.392c.307.074.601.22.834.442.258.257.454.564.638.87.724 1.289 1.46 2.565 2.184 3.853H8.326c-.245.012-.503-.062-.662-.258-.16-.16-.221-.38-.332-.564-.564-.982-1.116-1.975-1.68-2.957a.812.812 0 0 0-.516-.405c-.319-.06-.662-.024-.981-.036v4.146H1.971c-.061-.024-.208.037-.196-.073v-9.766z" id="Shape" fill="#FEFAFA"/><path d="M13 13.6c.908-.098 1.865.037 2.65.527a3.332 3.332 0 0 1 1.399 1.791c.233.687.27 1.423.196 2.135-.037.393-.16.76-.344 1.104a3.554 3.554 0 0 1-1.361 1.521c-.81.466-1.804.59-2.724.442a3.674 3.674 0 0 1-2.159-1.129c-.466-.54-.797-1.214-.883-1.938-.11-.932-.013-1.914.466-2.748.54-1.006 1.644-1.607 2.76-1.705zm.05 1.656a1.228 1.228 0 0 0-.712.552c-.27.466-.295 1.03-.307 1.558-.012.515 0 1.055.258 1.509.16.307.429.527.76.613.466.11 1.018.086 1.399-.233.392-.343.515-.883.564-1.374.037-.54.025-1.092-.11-1.62-.099-.343-.283-.674-.59-.87-.38-.221-.846-.246-1.263-.135zm8.206-1.57c.577-.148 1.203-.184 1.767.036.712.295 1.202.933 1.497 1.62.245.515.319 1.092.343 1.656.05 1.03-.208 2.098-.81 2.956-.417.59-1.042 1.031-1.754 1.166-.589.11-1.239.061-1.779-.209-.196-.086-.368-.22-.54-.33v2.784l-2.17.074v-9.717h1.349c.22 0 .454.099.527.307.061.184.098.38.147.577.405-.442.884-.773 1.423-.92zm-1.263 2.257c.012 1.03-.012 2.073 0 3.104.245.306.662.478 1.055.49.417.025.846-.122 1.092-.466.405-.564.441-1.3.43-1.975-.025-.54-.075-1.153-.467-1.57-.258-.282-.7-.295-1.055-.233-.417.061-.785.33-1.055.65zm8.6-2.343c.981-.11 2.036.049 2.858.625.736.503 1.202 1.338 1.362 2.196.16.86.122 1.78-.209 2.601a3.254 3.254 0 0 1-1.693 1.803c-.785.356-1.668.418-2.515.295-.846-.135-1.668-.552-2.208-1.227-.613-.736-.87-1.73-.834-2.687.024-.932.331-1.889.994-2.564.6-.613 1.423-.944 2.245-1.042zm.098 1.656a1.215 1.215 0 0 0-.638.417c-.295.393-.368.896-.393 1.374-.024.564-.024 1.153.197 1.68.134.332.404.639.76.737.454.135.97.11 1.362-.147.368-.27.54-.724.613-1.154a5.104 5.104 0 0 0 .013-1.558c-.062-.429-.221-.883-.59-1.165-.38-.27-.883-.295-1.324-.184zm12.856-1.423c1.006-.16 2.012-.295 3.03-.258.884.037 1.755.479 2.246 1.227.38.552.515 1.227.49 1.89v4.428c-.38 0-.76.012-1.128 0-.197-.012-.417-.061-.528-.233-.11-.196-.172-.43-.245-.638-.822.932-2.245 1.263-3.386.773a1.703 1.703 0 0 1-.896-.884c-.27-.625-.33-1.374-.11-2.024.27-.687.883-1.19 1.57-1.41.442-.135.884-.283 1.35-.332a9.744 9.744 0 0 1 1.202-.061c.037-.43-.245-.883-.687-.97-.49-.097-.981 0-1.46.087-.307.049-.638.16-.945.049-.233-.086-.38-.32-.453-.552a4.124 4.124 0 0 1-.05-1.092zm1.767 4.183c-.442.16-.638.736-.442 1.129.148.27.479.343.761.343.331 0 .675-.061.97-.22.208-.11.343-.32.539-.43.012-.38 0-.748 0-1.129-.613.074-1.24.11-1.828.307z" id="Combined-Shape" fill="#FEFAFA"/><path d="M33.524 13.698h2.172v2.65c.773.012 1.533 0 2.306.012.012-.883 0-1.767 0-2.65h2.184v7.336h-2.184v-3.054h-2.306v3.054c-.724.013-1.448 0-2.184 0 .012-2.453.012-4.907.012-7.348z" id="Shape" fill="#FEFAFA"/></g></g></g></g></g></svg>