<svg width="44" height="22" xmlns="http://www.w3.org/2000/svg"><g id="11.-Credit" fill="none" fill-rule="evenodd"><g id="11.2-Credit-Promo-1440" transform="translate(-252 -4101)" fill="#FFF" fill-rule="nonzero"><g id="Group-46" transform="translate(252 4101)"><path d="M0 21.387V.073h21.317v21.314H0zM13.111 5.22v.742h.685v3.733h.825V5.963h.695v-.742H13.11zm-1.806 1.557h-.45c-.184 0-.324-.04-.41-.124-.064-.057-.093-.137-.093-.239V5.221h-.825v1.277c0 .293.118.545.348.742.226.195.506.293.828.293h.602v2.163h.825V5.221h-.825v1.557zM1.959 5.221v4.475h.825V5.963h1.02v3.733h.821V5.221H1.96zm17.23 6.317l-.06.06-1.647 1.72v-1.567h-.717v4.453h.717v-1.828c.019-.023.94-.998 1.045-1.109l.105 2.937h.732l-.175-4.666zm-3.495.06l-.003.007-.006.003-.007.01-.01.009-.012.012-.013.013-.016.016-.016.016-.019.02-.019.022-.022.022-.022.022-.023.026-.025.025-.029.029-.057.06-.06.064-.064.067-.067.07-.07.073-.074.073-.073.077-.073.08-.15.156-.073.076-.073.073-.07.074-.067.073-.067.067-.06.064-.058.06-.028.029-.026.028-.025.026-.022.025-.023.023-.019.022-.019.02-.019.018-.016.017-.013.012-.012.013-.01.013-.01.006-.006.01v-1.567h-.72v4.453h.72v-1.829c.019-.022.94-.997 1.045-1.108l.105 2.937h.73l-.176-4.667-.058.06zm-4.166 3.5l-.045-.053-.038-.054-.038-.06-.032-.061-.032-.064-.029-.064-.028-.066-.023-.067-.019-.074-.019-.07-.016-.076-.013-.077-.01-.08-.006-.08-.003-.082-.003-.083c0-.468.114-.84.337-1.115.246-.3.603-.449 1.068-.449h.035v-.777h-.035c-.727 0-1.284.223-1.663.672-.344.405-.52.968-.52 1.676 0 .681.192 1.245.564 1.669.395.446.94.675 1.628.675h.035v-.78h-.035c-.452 0-.808-.153-1.06-.46zm-2.762 0l-.019-.025-.022-.028-.042-.054-.035-.06-.035-.061-.032-.064-.028-.064-.026-.066-.025-.067-.02-.074-.018-.07-.013-.076-.013-.077-.01-.08-.006-.08-.006-.082v-.083c0-.468.111-.84.338-1.115.242-.3.598-.449 1.063-.449h.039v-.777h-.039c-.723 0-1.283.223-1.659.672-.347.405-.52.968-.52 1.676 0 .681.189 1.245.565 1.669.391.446.94.675 1.627.675h.035v-.78H9.83c-.455 0-.812-.153-1.064-.46zm-3-3.456c-.385 0-.693.218-.915.645-.217.42-.327.98-.327 1.665 0 .707.104 1.279.31 1.696.21.427.525.645.932.645.418 0 .747-.231.98-.677.217-.418.326-.981.326-1.673 0-.681-.111-1.239-.334-1.656l-.024-.04-.024-.04-.016-.04-.032-.031-.016-.032-.032-.032-.024-.032-.024-.032-.024-.031-.032-.032-.024-.024-.031-.024-.024-.024-.032-.024-.024-.024-.032-.024-.032-.016-.032-.016-.032-.016-.031-.015-.032-.016-.032-.017-.032-.007-.04-.017-.032-.007-.04-.008-.031-.008h-.032l-.04-.008-.04-.008h-.079zm1.386-6.538c-.437 0-.787.22-1.035.653-.246.424-.367.985-.367 1.672 0 .71.115 1.292.35 1.713.24.43.593.645 1.052.645.468 0 .838-.225 1.099-.677.245-.42.374-.99.374-1.68 0-.689-.134-1.253-.382-1.673l-.024-.04-.024-.04-.024-.04-.032-.031-.024-.04-.032-.032-.024-.031-.031-.032-.032-.032-.024-.024-.032-.032-.032-.024-.032-.024-.032-.024-.04-.024-.031-.016-.032-.024-.032-.016-.04-.016-.032-.016-.04-.016-.04-.016-.031-.008-.04-.016-.04-.008-.04-.008-.039-.007-.04-.008H7.24l-.04-.008h-.047zm.008.757c.223 0 .38.143.486.43.095.26.143.642.143 1.139 0 .474-.056.87-.167 1.17-.108.293-.258.43-.462.43h-.072l-.016-.008-.016-.008H7.04l-.016-.008L7.008 9l-.016-.008-.016-.008-.016-.008-.016-.016-.016-.008-.016-.016-.016-.008-.008-.016-.016-.016-.016-.016-.008-.016-.016-.016-.016-.024-.008-.016-.016-.016-.008-.024-.016-.024-.008-.016-.007-.032-.016-.024-.008-.024-.008-.024-.016-.023c-.112-.31-.167-.701-.167-1.163 0-.475.055-.862.167-1.155.106-.283.254-.421.455-.421zm-1.394 6.498c.204 0 .354.145.446.438.09.264.128.65.128 1.147 0 .48-.045.88-.143 1.186l-.017.032-.007.024-.008.024-.008.024-.008.024-.016.024-.008.024-.016.016-.008.024-.016.016-.008.024-.008.016-.015.016-.016.015-.008.016-.016.008-.008.016-.016.016-.016.008-.016.015-.016.008-.016.008-.008.008-.016.008h-.016l-.016.008-.016.008h-.016l-.016.008h-.056c-.175 0-.307-.15-.406-.446-.102-.31-.152-.706-.152-1.171 0-.474.05-.866.152-1.163.093-.283.228-.43.406-.43zM16.39 5.223L16.238 9.7h.82l.08-2.19h1.027l.24 2.19h.827l-.382-3.273v-.12l-.008-.039v-.04l-.008-.032v-.04l-.008-.031-.008-.04-.007-.032-.008-.032-.008-.032-.008-.031-.016-.032-.008-.032-.008-.032-.016-.032-.016-.024-.016-.032-.008-.024-.016-.031-.016-.024-.024-.024-.016-.032-.016-.016-.024-.032-.016-.016-.024-.024-.024-.024-.024-.016-.016-.024-.032-.024c-.207-.163-.487-.239-.844-.239H16.39zm.788.741h.295c.213 0 .356.069.446.2.073.107.122.314.151.604h-.916v-.127l.008-.024V6.3l.008-.032v-.232l.008-.016v-.056zm-15.226 5.79v4.443h.732v-1.29a.72.72 0 0 0 .47.2c.242 0 .441-.128.598-.383.175-.284.262-.702.262-1.25 0-.383-.07-.727-.207-1.02l-.023-.048-.024-.04-.016-.039-.024-.032-.024-.04-.032-.04-.024-.031-.024-.032-.032-.032-.024-.032-.032-.032-.032-.024-.032-.031-.031-.024-.032-.024-.032-.024-.04-.016-.032-.024-.032-.016-.04-.016-.04-.016-.039-.016-.04-.016-.04-.007-.04-.008-.039-.008-.047-.016H2.9l-.048-.008h-.04l-.048-.008h-.812zm.693.629h.071c.185 0 .328.107.43.31.102.204.152.52.152.956 0 .236-.03.422-.096.55-.064.127-.147.19-.239.19-.089 0-.162-.06-.223-.175-.06-.111-.095-.272-.095-.485v-1.346zm34.607 3.985l.005.003h.006l.006.004h.007c.073.033.334.216.353.298.016.086-.019.13-.057.15a.508.508 0 0 1-.13.04c-.064.004-.128-.04-.16-.09a3.86 3.86 0 0 1-.16-.238.575.575 0 0 1-.059.038.85.85 0 0 1 .019.026l.003.004.006.009.004.004.003.009.006.008.007.009.003.008.007.009.006.009.007.012.006.009.007.008.013.021.013.022.013.022.003.008.007.009.006.008.007.009.003.008.006.009.004.008.006.009.003.004.004.009.003.004.003.005v.004l.003.004c.01.026-.01.072-.042.064-.036-.004-.218-.03-.322-.123-.107-.094-.174-.272-.105-.341.023-.094.102-.2.261-.28h.011l.003-.005h.01l.007-.007h.007l.007-.006h.013l.01-.006h.008l.01-.006h.023l.008-.006h.047l.007.006h.007l.007.006h.007l.003.006h.007v.006h.003l.004.007.003.006.004.006a.271.271 0 0 1 0 .181zm-2.01-2.086a.227.227 0 0 1-.062-.092c-.028-.072-.146-.323-.251-.354 0 0 .089-.01.143-.037a1.432 1.432 0 0 1 .487.313h-.006l-.004.006h-.006l-.003.004h-.006l-.007.004-.002.002c.157-.056.399-.122.49-.15 0 0 .053.066.085.137.01.028-.006.054-.054.06-.095.02-.328-.025-.382.013-.06.038-.041.092-.041.143 0 0-.106-.063-.172-.047-.093.018-.147.063-.201.213l-.007-.006-.006-.007-.006-.01-.007-.006-.003-.003-.003-.006-.003-.004-.004-.003v-.006l-.003-.004-.003-.006-.003-.003v-.006l-.003-.003v-.014l-.003-.003v-.039l.003-.006v-.006l.003-.01.003-.006v-.01a.153.153 0 0 1 .038-.049zm.268-.149l.006-.002h-.002l-.004.002zm-5.934 2.382c-.022.044-.14.211-.171.259-.036.048-.1.093-.163.09a.451.451 0 0 1-.127-.042c-.042-.018-.077-.063-.06-.149.018-.082.28-.265.353-.298h.006l.006-.004h.007l.006-.004h.006l.007-.003h.019a.26.26 0 0 1 .005-.177v-.006h.003v-.006h.004l.003-.007.003-.006h.007v-.006h.007l.007-.006h.007l.007-.006h.047l.007.006h.028l.008.006h.007l.01.006h.012l.007.006h.007l.007.007h.01l.007.006h.007c.225.11.29.273.265.381a.424.424 0 0 1-.131.239c-.107.093-.289.119-.325.123-.032.008-.051-.038-.038-.064l.003-.004v-.004h.003v-.005l.003-.004.003-.009.004-.004.003-.009.007-.008.003-.009.007-.008.006-.009.003-.008.007-.009.006-.008.007-.013.006-.009.013-.022.01-.02.006-.01.007-.008.006-.012.007-.009.006-.009.004-.008.006-.009.007-.008.003-.009.006-.004.003-.009.003-.004a.874.874 0 0 1 .028-.038.536.536 0 0 1-.063-.046zm1.587-2.386l-.003-.003-.007-.004h-.006l-.007-.004h-.003l-.003-.005h-.006c.114-.11.213-.182.293-.223.082-.05.19-.09.19-.09a.52.52 0 0 0 .147.036c-.108.031-.226.282-.255.354a.227.227 0 0 1-.062.092.14.14 0 0 1 .037.049l.003.01v.006l.003.01v.006l.004.006v.039l-.004.003v.013l-.003.003v.006l-.003.003-.003.006-.003.004v.006l-.004.003-.003.004-.003.006-.003.003-.006.007-.007.01-.006.006-.006.006c-.051-.15-.109-.195-.201-.213-.067-.016-.172.047-.172.047 0-.051.022-.105-.038-.143-.057-.038-.287.006-.386-.013-.047-.006-.067-.032-.05-.06a.587.587 0 0 1 .085-.137c.091.028.336.095.491.151zm.006.002l.007.003-.004-.003h-.003zm3.97-3.797l-.07.063a.33.33 0 0 0 .229.071.64.64 0 0 0 .07.395l.032.064.063-.016a.642.642 0 0 0 .182-.06c-.086.111-.172.197-.24.529-.098.493-.187.506-.187.506a7.954 7.954 0 0 0-.373-.815.673.673 0 0 1-.052-.512c-.064.015-.11.006-.11.006.038-.112.257-.497.257-.497l.005.009.005.004.01.01.004.004.005.01.01.004.009.009.005.009.01.004.009.009.014.013.019.018.014.014.02.018.018.014.01.008.005.01.01.004.002.003c.136-.174.215-.41.215-.41.433.173.965.084 1.115-.091.15-.176-.099-.622-.232-.94-.134-.315.041-.542.2-.65l.064-.045.064-.04.06-.045.058-.042.054-.045.05-.04.052-.042.047-.038.048-.042.044-.038.042-.038.041-.038.038-.039.036-.038.035-.035.031-.038.032-.035.032-.035.029-.035.025-.035.026-.036.025-.035.023-.035.022-.031.041-.07.035-.067.035-.064.032-.067c.083.65-.16 1.093-.357 1.245-.2.16-.283.319-.283.319.475-.306.774-.115.774-.115-.092.497-.51.59-.51.59.45-.051.634.175.634.175-.166.363-.599.382-.599.382.382.3.316.516.316.516-.424.099-.657-.108-.657-.108.325.424.077.739.077.739-.436-.058-.577-.399-.577-.399.045.383-.15.481-.15.481a.654.654 0 0 1-.346-.283c-.125.267-.415.318-.415.318-.127-.242-.034-.468-.034-.468-.143.044-.23.013-.277-.02zm-.685-2.253c.213.475.61.443.61.444-.092.233-.337.216-.439.153a.516.516 0 0 1-.207-.312l-.006-.026-.006-.025-.004-.026-.003-.025-.003-.026v-.04c-.123-.15-.3-.238-.386-.428l-.004-.019-.01-.019-.004-.019v-.089l.004-.02.005-.018.005-.017.004-.019.005-.015.01-.016.004-.017.01-.019.01-.016.009-.015.019-.03.019-.028.009-.016.01-.013.009-.013.01-.016.009-.012.01-.01.009-.013.01-.013.004-.01.01-.009c.155.086.283.175.302.415a1.37 1.37 0 0 1-.034.397zm-.436.717a.61.61 0 0 1-.03-.228v-.01l.004-.013v-.01l.003-.009v-.01l.003-.012.007-.02.007-.018.006-.02.007-.019.007-.019.01-.019.003-.006.003-.01.004-.006.006-.01.004-.006.003-.01.003-.006.004-.007.006-.006.003-.007.004-.006.003-.003.003-.007.004-.003c.033.143.066.315.15.501.073.156.242.379.242.379-.06.13-.166.28-.166.28a4.167 4.167 0 0 1-.222-.444.197.197 0 0 1-.042.142 1.38 1.38 0 0 1-.458.334s.19-.232.169-.424c-.012-.124-.129-.232-.153-.305-.023-.074-.007-.202.061-.316l.004.003.004.003.004.003.004.004.004.006.008.006.008.01.012.01.012.012.012.01.012.013.016.012.012.016.016.013.016.016.012.013.032.032.028.028.016.016.017.016.012.016.012.013.016.016.012.013.012.012.008.013.012.013.008.012.001.003zm1-3.717a.084.084 0 0 1-.004-.021v-.012l.006-.004v-.012l.005-.003V5.02l.006-.004.005-.007.006-.004.005-.008.006-.004.005-.004.01-.004.007-.003.01-.004.006-.004.01-.004.007-.004.01-.004.012-.004h.01l.006-.004h.01l.012-.003h.016l.011-.004h.027l.006-.004h.017v.003h.038c.075 0 .205.021.228.091a.51.51 0 0 1 .139-.012c.056.004.113.048.092.109-.024.06-.274.356-.306.391-.057-.006-.048-.006-.19-.012l.004-.013v-.01l.004-.012.005-.013v-.012l.003-.013.001-.003c-.033-.052-.106-.136-.164-.216l.003.012.008.015.008.032.012.036.008.031.008.032.004.016.004.016.004.013.004.016.005.013v.012l.003.013.005.013.004.01v.012c-.142.006-.13.006-.187.012-.036-.035-.288-.331-.308-.391-.024-.06.037-.105.09-.109a.42.42 0 0 1 .243.055zm.968.82h.002l.016-.009h.176l.008.009h.016l.016.008h.016l.008.008.015.008.016.007.008.008.016.008.008.008.016.008.008.008.008.016.015.016c.096.137.056.398-.135.51 0 0-.291-.254-.645-.008 0 0-.086-.047-.27-.088 0 0 .112-.134.23-.191h.001l.004-.006.019-.023.013-.027.018-.028.013-.027.018-.027.013-.031.012-.031.013-.031.012-.031.007-.031.012-.035.006-.031.007-.035.006-.032.006-.035c.324-.06.338.012.272.134zm-.137.152a.658.658 0 0 1-.202.127 1.67 1.67 0 0 0 .202-.127zm-1.74-.294l-.006-.004-.022-.019a.817.817 0 0 1-.268-.115.7.7 0 0 1-.192-.235v.052l-.006.007v.012l-.006.007v.012l-.007.007v.006l-.006.007-.006.012-.006.007-.006.006-.007.007-.006.006-.006.007-.006.006-.007.007-.006.006-.006.006h-.006l-.013.006-.006.007h-.006l-.013.006h-.019l-.006.006h-.031a.19.19 0 0 1-.187-.21.954.954 0 0 1-.141-.022v.002H33.1l-.004.006-.009.012-.004.013-.01.006-.008.013-.013.018-.014.013-.013.018-.013.019-.014.012-.008.01a.715.715 0 0 1-.05.06l-.008.012-.018.018-.022.02-.018.018-.022.019-.022.019-.018.018-.022.02-.016.013a.38.38 0 0 0 .044-.017s-.037.117-.183.185c0 0 .08.004.159.071 0 0-.05.092-.183.143 0 0 .237.24.485.223 0 0-.113.15-.374.096-.255-.057-.338-.2-.382-.255 0 0 .035.137.016.191 0 0-.105-.008-.191-.12 0 0 .059.112.071.208 0 0-.074.001-.199-.072 0 0 .029.069.032.151 0 0-.295-.097-.438-.23 0 0-.006.089 0 .143 0 0-.228-.02-.375-.27-.108-.06-.24-.147-.29-.227-.081-.133-.108-.223.173-.184l-.002-.036h.008l.016.008h.008l.008.008h.024l.016.008.016.008h.014c-.024-.015-.037-.033-.037-.052v-.006l.003-.007v-.006l.003-.006.003-.006.006-.007h.003l.007-.006.006-.007.007-.006h.006l.01-.007.009-.006.006-.007h.013l.01-.006h.01l.012-.006.013-.007h.01l.012-.006h.028l.013-.007h.03l.016-.006h.079c.169 0 .312.05.312.112 0 .063-.143.106-.312.106a.97.97 0 0 1-.041 0l.012.004h.032l.024.008h.199c.235-.012.623-.02.877-.062a.706.706 0 0 1 .011-.025l-.02.007-.023.008-.019.004-.022.003-.02.004-.018.004h-.02l-.015.004h-.016l-.016.003h-.102a.862.862 0 0 1 .258-.348.708.708 0 0 1 .309-.136c-.037-.028-.057-.06-.057-.092v-.013l.003-.012.003-.007.003-.012.006-.007.007-.012.006-.007.01-.012.01-.007.009-.012.012-.007.013-.006.013-.013.016-.006.016-.006L33 5.04l.017-.006.015-.006.02-.007.019-.006.019-.007.022-.006.019-.006h.022l.023-.007.022-.006h.047l.023-.007h.073c.268 0 .484.094.484.207 0 .033-.021.065-.059.094h.002l.016.003.02.004.015.007.02.004.018.004.017.007.019.008.019.004.016.007.019.007.02.008.015.01.016.008.019.011.016.011.016.007.012.015.016.011a.839.839 0 0 1 .261.347s-.056.005-.14-.004l.005.013c.24.025.534.032.725.042a1.417 1.417 0 0 0 .233-.011c-.172 0-.312-.043-.312-.106 0-.062.14-.112.312-.112h.079l.013.006h.029l.016.007h.025l.013.006h.013l.009.007.013.006h.01l.012.006h.01l.009.007.006.006.01.007h.006l.007.006.006.007.007.006h.006l.003.007.003.006.003.006v.006l.004.007v.006c0 .019-.013.036-.035.05a1.11 1.11 0 0 0 .103-.032c-.034.675-.493.717-.493.717V6.4l.008-.008V6.29c-.147.134-.446.231-.446.231a.49.49 0 0 1 .032-.151c-.128.073-.2.072-.2.072a.689.689 0 0 1 .08-.207c-.089.111-.199.12-.199.12-.015-.055.016-.192.016-.192-.047.054-.124.198-.382.255-.258.054-.374-.096-.374-.096.251.016.486-.223.486-.223a.344.344 0 0 1-.176-.143c.074-.067.152-.071.152-.071-.143-.067-.175-.184-.175-.184a.904.904 0 0 0 .239.058zm-.473-.86l-.015-.003h-.034l-.025-.004h-.074l-.025-.003h-.02c.04-.207.15-.548.214-.685.069-.137.148-.232.287-.258 0 0-.032.057-.07.14a.284.284 0 0 1 .128.013c.061.02.133.061.133.118v.032l-.004.013v.013l-.003.016-.003.016-.007.016-.003.019-.006.019-.007.019-.006.02-.007.022-.006.022-.01.022-.007.026-.01.025-.009.026-.01.025-.013.029-.01.028-.012.03-.01.028-.013.032-.013.029-.013.031-.013.035-.013.032-.017.035-.013.032-.016.035-.016.038a.725.725 0 0 0-.23-.077V4.9zm-.48-.779v-.008c0-.102.113-.185.25-.185.138 0 .25.083.25.185v.025l-.004.016-.004.016-.004.016-.004.016-.01.02-.008.015-.004.02-.009.018-.013.02-.008.019-.022.041-.021.038-.022.042-.021.041-.022.039-.008.019-.009.019-.009.019-.008.019-.009.016-.008.016-.005.016-.004.016-.005.016-.004.013v-.001h-.009a1.142 1.142 0 0 0-.117-.26c.052.153.105.337.133.467l-.05.003h-.071l-.025.004h-.034l-.01.003c-.044-.185-.084-.376-.142-.57-.06-.195-.167-.383-.167-.383.107.02.181.083.239.174zm-1.044 6.325l.006-.008.01-.016.013-.016.012-.017.01-.015.013-.02.012-.016.026-.038.025-.035.013-.019.013-.016.01-.02.012-.015.01-.02.01-.015.009-.013.01-.016.006-.013.006-.012.003-.007.004-.006.003-.003.003-.007v-.003l.003-.007v-.003l.003-.003c.077.143.249.306.3.419a.47.47 0 0 1-.022.309c-.045.111-.192.37-.192.37a1.254 1.254 0 0 1-.377-.603.37.37 0 0 1-.13-.054 1.528 1.528 0 0 1-.27-.213l.01-.005.005-.004.004-.01.01-.004.004-.005.01-.004.005-.01.01-.004.009-.009.004-.005.019-.017.014-.014.02-.018.018-.014.014-.018.019-.013.01-.01.004-.003.01-.01.009-.008.005-.005.004-.009.01-.005.005-.009.004-.004.005-.01s.127.222.205.378zm-.24-.63a.475.475 0 0 1-.023.148c-.034.084-.079.132-.188.202l-.008-.01-.008-.01-.007-.012-.008-.01-.011-.016-.008-.013-.01-.016-.012-.015-.012-.02-.011-.016-.011-.019-.011-.022-.012-.02-.011-.022-.015-.019-.012-.022-.023-.045-.022-.047-.02-.048-.007-.022-.011-.023-.008-.025-.007-.023-.004-.022-.008-.025-.004-.023-.004-.022v-.022l-.003-.023s.268.121.492.032l.005.084c.005-.071.015-.127.015-.127l.01-.004.008-.003.01-.006.008-.006.01-.004.008-.006.01-.006.008-.007.01-.006.008-.01.01-.006.011-.007.018-.019.018-.016.018-.016.022-.019.018-.019.018-.016.018-.019.014-.019.018-.016.018-.02c.069.125.19.303.19.304-.006.073-.003.197-.028.35-.025.153-.248.414-.248.414-.058-.14-.19-.328-.216-.51a.407.407 0 0 1-.002-.014zm.967-2.256a12.7 12.7 0 0 0 .1-.284v.004l.003.003v.003l.003.004v.003l.003.003.004.003v.006l.003.007.007.01.006.012.007.016.01.016.006.016.01.019.01.016.01.02.006.021.01.02.01.019.013.022.02.045.017.041.01.022.01.02.009.019.007.022.006.02.007.015.006.02.007.015.003.016.007.013a.35.35 0 0 1-.066.322c-.066.086-.178.181-.283.36 0 0-.118-.153-.135-.233-.01-.062.001-.188.018-.28-.087.09-.191.164-.269.27 0 0-.095-.305-.076-.54.024-.24.152-.33.308-.416l.01.01.004.01.01.012.01.013.009.01.004.012.01.016.014.013.01.013.01.016.018.029.02.029.004.015.01.016.009.02.005.016.009.016.005.015.002.01zM30.022 5.38a.384.384 0 0 0-.046-.14c-.058-.096-.18-.265-.163-.437.1-.05.276-.099.276-.099-.015.147.036.281.121.424.09.143.14.385.063.551l-.008.013-.004.013-.012.028-.011.029-.012.029-.008.028-.011.03-.008.028-.008.025-.004.013-.004.016-.004.013v.013l-.004.012-.004.01v.013l-.004.01-.003.012v.01l-.004.009v.022l-.004.01v.006a.674.674 0 0 1-.124-.231v.02c-.125-.228-.478.01-.478.01.207-.37.318-.43.468-.49zm1.61.06a.298.298 0 0 0-.002.004c-.031-.051-.106-.14-.166-.223l.004.013.008.015.008.032.008.036.012.031.008.032.004.016.004.016v.013l.004.016.004.013.004.012.004.013v.013l.004.01.004.012c-.145.006-.133.006-.189.012-.032-.035-.28-.331-.305-.391-.025-.06.036-.105.092-.109a.43.43 0 0 1 .244.057.089.089 0 0 1-.003-.023c0-.087.148-.113.225-.113h.044v-.003h.016l.006.004h.027l.012.004h.016l.011.003h.011l.006.004h.01l.012.004.01.004.006.004.01.004.007.004.01.004.006.003.01.004.007.004.005.004.006.008.005.004.006.007.005.004v.008l.006.003v.006a.496.496 0 0 1 .137-.012c.057.004.113.048.093.109-.025.06-.275.356-.307.391-.056-.006-.048-.006-.19-.012l.005-.013.004-.01V5.48l.004-.013.004-.012.004-.013zm1.447-.087a.807.807 0 0 1-.004.008.698.698 0 0 1 .02-.004.78.78 0 0 1-.016-.004zM43.363.077H44V21.39H22.687V.077h20.676zm-19.4 20.036H42.72V1.353H23.964v18.76zm5.18-13.15l.029.067.035.064.035.066.041.07.023.032.025.035.023.035.025.036.029.035.028.035.029.035.032.035.034.038.036.035.035.038.038.039.042.038.04.038.045.038.048.042.048.038.05.041.052.041.054.045.06.042.058.044.064.041.063.045c.156.108.335.335.201.65-.134.318-.382.764-.233.94.15.175.679.264 1.112.092 0 0 .093.274.252.449 0 0-.076.15-.325.073 0 0 .093.226-.035.468 0 0-.29-.05-.417-.318 0 0-.115.21-.347.283 0 0-.192-.098-.15-.48 0 0-.14.34-.573.398 0 0-.249-.315.076-.74 0 0-.236.208-.656.109 0 0-.07-.217.315-.516 0 0-.433-.02-.599-.382 0 0 .182-.226.631-.176 0 0-.417-.092-.51-.589 0 0 .3-.191.778.115 0 0-.083-.16-.284-.319-.2-.152-.443-.595-.357-1.245zm1.74 5.017c.085.609.203.695.203.695.048-.26-.028-.519-.028-.519.06.042.124.067.175.083.13.637-.07.898-.07.898-.325-.392-.35-.8-.427-1.405l.006.016.007.016.01.016.006.013.01.016.006.015.01.017.009.016.01.015.009.013.01.016.01.016.009.016.012.016.01.016.013.015zm-.567-.063c-.093.646.06.764.06.765.153-.303.102-.73.102-.73.039-.044.118-.124.163-.2-.076 1.347-.287 1.503-.287 1.503-.312-.29-.22-1.213-.19-1.564l.002.007.007.006.003.006.003.01.01.016.01.012.009.016.012.016.01.016.01.016.012.016.01.016.01.013.006.009.003.006.006.007.004.006.006.006.003.007.006.003.003.006.004.007.003.003zm-.736.707l.022-.029.022-.035.023-.038.022-.041.02-.042.018-.044.016-.048.02-.048.015-.051.016-.051.013-.05.013-.055.025-.105.01-.051.012-.051.01-.051.006-.048.01-.047.007-.048.006-.045.006-.041.007-.038.003-.036.003-.035.003-.028.003-.013v-.013l.003-.013v-.019l.004-.006v-.025a1.25 1.25 0 0 0 .108-.08c.016-.013.029-.022.045-.038 0 .035 0 .07.003.105-.039.56-.083 1.14-.258 1.43a1.26 1.26 0 0 1-.488.43c-.296-.528.06-1.236.36-1.73a.877.877 0 0 0 .115-.047c-.109.379-.306.828-.223 1.175zm-.736-1.622v.045l.003.01v.019l.003.003v.015l.003.007v.009l.004.003v.01l.003.003v.01l.003.003c.003.006.006.022.013.038-.249.24-.433.475-.8.984a1.32 1.32 0 0 1-.952.532c.057-.414.169-.742.48-1.093.31-.353.711-.675 1.004-.888a.54.54 0 0 0 .3.041l.028-.003a.445.445 0 0 0-.076.15c-.223.127-.866.455-1.128.981 0 0 .408-.127 1.112-.879zm-.462-.512c-.287.13-.532.207-.86.44a1.59 1.59 0 0 0-.414.455c.681-.245 1.325-.815 1.325-.815a.36.36 0 0 0 .054.06c-.236.175-.79.726-1.265 1.118-.477.395-1.054.344-1.054.344.216-.663.618-.987.892-1.13.277-.144 1.13-.466 1.373-.558a.256.256 0 0 0-.026.038l-.025.048zm-.487-.392c-.233.06-.539.165-.82.283-.254.109-.5.28-.5.28.498-.012.995-.21 1.367-.375a.65.65 0 0 0 .297.089c-.179.048-.472.14-1.408.58-.934.44-1.43.286-1.43.286.337-.643.904-.876 1.22-.971.315-.096 1.019-.179 1.302-.24l-.003.007-.003.003v.004l-.003.003-.004.01-.003.01-.003.005-.003.01-.003.01-.003.006zm.022-.465l.016.01.016.005.015.007.02.01.015.003.016.006.016.006.016.004.016.006.02.003.015.004.02.003.009.003h.01l.009.004h.019l.013.003h.01l.009.003a.797.797 0 0 0-.182.166c-.331.095-.892.197-1.819.264-.927.07-1.42-.102-1.42-.102a4.144 4.144 0 0 1 1.185-.465c.35-.067 1.264-.057 1.662-.114.007.006.058.044.138.092-.341.032-1.058.064-1.43.249 0-.001.684.09 1.586-.17zm-.07-.532c-1.048-.3-1.794-.14-1.794-.14.306.101 1.163.232 1.676.228a1.013 1.013 0 0 0-.115.14c-.436-.002-1.038.1-1.777-.06-.743-.162-1.39-.618-1.39-.618.265-.07.781-.111 1.492-.063.968.063 1.611.293 2.08.433l-.013.003-.013.006-.013.004-.01.006-.012.006-.013.004-.01.006-.009.003-.013.007-.009.006-.01.003-.01.007-.009.003-.01.006-.009.003-.01.007zm0-.551v.006l.003.003v.007l.003.006v.01l.003.01.003.009.007.013.003.01.006.015.007.013.006.013.006.016.01.016.01.016.009.016.013.016.01.019.012.016.016.016.016.02.016.015.016.02.019.015.019.016.022.016.022.02.026.012.022.016.029.016.028.013c-.66-.287-1.959-.453-2.653-.746-.943-.388-1.115-.879-1.115-.879.815-.022 1.475.178 1.981.335.6.181 1.504.519 1.819.662a.654.654 0 0 0-.357.112 10.59 10.59 0 0 0-1.054-.357c-.316-.09-.551-.105-.749-.124 0 0 .28.184.74.331.456.145.653.17 1.026.24zm-.051-.72l.003.003.003.006.003.007.004.003.003.006.003.007.003.006.006.007.003.006.003.006.007.01.003.006.01.016.012.013.01.016.01.012.002.01.007.006.003.007.006.006.004.007.006.006.003.006.004.007.003.003.003.006.003.004.003.006c-1.041-.175-2.188-.962-2.542-1.453-.353-.487-.251-1.216-.251-1.216.344.07 1.089.713 1.28.907.194.192.78.762 1.185 1.08l.124.364a41.078 41.078 0 0 0-1.013-.78c-.197-.15-.493-.358-.783-.46 0 0 .267.35.487.523.252.2.506.373.717.487.188.102.284.162.663.344zm2.937 2.918l.006-.007.006-.006.004-.004.006-.006.006-.006.007-.003.003-.007.006-.003.004-.006.006-.007.003-.003.006-.006.004-.004.006-.006.003-.003.007-.007c.048.064.207.265.286.465.06.17.125.402.157.532a2.4 2.4 0 0 0 .184.506s-.254.036-.442-.187a1.184 1.184 0 0 1-.278-.653 2.506 2.506 0 0 1 .01-.58zm-.402.032l.007.006.003.006.006.004.003.006.003.006.007.003.003.004.003.006.006.003.003.003.003.003.004.007.006.003.003.003h.003l.003.003.004.003.003.004.003.003h.003v.003h.003l.003.003h.004v.003h.003v.003h.003v.004l.038.016.035-.01.086-.035c.039.099.051.15.064.24.01.114.035.295-.01.445-.053.182-.162.29-.222.363 0 0-.166-.185-.214-.334a.854.854 0 0 1-.006-.529.865.865 0 0 1 .134-.248zm-.57.015l.016-.003h.016l.013-.003.015-.003.029-.007.029-.006.029-.01.028-.006.026-.01.025-.009.022-.013.023-.01.025-.012.02-.01.021-.012.02-.013.019-.013.019-.012a.42.42 0 0 1 .032.251.636.636 0 0 1-.22.335c-.172.137-.399.264-.653.223 0 0-.057-.188.446-.657zm-.19-.315l.002.016v.016l.004.013.003.016.003.013.003.012.004.016.003.013.006.013.003.01.003.012.007.013.003.01.006.01.003.009.004.01.006.009.003.01.004.006.006.006.003.01.003.006.004.003.003.007.003.006.003.003.003.004.003.003.003.003v.004h.004v.003c-.06.07-.274.436-.72.376 0 0-.121-.252.175-.45.2-.138.3-.163.436-.211zm.037-.315a.515.515 0 0 0-.03.124.985.985 0 0 1-.68.372c-.295.039-.41-.172-.41-.172.093-.169.367-.2.593-.388l.016.05.05.01.02.007.016.003.019.003.015.003.017.004.015.003h.016l.02.003h.015l.016.004h.028l.032.003h.029l.029-.003h.028l.026-.004.025-.003.026-.003.025-.004.022-.006.022-.006zm-.513-.261c-.136.194-.372.312-.64.366-.322.066-.497-.086-.497-.086.14-.415.42-.478.695-.53.23-.047.404-.04.602-.006l-.006.007-.01.01-.006.009-.01.01-.007.009-.006.01-.006.006-.007.01-.006.009-.003.01-.007.006-.006.01-.01.019-.01.016-.006.016-.009.016-.006.015-.01.013-.006.016-.007.013-.01.013-.006.013zm-.117-.453c-.125.092-.408.182-.717.175-.309-.01-.577-.236-.577-.236.061-.09.125-.194.367-.287.242-.089.49-.038.726.058l.022.05.01.02.01.019.009.016.01.019.01.016.012.016.01.016.012.016.01.013.012.013.013.016.01.013.012.012.013.013.013.01.013.012zm.073-.487c-.153.05-.29.076-.663-.024-.395-.105-.452-.407-.452-.407a.606.606 0 0 1 .513-.07c.111.041.372.041.48.015a.854.854 0 0 0 .259.446l-.01.004h-.01l-.01.003-.009.003h-.006l-.01.004-.009.003h-.01l-.01.003-.006.004-.01.003-.006.003h-.009l-.006.003-.01.003-.006.004zm-.143-.596c-.386.057-.542-.019-.768-.223-.214-.198-.402-.685-.402-.685.201.026.59.204.822.335.214.117.52.372.647.471-.153.01-.242.064-.248.067l-.051.035zm.398-.226c-.472-.223-.85-.567-1.035-.893-.214-.382-.102-.857-.102-.857.427.115.647.478.707.583.06.109.163.51.21.676l.01.035.01.038.012.035.013.035.01.035.012.032.016.032.013.032.013.032.015.029.016.028.013.029.016.025.02.026.015.025.016.023zm2.373 2.223l.013.01.01.01.009.01.01.005.009.01.01.006.009.01.01.007.01.006.012.01.006.003.007.003.006.004.006.006.007.003.006.004.01.003.006.006.007.003.009.004.01.006.006.003s.137.261-.029.574a7.81 7.81 0 0 0-.37.815s-.089-.013-.187-.506c-.067-.332-.15-.418-.239-.529.096.048.172.06.182.06l.063.016.032-.063a.67.67 0 0 0 .073-.31c0-.031 0-.06-.003-.086a.319.319 0 0 0 .268-.11c.003-.007.006-.007.006-.01l.016.017zm-3.631-3.771v.151l.009.117c-.255-.322-.557-.71-.844-1.07a2.241 2.241 0 0 0-.551-.513c.159.455.44.818.637.997.197.181.484.487.764.675l.026.09c.022.085.054.171.098.254.07.115.153.226.255.338a3.564 3.564 0 0 0-.267-.124l-.09-.039c-.767-.404-1.532-1.251-1.837-1.838-.31-.589-.182-1.27-.102-1.637.35.297.857.88 1.073 1.195.271.388.615.943.829 1.392v.012zM38.836 9.1l-.009-.007-.006-.003-.01-.006-.01-.003-.009-.007-.013-.003-.01-.006-.009-.007-.01-.003-.012-.006-.01-.004-.012-.006-.013-.006-.013-.004-.013-.006-.012-.003c.471-.14 1.115-.37 2.086-.433.71-.048 1.22-.007 1.488.063 0 0-.65.456-1.39.618-.738.16-1.34.058-1.78.06a.783.783 0 0 0-.111-.14c.512.004 1.366-.127 1.675-.229 0 0-.745-.159-1.797.14zm.004-.551c.369-.07.567-.096 1.026-.241.458-.147.736-.331.736-.331-.198.019-.43.035-.749.124-.401.115-.608.188-1.051.357a.656.656 0 0 0-.36-.112 20.862 20.862 0 0 1 1.819-.662c.506-.157 1.169-.357 1.984-.335 0 0-.172.49-1.112.88-.7.292-1.997.458-2.656.745l.028-.013.026-.016.025-.016.022-.013.026-.019.019-.016.019-.016.02-.016.018-.019.016-.016.016-.019.013-.016.013-.016.012-.02.013-.015.01-.016.01-.016.006-.016.01-.016.006-.013.006-.013.006-.016.004-.01.003-.012.006-.01v-.01l.003-.009.003-.006v-.007l.004-.003V8.55zm.05-.72c.377-.182.475-.242.66-.343.21-.115.468-.287.72-.488.217-.172.488-.522.488-.522-.297.102-.587.309-.787.458-.255.195-.666.504-1.01.78l.124-.362c.405-.319.991-.89 1.182-1.08.194-.195.94-.838 1.284-.908 0 0 .102.73-.255 1.217-.354.49-1.5 1.277-2.542 1.452l.003-.006.006-.003.004-.007.003-.003.003-.006.003-.007.006-.006.004-.007.006-.006.003-.006.007-.007.003-.01.01-.012.009-.016.012-.013.01-.016.01-.016.003-.006.006-.006.003-.007.004-.006.003-.007.006-.006.003-.003.003-.007.004-.006V7.83zm-.251-1.236v-.012c.213-.45.557-1.004.828-1.392a7.59 7.59 0 0 1 1.07-1.195c.083.366.214 1.048-.102 1.637-.306.586-1.07 1.434-1.838 1.838l-.086.038a3.076 3.076 0 0 0-.268.124c.1-.11.185-.223.252-.337a1.28 1.28 0 0 0 .102-.255l.026-.09c.28-.187.567-.493.764-.675a2.51 2.51 0 0 0 .634-.997 2.36 2.36 0 0 0-.55.513c-.287.36-.59.749-.842 1.07l.01-.117v-.149zm-9.607 4.644l.01-.003a.662.662 0 0 0 .258-.038.78.78 0 0 0-.05.105c-.826.77-.756 1.153-.756 1.153.28-.162.593-.634.752-.92l.057.009c.064.01.134.01.204 0-.108.102-.264.392-.52.844-.257.456-.875.65-.875.65l-.006-.073.003-.07.003-.074.006-.07.013-.07.013-.07.019-.067.019-.067.025-.07.026-.063.025-.067.032-.064.032-.064.035-.06.035-.06.035-.062.038-.057.038-.057.042-.058.038-.054.041-.05.038-.052.042-.047.041-.048.038-.045.038-.044.039-.042.038-.038.035-.038.035-.035.032-.032.032-.032zm6.772.742l.013-.015.01-.016.009-.016.013-.016.01-.016.009-.016.01-.013.009-.015.01-.016.006-.017.01-.015.006-.016.009-.013.006-.016.007-.016.006-.016c-.073.605-.099 1.013-.427 1.405 0 0-.197-.261-.07-.898a.582.582 0 0 0 .176-.083s-.074.258-.03.52c.001-.001.119-.087.208-.696zm.564-.063l.006-.003.004-.007.003-.006.003-.003.006-.007.003-.006.007-.006.003-.007.006-.006.003-.01.013-.012.01-.016.01-.016.012-.016.01-.016.01-.016.009-.016.01-.012.009-.016.006-.01.003-.006.003-.006.004-.007c.028.35.12 1.274-.188 1.564 0 0-.214-.156-.287-1.503.045.076.124.156.16.2 0 0-.052.427.101.73 0 0 .156-.119.06-.765zm.739.707c.08-.347-.118-.796-.223-1.175a.967.967 0 0 0 .112.048c.303.493.659 1.2.363 1.73 0 0-.316-.147-.488-.43-.175-.29-.22-.87-.26-1.431.006-.035.006-.07.006-.105.012.016.028.025.044.038a.87.87 0 0 0 .108.08v.025l.004.006v.02l.003.012v.013l.003.013.003.028.003.035.004.036.006.038.006.041.007.045.006.048.01.047.006.048.01.05.009.052.013.05.022.106.016.054.013.051.016.051.016.051.016.048.019.048.016.044.022.042.019.04.022.04.022.034.026.029zm.736-1.622c.704.752 1.111.88 1.111.879-.26-.526-.908-.854-1.127-.981a.445.445 0 0 0-.077-.15c.01 0 .016.003.029.003a.54.54 0 0 0 .3-.041c.29.213.69.535 1 .888.312.35.426.68.484 1.093 0 0-.587-.019-.953-.532-.366-.51-.55-.745-.8-.984.007-.016.01-.032.013-.038l.004-.003v-.012l.003-.003v-.01l.003-.003v-.013l.003-.003v-.012l.003-.004v-.019l.004-.009v-.045zm.462-.512l-.026-.048a.256.256 0 0 0-.025-.038c.239.092 1.092.414 1.37.557.277.144.675.468.891 1.131 0 0-.576.051-1.05-.344-.476-.392-1.03-.943-1.269-1.118a.25.25 0 0 0 .058-.06s.643.57 1.325.815c0 0-.147-.261-.418-.455-.325-.233-.57-.31-.856-.44zm.487-.392l-.003-.007-.004-.01-.003-.009-.006-.006-.003-.01-.004-.009-.003-.006-.003-.01c.28.06.988.143 1.303.24.312.095.882.327 1.22.97 0 0-.497.154-1.434-.286-.933-.44-1.226-.532-1.404-.58a.649.649 0 0 0 .296-.089c.373.166.87.363 1.367.376 0 0-.246-.172-.504-.28a6.199 6.199 0 0 0-.815-.284zm-.022-.465c.901.26 1.583.169 1.583.17-.37-.185-1.09-.217-1.427-.249a.799.799 0 0 0 .134-.092c.401.057 1.315.047 1.662.114a4.15 4.15 0 0 1 1.185.465s-.493.172-1.42.102c-.927-.067-1.488-.169-1.816-.264a.808.808 0 0 0-.185-.166l.013-.003h.01l.01-.003h.022l.009-.004.02-.003.018-.003.016-.004.02-.003.015-.006.016-.004.016-.006.016-.006.016-.004.016-.01.019-.006.016-.006.016-.01zm-2.82 1.115c.026.162.032.404.01.579a1.14 1.14 0 0 1-.277.653c-.188.223-.44.187-.44.187.057-.095.15-.369.185-.506a5.97 5.97 0 0 1 .153-.532c.08-.2.239-.401.29-.465l.003.007.006.003.003.006.007.004.003.006.006.003.004.007.006.006.003.003.007.007.003.003.006.006.006.006.007.004.01.013zm.402.032a.717.717 0 0 1 .133.248.83.83 0 0 1-.006.529c-.045.15-.213.334-.213.334-.06-.073-.166-.181-.22-.363-.045-.15-.022-.331-.01-.446a.91.91 0 0 1 .061-.239c.029.01.057.022.086.035l.038.01.032-.016v-.004h.007v-.003h.003l.003-.003.003-.003h.003l.003-.003h.004l.003-.003.003-.004.003-.003.003-.003h.003l.004-.003.003-.003.006-.007.004-.003.003-.003.003-.003.006-.006.003-.004.004-.003.006-.006.003-.006.003-.004.007-.006.003-.006zm.573.015c.503.469.443.657.443.657-.251.04-.48-.086-.65-.223a.62.62 0 0 1-.22-.335c-.025-.111.01-.194.033-.251l.016.012.019.013.022.013.02.013.022.01.022.012.022.01.025.012.026.01.025.01.026.006.028.009.029.006.029.007.016.003.016.003h.015l.016.003zm.191-.315c.137.048.233.073.434.211.296.198.178.45.178.45-.446.06-.663-.306-.72-.376v-.003h.003v-.004l.003-.003.003-.003v-.004l.004-.003.003-.006.003-.007.006-.003.004-.006.003-.01.003-.006.006-.006.004-.01.003-.01.006-.01.003-.009.007-.01.003-.009.003-.013.006-.012.004-.01.003-.013.003-.013.007-.016.003-.012.003-.013v-.016l.003-.013.003-.016.003-.016zm-.041-.315l.022.006.026.006.025.004.026.003.025.003.026.004h.028l.029.003h.028l.032-.003h.029l.032-.004.016-.003h.019l.016-.003.016-.004.016-.003.019-.003.015-.003.017-.007.05-.01.02-.05c.226.188.5.22.592.388 0 0-.115.21-.41.172a.985.985 0 0 1-.68-.372.932.932 0 0 0-.034-.124zm.516-.261l-.003-.007-.003-.006-.01-.013-.006-.013-.007-.016-.01-.013-.006-.015-.009-.016-.01-.016-.006-.016-.01-.02-.006-.009-.006-.006-.003-.01-.007-.01-.006-.01-.007-.006-.006-.01-.006-.009-.01-.01-.006-.009-.01-.01-.006-.006c.194-.035.372-.041.602.007.274.05.554.114.694.529 0 0-.178.152-.497.086-.267-.054-.506-.172-.64-.366zm.115-.453l.012-.013.013-.009.013-.013.013-.012.012-.013.013-.016.01-.013.013-.013.01-.016.012-.016.01-.016.009-.016.01-.02.009-.015.01-.02.01-.018.021-.051c.24-.096.484-.147.727-.058.242.093.305.198.366.287 0 0-.268.226-.574.236-.308.007-.595-.083-.72-.175zm-.07-.487l-.016-.007-.01-.003h-.006l-.01-.003-.006-.003-.01-.004-.01-.003h-.009l-.006-.003-.01-.004h-.01l-.009-.003-.01-.003h-.009l-.01-.004a.815.815 0 0 0 .259-.446c.114.026.37.026.484-.016a.605.605 0 0 1 .513.07s-.058.303-.456.408c-.37.1-.51.075-.66.024zm.14-.596l-.051-.035c-.007-.003-.096-.057-.246-.067.128-.099.43-.354.644-.471.236-.131.624-.31.822-.335 0 0-.185.487-.402.685-.223.204-.379.28-.767.223zm-.398-.226l.019-.023.016-.025.015-.026.017-.025.015-.029.016-.028.016-.03.013-.031.013-.032.015-.032.013-.032.013-.035.01-.035.012-.035.01-.038.013-.035c.04-.166.146-.567.206-.676.06-.105.28-.468.708-.583 0 0 .111.475-.102.857-.188.326-.567.67-1.038.893zm.277 3.096l.032.032.031.032.035.035.035.038.039.038.034.042.042.044.038.045.042.048.038.047.042.051.04.051.039.054.038.058.042.057.035.057.038.061.035.06.035.061.032.064.028.064.029.067.025.063.023.07.022.067.016.067.016.07.012.07.007.07.003.074v.07l-.003.073s-.622-.194-.876-.65c-.255-.452-.411-.742-.52-.844.068.01.138.01.205 0l.057-.01c.16.287.468.759.749.921 0 0 .073-.382-.752-1.153a.576.576 0 0 0-.054-.105.678.678 0 0 0 .261.038l.01.003zm-4.826-6.256l-.016-.038-.013-.035-.016-.032-.013-.035-.013-.032-.013-.035-.017-.031-.01-.03-.013-.031-.013-.029-.01-.029-.013-.028-.01-.029-.01-.025-.009-.026-.01-.025-.01-.026-.006-.022-.006-.022-.01-.023-.007-.019-.007-.02-.003-.018-.006-.02-.004-.015-.003-.016-.003-.016-.003-.013-.003-.013v-.032c.003-.057.072-.098.137-.118.068-.019.124-.025.17.007.085.067.166.583.193.8a.775.775 0 0 0-.23.076zm-2.296.91a.64.64 0 0 1 .215.017c.067.204.29.271.398.319l.008.008.016.008h.009l.016.007.008.008.008.008.015.008.008.008.008.008.016.008.008.008h.008l.008.016h.008l.007.016h.009l.008.008.008.008.008.008.007.007.008.008v.008h.008l.008.008.008.008v.008h.008v.008c-.185.041-.263.088-.263.088a.527.527 0 0 0-.645.007c-.194-.11-.228-.372-.135-.51a.265.265 0 0 1 .199-.11zm.885.571l.003.004.003.003v.003h.003l.003.006.004.004.006.006.003.01.007.006.006.006.006.01.007.01.01.006.006.01.01.009.006.013.01.01.018.018.016.02.02.022.009.01.01.009.009.01.01.01.009.005.01.01.009.006.01.01s-.478-.006-.596.408c0 0-.163-.255-.045-.418.128-.175.249-.2.418-.236zm.522.099l.003.003h.007l.003.004h.01l.006.003.006.003h.007l.01.003.005.003h.01l.007.004.01.003.015.003.016.007.02.003.006.003.009.003.006.004h.01l.006.003.007.003h.006l.006.003h.007l.006.004s0-.09-.003-.13c.048.009.102.025.153.031 0 0 .153.338.274.475 0 0 .006.08-.06.19 0 0-.09-.197-.243-.362a1.814 1.814 0 0 0-.325-.266zm-.405-.07h.004l.006.003h.01l.006.003.01.003.009.004.013.003.01.003.012.007.013.003.013.003.016.006.012.004.016.006.013.006.016.007.032.012.032.013.031.013.029.013.016.01.016.006.013.006.015.01.013.006.013.006.013.01.009.006c.15.108.252.23.236.443 0 0-.118-.169-.252-.245a1.422 1.422 0 0 1-.395-.37zm.274-1.896v.114h-.177v.208h-.145V4.71h-.178v-.114h.178v-.178h.145v.178h.177zm-1.7.306v-.012h-.004v-.072l.003-.004V4.79l.003-.004v-.009l.003-.004s.227-.301.415-.354c.12-.035.194.04.232.079 0 0-.07-.01-.169.104-.102.11-.226.25-.325.284-.092.033-.114.025-.159.016zm.684-.407l.017.016.016.016.017.016.014.016.016.016.014.016.003.006.006.01.007.006.007.01.003.009.007.006.003.01.007.006.003.007.004.01.003.006.003.01.004.006.003.01.003.005v.01l.004.007v.022c-.004.08-.1.283-.154.36-.05.076-.124.178-.117.3.004.063.05.127.104.178 0 0-.291-.067-.324-.236-.034-.153.033-.261.08-.347.043-.08.18-.265.21-.341.034-.07.047-.128.037-.166zm1.603 1.924a.796.796 0 0 1 .48.471c.07.194-.068.472-.068.472a.862.862 0 0 0-.142-.42l-.022-.026-.018-.029-.017-.029-.022-.032-.017-.028-.018-.032-.018-.035-.018-.032-.017-.032-.018-.035-.018-.035-.014-.035-.014-.035-.014-.035-.015-.038-.01-.035zm.309.063h.025l.006.004h.036l.01.003h.019l.012.003h.01l.012.004h.01l.013.003.012.003.01.003.012.004h.01l.013.006.01.003.012.003.01.004.01.006.009.004.009.006.01.003c.114.077.223.24.264.438 0 0-.194-.032-.286-.128a1.11 1.11 0 0 1-.258-.372zm-.981.344c.213.13.286.233.331.295.057.083.188.165.188.165-.025.042-.115.335-.09.478l-.015.003c-.035-.067-.156-.29-.198-.497a.491.491 0 0 0-.156-.293c-.08-.064-.242-.111-.242-.111l.003-.004h.013l.003-.003h.007l.006-.003h.006l.007-.004.012-.003.013-.003.013-.004h.013l.012-.003.013-.003.006-.003h.013l.007-.004h.009l.006-.003h.02zm1.39 1.619a.47.47 0 0 1 .062.316c-.024.073-.145.181-.157.305-.016.192.169.424.169.424a1.472 1.472 0 0 1-.458-.334c-.085-.102-.02-.246.016-.325l.004-.004v-.003l.004-.003.004-.007.004-.01.008-.009.008-.012.012-.013.012-.013.012-.012.012-.013.012-.016.012-.013.016-.016.012-.016.016-.016.028-.028.032-.032.017-.013.011-.016.016-.013.017-.016.012-.012.012-.013.012-.01.012-.013.012-.01.008-.009.012-.006.004-.006.004-.004.004-.003v-.003h.004l.004-.003zm-.505-.147l.003.003.004.007.003.003.003.006.007.007.003.006.004.007.003.006.003.01.007.006.003.01.004.006.003.01.003.006.01.02.007.018.006.02.007.019.007.019.006.019v.012l.004.01.003.01v.022l.003.01c.007.108-.01.197-.073.36-.076.2-.2.426-.256.528 0 0-.11-.15-.17-.28 0 0 .17-.223.24-.379.087-.186.12-.358.153-.5zm-.09-.09v.004l-.002.003v.02l-.003.012-.004.013-.003.02-.003.018-.007.023-.003.022-.006.025-.006.03-.01.028-.006.029-.01.031-.01.035-.012.032-.01.035-.012.038-.016.035-.013.038-.016.039-.016.038-.019.038-.019.038-.022.039-.02.038-.025.041-.022.038-.026.035-.025.038-.029.039c-.207.26-.376.353-.487.353-.17 0-.338-.143-.395-.302-.058-.16-.038-.411.07-.497 0 0 .102.312.315.325.245.013.557-.261.873-.79zm-.25-.216l.002.01v.01l.003.01v.008l.007.02.003.022v.022l.003.023.003.022v.074l-.003.026-.003.025v.026l-.006.025-.004.026-.006.025a.53.53 0 0 1-.207.313c-.105.063-.347.08-.443-.153 0 0 .446.034.65-.533zM33 10.095l.007.012.006.016.01.016.006.016.01.016.01.016.012.016.01.017.023.031.022.032.026.032.023.032.022.032.013.013.01.015.01.016.01.016.009.013.01.016.006.013.007.016.006.013.007.012.003.013.003.013v.012l.004.01c-.007.325-.153.523-.185.63 0 0-.262-.206-.307-.442-.026-.122 0-.485.207-.663zm-.293.229c-.115-.21-.363-.35-.312-.583.047-.236.235-.481.235-.481.453.255.31.669.31.669l-.01.01-.01.01-.01.009-.01.01-.009.009-.01.013-.009.012-.01.013-.009.013-.01.013-.006.012-.01.013-.015.029-.016.032-.016.028-.013.03-.006.012-.006.013-.007.015-.006.013-.007.013-.003.013-.006.009-.003.013-.007.01-.003.009-.003.01-.003.009zm.01.615l.002.013.007.01.006.012.007.01.009.012.006.013.01.01.006.012.01.013.01.016.019.026.016.028.019.026.019.028.019.029.016.028.006.016.01.013.006.016.007.013.006.012.006.016.004.013.003.016.006.013v.012a.505.505 0 0 1-.025.274c-.032.074-.128.22-.192.332 0 0-.22-.207-.267-.354a.53.53 0 0 1 .032-.37c.05-.098.165-.203.216-.308zm-.59-.029l.007.013.008.013.007.009.008.013.007.013.008.01.019.021.019.026.019.022.022.023.019.022.019.022.019.022.018.023.008.01.008.012.007.01.008.012.007.01.008.01.004.012.007.01.004.01.004.012c.041.124.056.207-.015.357-.068.13-.144.207-.17.286 0 0-.212-.229-.25-.325a.565.565 0 0 1-.003-.353c.045-.102.12-.233.174-.325zm.844.88c.16.155.2.254.22.41.02.156-.035.27-.102.41-.06.122-.223.303-.223.303-.022-.153-.185-.312-.194-.557v-.029l.003-.01.003-.022.003-.019.01-.022.007-.022.009-.026.01-.022.01-.022.012-.026.013-.022.012-.022.013-.026.013-.022.016-.022.012-.022.016-.023.013-.022.016-.02.013-.018.012-.02.013-.015.013-.016.01-.016.009-.013.006-.006.004-.007.006-.006.003-.003.003-.007.003-.003.004-.003.003-.003.003-.004v-.003h.003v-.003zm-.503-.039l.003.006.008.01.008.01.008.01.008.009.008.012.008.013.008.013.012.013.008.012.007.016.012.013.008.016.008.016.016.032.008.019.008.016.007.016.008.016.004.019.008.016.004.016.004.015.004.02.004.016v.06l-.004.016-.004.013c-.047.143-.237.344-.3.433 0 0-.15-.249-.182-.363-.031-.115-.004-.3.3-.529zm2.8-5.288c.169.035.29.06.417.236.118.163-.044.418-.044.418-.121-.414-.596-.408-.596-.408l.01-.01.01-.006.009-.01.01-.006.009-.01.01-.01.009-.008.01-.01.015-.023.02-.019.019-.019.006-.01.01-.012.006-.01.01-.01.006-.005.006-.01.01-.01.003-.006.006-.006.007-.01.003-.006.006-.004.003-.006.003-.003v-.003h.003v-.004h.004zm-.523.099a1.8 1.8 0 0 0-.325.266c-.156.165-.242.363-.242.363-.066-.112-.06-.191-.06-.191.121-.137.27-.475.27-.475.052-.006.11-.022.157-.032-.007.042-.004.13-.004.13l.004-.003h.006l.007-.003h.006l.006-.003.01-.003h.006l.01-.004.006-.003.01-.003.015-.003.02-.007.016-.003.009-.003.006-.004h.01l.006-.003.007-.003h.01l.006-.003.003-.003h.014v-.004h.009v-.003h.003zm.405-.07c-.099.146-.29.312-.395.37-.134.076-.255.245-.255.245-.013-.214.09-.335.239-.443l.01-.006.012-.01.013-.006.013-.006.013-.01.016-.006.012-.007.016-.01.032-.012.029-.013.031-.013.032-.012.016-.007L35 6.54l.013-.006.016-.004.013-.006.012-.003.013-.003.013-.007.013-.003.01-.003.009-.004.01-.003.009-.003h.006l.007-.003h.006zm-.204-1.896h.174v-.178h.148v.178h.178v.114h-.178v.208h-.148V4.71h-.174v-.114zm-1.844-1.003h.18v-.178h.14v.178h.18v.114h-.18v.208h-.14v-.208h-.18v-.114zm3.71 2.268v-.035l-.005-.02v-.062l-.005-.006v-.03a1.22 1.22 0 0 1-.01-.338c.164.066.275.11.493.5 0 0-.353-.238-.474-.01zm-.19.21l-.003-.006v-.022l-.004-.01v-.01l-.004-.009v-.013l-.004-.01V5.98l-.004-.01-.004-.012-.004-.013-.004-.013-.004-.016-.003-.013-.008-.025-.008-.029-.008-.029-.012-.028-.008-.029-.011-.029-.012-.028-.004-.013-.008-.013c-.075-.166-.032-.408.059-.55.09-.144.142-.278.122-.425 0 0 .181.048.28.1.015.171-.107.34-.162.436a.498.498 0 0 0-.04.353.603.603 0 0 1-.141.478zm-.045-1.17c-.048.01-.067.018-.162-.015-.096-.035-.22-.174-.322-.284-.102-.113-.166-.104-.166-.104.032-.04.108-.114.226-.08.188.054.418.355.418.355v.009l.003.004v.022l.003.005v.089zm-.665-.406c-.01.038.007.095.037.166.033.076.167.261.21.34.048.087.118.195.084.348-.033.169-.324.236-.324.236a.31.31 0 0 0 .104-.179c.01-.12-.07-.223-.12-.3-.05-.076-.151-.28-.151-.36v-.027l.003-.01.004-.006v-.01l.003-.006.003-.01.004-.006.003-.01.007-.006.003-.006.003-.01.007-.006.007-.01.003-.01.007-.005.007-.01.006-.006.014-.016.013-.016.017-.016.013-.016.017-.016.016-.016zM34.34 6.419l-.014.035-.014.038-.01.035-.018.035-.014.035-.015.035-.017.035-.018.032-.017.032-.018.035-.018.032-.021.028-.018.032-.017.029-.022.029-.017.025c-.096.13-.156.347-.141.42 0 0-.142-.277-.071-.47a.8.8 0 0 1 .48-.472zm-.361.063c-.045.135-.163.278-.255.372-.095.096-.286.128-.286.128a.71.71 0 0 1 .26-.438l.01-.003.01-.006.01-.004.009-.006.013-.004.01-.003.009-.003.013-.006h.012l.01-.004.012-.003.013-.003.01-.003h.012l.01-.004h.013l.01-.003h.022l.01-.003h.034l.006-.004h.023zm.984.344h.022l.003.003h.01l.006.004h.013l.006.003h.007l.006.003.013.003h.013l.012.004.013.003.013.003.006.004h.007l.006.003h.006l.004.003h.009l.006.004s-.162.047-.245.111a.474.474 0 0 0-.153.293c-.041.207-.162.43-.2.497l-.013-.003c.022-.143-.067-.436-.09-.478 0 0 .128-.082.188-.165.042-.062.119-.164.332-.295zm-1.618 1h-.007c-.006-.115-.277-.398-.265-.551.013-.153.217-.261.268-.284h.003c.051.023.252.131.268.284v.029l-.003.015-.004.02-.006.016-.007.019-.006.016-.01.019-.009.019-.01.019-.012.019-.01.02-.012.022-.013.019-.026.038-.025.038-.01.02-.012.018-.013.02-.013.019-.01.015-.009.02-.01.016-.009.016-.006.016-.01.012-.003.016-.006.013-.003.013v.01zm.42-.55c.089.264.191.525.215.606.03.08.05.27.036.353-.013.08-.135.233-.135.233-.103-.179-.215-.274-.285-.36-.066-.086-.095-.178-.062-.322l.003-.013.007-.016.003-.016.006-.019.007-.016.01-.019.007-.022.01-.02.006-.019.01-.022.02-.041.02-.045.01-.022.01-.02.01-.019.01-.022.009-.019.01-.016.007-.02.01-.015.006-.016.01-.016.007-.013.003-.01.003-.006.003-.006.004-.003v-.003l.003-.003.003-.004V7.28l.004-.004zm-.376 1.417h-.005a.827.827 0 0 1-.227-.252c-.03-.067-.038-.163.03-.236.085-.086.19-.184.193-.264h.008c.008.08.112.178.192.264.07.073.062.169.035.236l-.004.006-.004.007-.004.006-.004.006-.003.01-.004.006-.008.007-.003.01-.004.005-.008.01-.007.007-.004.009-.016.016-.011.016-.016.019-.019.016-.015.016-.02.016-.015.016-.019.016-.02.016-.018.016zm.778-.484c.312.529.627.803.869.79.216-.013.318-.325.318-.325.109.086.125.337.07.497-.057.159-.226.302-.395.302-.111 0-.28-.092-.487-.353l-.029-.039-.025-.038-.026-.035-.025-.038-.022-.041-.023-.038-.019-.039-.019-.038-.019-.038-.016-.038-.016-.039-.016-.038-.012-.035-.013-.038-.013-.035-.01-.032-.009-.035-.01-.031-.009-.03-.006-.028-.007-.029-.006-.025-.006-.022-.004-.023-.003-.019-.003-.019-.003-.013-.003-.012v-.01l-.003-.01V8.21zm-.825 1.331c-.064-.031-.118-.05-.188-.166-.058-.086-.109-.245-.08-.36.038-.14.112-.197.16-.287a.663.663 0 0 0 .107.09h.004c.047-.03.07-.055.105-.09.044.09.124.147.162.287.029.115-.025.274-.08.36l-.009.013-.006.01-.007.009-.006.006-.006.01-.007.006-.006.01-.006.006-.007.006-.003.007-.006.006-.007.007-.006.003-.006.006-.007.004-.006.006-.003.003-.007.004-.006.006-.007.003-.01.007-.012.006-.01.006-.012.004-.01.006-.012.006zm0 .876c-.032-.137-.319-.404-.29-.545.037-.22.18-.176.29-.265h.002c.109.09.249.045.29.265v.041l-.003.016-.006.016-.007.016-.006.02-.01.015-.009.02-.01.018-.01.016-.012.02-.013.019-.012.019-.026.038-.028.038-.026.038-.013.02-.012.015-.013.02-.013.019-.013.016-.009.016-.01.016-.01.016-.005.016-.007.016-.006.012-.003.013zm.348-.321c.208.178.237.541.212.663-.045.236-.311.443-.311.443-.032-.108-.175-.306-.181-.63v-.01l.003-.013.003-.013.003-.013.003-.012.007-.013.006-.016.01-.013.006-.016.01-.013.01-.016.01-.016.012-.015.01-.013.023-.032.026-.032.022-.032.026-.032.023-.031.01-.017.01-.016.01-.016.009-.016.01-.016.006-.016.01-.016.002-.012zm.289.229l-.004-.01-.003-.01-.003-.009-.006-.01-.003-.012-.007-.01-.003-.012-.006-.013-.007-.013-.006-.015-.006-.013-.007-.013-.013-.029-.015-.028-.016-.032-.016-.029-.01-.013-.01-.012-.009-.013-.01-.013-.009-.013-.01-.012-.009-.013-.01-.01-.01-.01-.009-.009-.009-.01-.013-.01s-.14-.413.312-.668c0 0 .188.245.24.48.05.234-.199.374-.313.584zm.588-1.051l.015.019.018.016.018.02.017.018.018.016.018.02.018.018.018.016.022.016.017.02.008.006.01.006.011.01.007.006.01.007.008.006.011.006.007.004.01.006.008.006.01.003.008.004s.032.185.014.309c-.025.181-.161.37-.215.51 0 0-.226-.262-.247-.415-.029-.153-.025-.277-.032-.35 0 0 .125-.18.193-.303zm.537.892c-.107-.07-.157-.118-.192-.202-.042-.098-.011-.398-.011-.398.222.09.49-.032.49-.032v.045l-.005.022-.004.023-.004.025-.007.022-.008.023-.007.025-.008.023-.011.022-.02.048-.022.047-.023.045-.012.022-.011.02-.012.022-.011.019-.015.022-.012.02-.011.015-.012.02-.007.015-.012.016-.011.013-.008.016-.011.01-.008.013-.008.01-.007.009zm-.775-.1l.004.004v.003l.003.007v.003l.003.007.003.003v.006l.003.007.007.012.01.013.005.016.01.013.01.016.012.019.01.016.012.019.013.016.01.02.025.034.026.038.013.017.012.019.013.015.01.017.012.016.01.016.013.012.01.013.009.013.006.01.003.003.007.006.003.003.003.004.003.003v.003l.003.004.003.003s-.019.12-.105.293a1.32 1.32 0 0 1-.28.356s-.146-.258-.191-.37c-.051-.13-.048-.26-.022-.308.047-.113.22-.276.3-.42zm-.98 1.98h-.007c-.023-.093-.162-.201-.22-.36a.365.365 0 0 1 .003-.281c.045-.086.2-.303.22-.363.02.06.179.277.22.363a.379.379 0 0 1 .007.28l-.007.016-.006.013-.006.016-.007.012-.006.013-.01.013-.006.013-.01.012-.016.026-.016.025-.02.022-.016.023-.016.022-.016.02-.007.009-.01.013-.006.01-.007.009-.006.01-.007.01-.003.009-.006.006-.003.01-.004.009-.003.01-.003.01zm.617-1.106c.051.105.166.21.22.309a.529.529 0 0 1 .029.37c-.048.146-.268.353-.268.353-.064-.112-.16-.258-.191-.332a.539.539 0 0 1-.026-.274l.004-.012.003-.013.003-.016.006-.013.007-.016.003-.012.01-.013.006-.016.006-.013.01-.016.015-.028.017-.029.019-.028.019-.026.019-.028.016-.026.01-.016.009-.013.01-.012.006-.01.01-.013.006-.012.006-.01.006-.013.007-.01.003-.012zm.671-.029c.053.092.128.223.17.325a.517.517 0 0 1-.004.353c-.033.096-.245.325-.245.325-.026-.08-.106-.156-.17-.286a.4.4 0 0 1-.018-.357l.003-.013.008-.01.004-.01.003-.012.008-.01.008-.009.007-.013.008-.01.007-.012.008-.01.018-.022.02-.022.018-.022.023-.022.019-.023.022-.022.02-.026.018-.022.007-.01.008-.012.008-.013.007-.01.008-.012.007-.013zm-1.295 2.902c-.01-.115-.242-.465-.256-.83-.003-.186.16-.479.252-.587h.007c.092.108.26.401.251.586v.035l-.003.032-.003.035-.006.035-.007.032-.006.035-.007.032-.009.032-.01.032-.01.031-.009.032-.013.032-.01.029-.009.032-.012.028-.013.026-.01.028-.013.026-.009.025-.013.026-.01.025-.009.022-.01.023-.009.019-.01.022-.006.019-.006.016-.006.016-.007.016-.003.012-.003.013-.003.013zm.372-2.023v.003h.003v.003l.004.004.003.003.003.003.003.003.003.007.003.003.007.006.003.007.003.006.013.013.01.016.012.016.013.016.013.019.012.019.016.019.013.022.013.023.016.022.012.022.016.022.013.026.013.022.012.022.01.026.013.022.01.022.009.026.006.022.006.022.007.02.003.022v.038c-.006.245-.169.404-.194.557 0 0-.16-.181-.22-.302-.07-.14-.124-.255-.102-.41.016-.157.058-.256.22-.412zm.6-.038c.302.23.33.414.298.529-.035.114-.184.363-.184.363-.063-.09-.25-.29-.294-.433l-.008-.013v-.016l-.004-.016v-.029l.004-.015v-.016l.004-.02.004-.015.008-.016.004-.016.008-.02.003-.015.008-.016.008-.016.008-.02.02-.031.008-.016.007-.016.012-.013.008-.016.008-.012.008-.013.011-.013.008-.013.008-.012.008-.01.007-.01.008-.009.004-.01.008-.006zm-.762 2.653c-.016.29.306.399.306.399-.109.038-.233.057-.433-.13a.566.566 0 0 1-.083-.112.394.394 0 0 1-.083.111c-.198.188-.322.169-.433.13 0 0 .325-.108.305-.398-.019-.286-.181-.461-.21-.608a.633.633 0 0 1 .109-.513c.101.354.216.612.305.79.003.006.007.01.007.016l.01-.016c.085-.178.2-.436.302-.79.13.191.14.347.108.513l-.003.013-.003.013-.003.015-.007.013-.006.016-.006.016-.007.016-.006.016-.016.032-.016.032-.02.034-.015.036-.019.038-.006.019-.01.02-.01.021-.006.02-.006.022-.01.022-.006.022-.007.023-.003.022-.006.025-.003.026-.004.025-.003.026-.003.025zm-.983-1.914l.004.01.007.012.004.01.004.013.007.012.007.013.004.013.007.013.01.025.015.026.015.028.011.026.015.029.007.012.003.013.008.01.007.012.003.013.004.01.008.013.003.01.004.009.003.006.004.01.004.006v.01l.003.003c.03.114-.01.254-.247.4 0 0-.153-.095-.215-.219-.058-.114-.022-.197.037-.255.058-.064.2-.2.254-.293zm.4.427v.022l-.003.013v.023l-.003.015v.013l-.004.016-.003.016-.003.019-.003.02-.003.018-.003.02-.004.018-.003.02-.01.04-.009.042-.013.045-.006.019-.003.019-.01.022-.006.02-.006.018-.007.02-.01.019-.006.015-.01.016-.006.016c-.13.227-.321.399-.49.399-.153 0-.185-.093-.264-.13 0 0 .038-.198.213-.25.213-.066.541-.321.675-.563zm-.557.414c-.096.048-.195.08-.23.099-.144.086-.191.28-.191.28-.13.058-.331.007-.331.007.07-.08.203-.236.337-.329.14-.092.303-.153.303-.153l.003.007.003.003.007.003.003.007.003.003.003.003.003.003.007.003.003.003.003.004.003.003.004.003.006.006.006.007.007.003.01.006.006.004.006.006.013.01.006.003.007.006zm-.172-.166c-.067.039-.192.121-.373.182-.169.054-.386.102-.386.102.042-.06.22-.245.306-.315a8.13 8.13 0 0 1 .373-.249v.013l-.003.013v.025l.003.01v.025l.003.01v.01l.003.012.003.01.004.01.003.009v.01l.003.009.006.01.004.006.003.01.003.009.003.006.003.006.003.01.007.006.003.007.003.006.003.007.004.006.003.006.003.007.003.003.003.006.004.003zm-.485.31c-.137.133-.197.27-.327.32-.198.074-.379.198-.379.198a8.229 8.229 0 0 0-.325-.095c.137-.153.242-.223.389-.268l.012-.006.016-.003.016-.004.02-.006.015-.003.02-.004.021-.006.02-.003.022-.006.019-.003.044-.01.048-.01.045-.009.047-.01.045-.012.045-.01.022-.003.022-.006.02-.007.021-.003.02-.006.019-.004.015-.006.02-.006.016-.003.012-.007zm.262.324a.84.84 0 0 1 .162.115.487.487 0 0 0-.328.09c-.064.044-.166.21-.106.324.067.112.3.035.3.035-.137.28-.347.198-.395.172-.045-.022-.14-.108-.108-.29.035-.207.337-.417.337-.417h.023l.006-.003h.019l.007-.003h.016l.003-.004h.009l.003-.003h.01l.003-.003h.006l.004-.003h.006l.003-.003h.007l.003-.004.006-.003h.004zm-1.985 2.405c-.204-.019-.35-.054-.491-.152-.137-.095-.392-.15-.523-.15-.13 0-.159-.057-.184-.101a.57.57 0 0 1 .29-.182c.283-.057.379.127.538.185.162.057.267-.058.42-.427.153-.37.42-.867.583-1.051.051-.064.223-.061.249-.064.028 0 .054.013.054.041.003.029.003.194.003.194.055-.035.179-.118.242-.124.064-.01.204.153.14.169-.7.134-1.038.908-1.175 1.198l-.013.028-.012.03-.01.028-.012.028-.01.029-.01.028-.01.032-.009.03-.01.028-.005.028-.017.06-.015.058-.013.057zm2.797-2.395l.003.022.003.022.006.023.007.022.006.022.01.022.006.02.01.022.01.022.009.023.01.022.012.02.01.021.012.023.01.022.013.022s-.21.984-.985 1.058c0 0 .016-.204.243-.357.229-.156.573-.399.547-.765 0 0-.063.013-.172.15-.108.137-.35.535-.72.538 0 0 .055-.187.22-.293.163-.108.373-.245.469-.41a.654.654 0 0 1 .26-.271zm-.366 3.587l.137-.204c.156.22.274.385.315.449.054-.102.156-.28.248-.45l.128.23-.357.634-.471-.66zm-.118-.558l-.134.204-1.128-1.586-.191.137-.01-.609.561.214-.178.127.006.01.01.012.012.02.016.019.016.025.02.029.022.032.025.035.026.035.028.041.032.042.032.044.035.048.035.05.035.052.038.054.039.054.04.057.042.058.042.057.086.121.09.124.088.125.09.124.089.124.086.121zm-3.861-3.596l.013-.013.015-.013.013-.01.016-.009.016-.006.016-.006.016-.004.016-.003.016-.003h.019l.016.003h.019l.02.007.018.003.02.006.018.006.02.01.022.01.019.01.022.009.02.013.022.012.022.016.02.013.022.016.022.015.022.02.022.015.023.02.019.019.022.019.022.019c.236.216.385.44.249.592-.128.137-.376.02-.609-.197-.239-.217-.385-.44-.248-.59zm.382 2.676c.121.089.35.085.408.086.051 0 .111.016.111.083.007.07-.102.08-.102.08-.111-.01-.57-.01-.57-.01a.483.483 0 0 0-.099-.23c-.315-.311-.5-.694-.541-.952-.077-.468.137-.882.216-1.105.057-.17.06-.28.048-.484.01.143.118.315.331.512.23.207.427.3.583.277 0 0-.235.042-.372.172-.115.109-.277.402-.328.727a.822.822 0 0 1 1.532.14c-.019.044-.128.29-.156.344 0 0 .01-.077.01-.125a.646.646 0 0 0-1.29 0 .62.62 0 0 0 .197.465h.003v.004h.003v.003h.003v.003h.004l.003.003.003.004.003.003zm2.542.156l.106.18a4.073 4.073 0 0 1-.95.277 2.35 2.35 0 0 1-.538.042c0-.058-.032-.104-.032-.104a.226.226 0 0 0 .013-.111c.172.007.35-.004.529-.039l.108-.02.106-.022.054-.011.054-.012.054-.012.057-.015.054-.015.054-.016.054-.019.058-.019.054-.019.054-.02.057-.022.054-.023zm.484-.023l-.106-.146c.366-.197.723-.5 1.041-.975.01-.01.026-.035.032-.044 0 0 .121.028.214-.013l-.06.102-.033.05-.035.049-.063.092-.067.086-.07.086-.067.08-.07.073-.067.073-.07.067-.073.064-.07.06-.073.058-.07.054-.073.05-.074.048-.073.045-.073.041zm-2.586.167c.08.022.063.115.022.176-.041.066-.309.26-.357.286-.044.026-.127.065-.165-.01-.058-.122-.096-.21-.086-.294.016-.083.143-.118.258-.14h.01l.009-.004h.01l.012-.005h.022l.023-.004h.025l.022-.005h.026l.022-.004h.106l.009.004h.032zm4.87-3.728c.059.092.198.23.26.293.054.058.09.14.032.255a.64.64 0 0 1-.215.22c-.237-.147-.273-.287-.248-.401v-.004l.004-.01.003-.006.004-.009.004-.006.003-.01.004-.01.004-.012.007-.01.003-.013.008-.012.007-.01.004-.013.007-.012.015-.03.014-.025.011-.028.015-.026.01-.025.008-.013.007-.013.004-.013.007-.012.004-.013.003-.01.008-.012.004-.01zm-.462.427c.134.242.462.497.676.564.175.05.213.248.213.248-.073.038-.108.13-.261.13-.172 0-.36-.171-.49-.398l-.007-.016-.01-.016-.01-.015-.005-.02-.007-.019-.01-.019-.006-.019-.006-.022-.007-.02-.006-.018-.01-.045-.01-.041-.009-.041-.003-.02-.006-.019-.004-.019-.003-.019-.003-.019-.003-.02v-.015l-.003-.016-.003-.013v-.015l-.004-.013v-.039l-.003-.006zm.558.414l.01-.006.006-.003.012-.01.007-.006.006-.004.007-.006.006-.003.006-.007.007-.006.003-.003.003-.003.003-.004.006-.003.004-.003.003-.003.003-.003.003-.003.003-.007.007-.003.003-.003.003-.007s.166.06.303.153c.133.093.267.249.34.329 0 0-.203.05-.334-.007 0 0-.048-.194-.191-.28-.032-.02-.134-.051-.23-.099zm.172-.166l.003-.003.003-.006.003-.003.004-.007.003-.006.003-.006.003-.007.006-.006.003-.007.004-.006.003-.01.003-.006.007-.006.003-.01.003-.01.003-.006.003-.009.003-.01.004-.01.003-.009.003-.01.003-.009v-.013l.003-.01v-.009l.003-.012v-.023l.004-.012v-.013l-.004-.013v-.013s.287.182.373.249c.083.07.265.255.303.315 0 0-.217-.048-.383-.102-.18-.06-.308-.143-.375-.182zm.484.31l.016.006.016.003.016.006.019.006.019.004.019.006.02.003.022.007.019.006.022.003.045.01.047.012.045.01.048.01.044.009.045.01.022.003.023.006.019.003.019.006.019.004.02.003.015.006.016.004.016.003.016.006c.143.045.248.115.388.268 0 0-.213.057-.324.095 0 0-.182-.124-.383-.197-.13-.05-.191-.188-.328-.322zm-.258.324h.003l.003.003h.003l.004.004h.003l.003.003h.006l.003.003h.007l.003.003h.01l.003.003h.009l.007.004h.012l.007.003h.019l.006.003h.023s.305.21.34.417c.029.182-.063.268-.111.29-.045.026-.255.108-.395-.172 0 0 .232.077.3-.035.063-.114-.039-.28-.106-.325a.479.479 0 0 0-.325-.089s.074-.07.163-.115zm1.985 2.405l-.016-.057-.013-.057-.016-.06-.01-.03-.01-.028-.006-.029-.009-.032-.01-.028-.012-.029-.01-.028-.013-.029-.012-.029-.013-.028c-.134-.29-.471-1.064-1.172-1.198-.067-.016.073-.178.137-.169.064.006.188.09.245.124v-.194c.003-.028.029-.041.054-.041.029.003.198 0 .252.064.16.184.43.681.58 1.05.156.37.261.485.42.428.16-.058.255-.242.538-.185.1.019.207.086.29.182-.022.044-.05.102-.184.102-.131 0-.383.054-.523.15-.14.097-.287.132-.487.151zm-2.797-2.395a.675.675 0 0 1 .261.27c.096.166.303.303.468.412a.57.57 0 0 1 .22.293c-.373-.003-.615-.402-.723-.539-.112-.137-.169-.15-.169-.15-.026.367.315.609.545.765.23.153.245.357.245.357-.774-.074-.987-1.058-.987-1.058l.025-.044.01-.023.013-.022.01-.02.009-.021.012-.023.007-.022.01-.023.009-.019.006-.022.007-.022.006-.022.006-.023.003-.022.007-.022zm-.513.955l.003.013.006.016.007.016.01.016.009.019.012.019.01.022.016.022.013.023.012.022.016.022.016.026.016.025.02.026.034.048.035.05.035.048.02.026.018.022.016.023.02.022.015.022.016.02.016.018.016.02.016.016.016.012.012.016.013.01c.124.117.437.43.605.586 0 0-.474-.118-.742-.36 0 0-.188.108-.325.108h-.01c-.136 0-.327-.108-.327-.108-.265.242-.74.36-.74.36.167-.156.479-.469.606-.586.128-.115.42-.53.465-.66h.004zm0 1.115h.019l.01-.004h.028l.018-.004.02-.005.015-.008.02-.005.015-.008.02-.004.015-.009.013-.008.016-.004.006-.005.007-.004.006-.004.006-.004.007-.005h.006l.007-.004.006-.004c-.057.152-.162.403-.261.5h-.003c-.102-.097-.207-.348-.265-.5a.54.54 0 0 0 .261.09h.007zm.404 2.176l-.837-1.498c-.138.204-.539.816-.644.969l.191.13-.567.223v-.599l.188.125.746-1.131.105-.156.838 1.523c.175-.246 1.56-2.185 1.65-2.316l-.175-.128.56-.213-.013.608-.188-.136-1.854 2.599zm.341-1.023l-.047-.07-.026-.034-.022-.036-.022-.032-.023-.035-.022-.032-.019-.031-.022-.032-.02-.029-.009-.013-.01-.016-.006-.012-.01-.013-.009-.013-.006-.013-.01-.012-.006-.01-.006-.013-.01-.01-.006-.009-.007-.01c-.044.087-.14.259-.245.447l-.134-.236.363-.65.102.156.373.56-.14.198zm.382.17l.131.203.188-.124.003.599-.567-.223.188-.13-.086-.132.143-.194zm3.73-3.96c.138.15-.012.372-.247.589-.24.216-.481.334-.609.197-.14-.153.007-.376.246-.592l.022-.02.022-.018.023-.02.022-.019.022-.015.022-.02.023-.015.019-.016.022-.013.022-.016.022-.012.02-.013.022-.01.019-.01.019-.009.022-.01.02-.006.019-.006.019-.003.019-.007h.019l.016-.003h.019l.016.003.016.003.015.004.017.006.015.006.016.01.013.01.016.012.013.013zm-.385 2.676l.003-.003h.003v-.004h.004v-.003h.003v-.003h.003l.003-.003h.003v-.004h.004a.62.62 0 0 0 .194-.465.645.645 0 1 0-1.29 0c0 .048.009.125.009.125-.026-.054-.134-.3-.156-.344a.821.821 0 0 1 1.532-.14c-.05-.325-.213-.618-.328-.727-.137-.13-.37-.172-.37-.172.154.023.354-.07.58-.277.214-.197.326-.37.332-.512a1.09 1.09 0 0 0 .05.484c.08.223.29.637.217 1.105-.04.258-.229.64-.541.953a.427.427 0 0 0-.099.229s-.462 0-.567.01c0 0-.112-.01-.108-.08 0-.067.063-.083.114-.083.058 0 .284.003.405-.086zm-3.026.133l-.073-.041-.073-.045-.073-.047-.07-.051-.074-.054-.073-.058-.07-.06-.07-.064-.07-.067-.07-.073-.07-.073-.067-.08-.067-.086-.067-.086-.066-.092-.032-.048-.035-.051-.06-.102c.095.041.213.013.213.013.01.01.022.035.028.044.325.475.682.778 1.045.972l-.106.15zm.484.023l.054.023.058.023.054.019.057.02.054.018.054.02.058.015.054.015.054.015.054.012.054.012.054.01.108.024.105.02c.182.034.36.045.529.038 0 .034 0 .076.013.11 0 0-.029.047-.029.105a2.393 2.393 0 0 1-.541-.042 4.139 4.139 0 0 1-.953-.277l.11-.18zm2.103.144h.035l.01-.004h.101l.026.004h.022l.026.005h.022l.025.004h.023l.01.005h.012l.01.004h.009c.111.022.239.057.255.14.012.084-.029.172-.086.295-.035.074-.118.035-.166.009-.048-.027-.312-.22-.357-.286-.041-.061-.057-.154.023-.176z" id="Combined-Shape"/></g></g></g></svg>