<svg width="52" height="20" xmlns="http://www.w3.org/2000/svg"><g id="11.-Credit" fill="none" fill-rule="evenodd"><g id="11.2-Credit-Promo-1440" transform="translate(-588 -4102)" fill="#FFF"><path d="M611 4115v3l-4-3.5 4-3.5v3h8v1h-8zm5-8h-8v-1h8v-3l4 3.5-4 3.5v-3zm-19.5-5l8.5 7h-17l8.5-7zm-7.5 17h15v1h-15v-1zm0 2h15v1h-15v-1zm2-11h1v8h-1v-8zm2 0h1v8h-1v-8zm2 0h1v8h-1v-8zm2 0h1v8h-1v-8zm2 0h1v8h-1v-8zm2 0h1v8h-1v-8zm30.5-8l8.5 7h-17l8.5-7zm-7.5 17h15v1h-15v-1zm0 2h15v1h-15v-1zm2-11h1v8h-1v-8zm2 0h1v8h-1v-8zm2 0h1v8h-1v-8zm2 0h1v8h-1v-8zm2 0h1v8h-1v-8zm2 0h1v8h-1v-8z" id="Combined-Shape"/></g></g></svg>