<svg xmlns="http://www.w3.org/2000/svg" xmlns:xlink="http://www.w3.org/1999/xlink" width="24" height="24"><defs><circle id="A" cx="12" cy="12" r="12"/></defs><g fill-rule="evenodd"><mask id="B" fill="#fff"><use xlink:href="#A"/></mask><use xlink:href="#A" fill="#02C5AB"/><path d="M17 8.866V12h-1V8.866A1 1 0 0 1 15.5 8V6h2v2a1 1 0 0 1-.5.866zM15.5 12h2a.5.5 0 0 1 .5.5v4a1.5 1.5 0 1 1-3 0v-4a.5.5 0 0 1 .5-.5zM11 10.95v5.55a1.5 1.5 0 1 1-3 0v-5.55A2.5 2.5 0 0 1 6 8.5V8a2 2 0 0 1 2-2v1.5a1.5 1.5 0 1 0 3 0V6a2 2 0 0 1 2 2v.5a2.5 2.5 0 0 1-2 2.45z" mask="url(#B)" fill="#fff"/></g></svg>