<svg width="481" height="138" xmlns="http://www.w3.org/2000/svg"><defs><linearGradient x1="50%" y1="0%" x2="50%" y2="98.481%" id="linearGradient-1"><stop stop-color="#FDE473" offset="0%"/><stop stop-color="#FFBF1A" offset="100%"/></linearGradient></defs><g id="UI-Set" fill="none" fill-rule="evenodd"><g id="01.-Icons" transform="translate(-831 -1928)"><g id="Group-40" transform="translate(831 1928)"><g id="Group-28"><g id="Group-27"><path d="M339.202 22H405c11.046 0 20 8.954 20 20v8c0 11.046 8.954 20 20 20h16c11.046 0 20 8.954 20 20v6H246c-10.493 0-19-8.507-19-19s8.507-19 19-19h52.798a20 20 0 0 0 19.27-14.647l1.863-6.706A20 20 0 0 1 339.201 22z" id="Rectangle-3" fill="#BCF2EB"/><g id="Group-59" transform="translate(76 76)"><path d="M0 62h34V0H8a8 8 0 0 0-8 8v54z" id="Fill-9" fill="#FFF"/><path id="Fill-29" fill="#D6D6D6" d="M34 62h38V8H34z"/><path d="M0 8h34V0H8a8 8 0 0 0-8 8z" id="Fill-31" fill="#BCF2EB"/><path id="Fill-32" fill="#2898BC" d="M34 8h38V0H34z"/><g id="Group-9" transform="translate(36 10)" fill="#213C4A"><path id="Rectangle-32" d="M0 0h2v2H0zm8 0h2v2H8zm8 0h2v2h-2zm8 0h2v2h-2zM4 0h2v2H4zm8 0h2v2h-2zm8 0h2v2h-2zm8 0h2v2h-2zm4 0h2v2h-2zM0 4h2v2H0zm8 0h2v2H8zm8 0h2v2h-2zm8 0h2v2h-2zM4 4h2v2H4zm8 0h2v2h-2zm8 0h2v2h-2zm8 0h2v2h-2zm4 0h2v2h-2zM0 16h2v2H0zm8 0h2v2H8zm8 0h2v2h-2zm8 0h2v2h-2zM4 16h2v2H4zm8 0h2v2h-2zm8 0h2v2h-2zm8 0h2v2h-2zm4 0h2v2h-2zM0 20h2v2H0zm8 0h2v2H8zm8 0h2v2h-2zm8 0h2v2h-2zM4 20h2v2H4zm8 0h2v2h-2zm8 0h2v2h-2zm8 0h2v2h-2zm4 0h2v2h-2zM0 32h2v2H0zm8 0h2v2H8zm8 0h2v2h-2zm8 0h2v2h-2zM4 32h2v2H4zm8 0h2v2h-2zm8 0h2v2h-2zm8 0h2v2h-2zm4 0h2v2h-2zM0 36h2v2H0zm8 0h2v2H8zm8 0h2v2h-2zm8 0h2v2h-2zM4 36h2v2H4zm8 0h2v2h-2zm8 0h2v2h-2zm8 0h2v2h-2zm4 0h2v2h-2zM0 8h2v2H0zm8 0h2v2H8zm8 0h2v2h-2zm8 0h2v2h-2zM4 8h2v2H4zm8 0h2v2h-2zm8 0h2v2h-2zm8 0h2v2h-2zm4 0h2v2h-2zM0 12h2v2H0zm8 0h2v2H8zm8 0h2v2h-2zm8 0h2v2h-2zM4 12h2v2H4zm8 0h2v2h-2zm8 0h2v2h-2zm8 0h2v2h-2zm4 0h2v2h-2zM0 24h2v2H0zm8 0h2v2H8zm8 0h2v2h-2zm8 0h2v2h-2zM4 24h2v2H4zm8 0h2v2h-2zm8 0h2v2h-2zm8 0h2v2h-2zm4 0h2v2h-2zM0 28h2v2H0zm8 0h2v2H8zm8 0h2v2h-2zm8 0h2v2h-2zM4 28h2v2H4zm8 0h2v2h-2zm8 0h2v2h-2zm8 0h2v2h-2zm4 0h2v2h-2zM0 40h2v2H0zm8 0h2v2H8zm8 0h2v2h-2zm8 0h2v2h-2zM4 40h2v2H4zm8 0h2v2h-2zm8 0h2v2h-2zm8 0h2v2h-2zm4 0h2v2h-2zM0 44h2v2H0zm8 0h2v2H8zm8 0h2v2h-2zm8 0h2v2h-2zM4 44h2v2H4zm8 0h2v2h-2zm8 0h2v2h-2zm8 0h2v2h-2zm4 0h2v2h-2zM0 48h2v2H0zm8 0h2v2H8zm8 0h2v2h-2zm8 0h2v2h-2zM4 48h2v2H4zm8 0h2v2h-2zm8 0h2v2h-2zm8 0h2v2h-2zm4 0h2v2h-2z"/></g></g><g id="Group-17" transform="translate(148)"><path d="M0 136l50 2V8H20C8.954 8 0 16.954 0 28v108z" id="Fill-25" fill="#FFF"/><path id="Fill-28" fill="#D6D6D6" d="M28 138h22V8H28z"/><path id="Fill-30" fill="#D6D6D6" d="M28 138H0V76l28 28z"/><path id="Fill-33" fill="#FFF" d="M18 8h10V0H18z"/><path id="Fill-34" fill="#D6D6D6" d="M28 8h10V0H28z"/><g id="Group-10" transform="translate(30 10)" fill="#213C4A"><path id="Rectangle-32" d="M0 12h2v2H0zm8 0h2v2H8zm8 0h2v2h-2zM4 12h2v2H4zm8 0h2v2h-2zM0 16h2v2H0zm8 0h2v2H8zm8 0h2v2h-2zM4 16h2v2H4zm8 0h2v2h-2zM0 28h2v2H0zm8 0h2v2H8zm8 0h2v2h-2zM4 28h2v2H4zm8 0h2v2h-2zM0 32h2v2H0zm8 0h2v2H8zm8 0h2v2h-2zM4 32h2v2H4zm8 0h2v2h-2zM0 4h2v2H0zm8 0h2v2H8zm8 0h2v2h-2zM4 4h2v2H4zm8 0h2v2h-2zM0 0h2v2H0zm8 0h2v2H8zm8 0h2v2h-2zM4 0h2v2H4zm8 0h2v2h-2zM0 8h2v2H0zm8 0h2v2H8zm8 0h2v2h-2zM4 8h2v2H4zm8 0h2v2h-2zM0 20h2v2H0zm8 0h2v2H8zm8 0h2v2h-2zM4 20h2v2H4zm8 0h2v2h-2zM0 24h2v2H0zm8 0h2v2H8zm8 0h2v2h-2zM4 24h2v2H4zm8 0h2v2h-2zM0 36h2v2H0zm8 0h2v2H8zm8 0h2v2h-2zM4 36h2v2H4zm8 0h2v2h-2zM0 40h2v2H0zm8 0h2v2H8zm8 0h2v2h-2zM4 40h2v2H4zm8 0h2v2h-2zM0 44h2v2H0zm8 0h2v2H8zm8 0h2v2h-2zM4 44h2v2H4zm8 0h2v2h-2zM0 48h2v2H0zm8 0h2v2H8zm8 0h2v2h-2zM4 48h2v2H4zm8 0h2v2h-2zM0 52h2v2H0zm8 0h2v2H8zm8 0h2v2h-2zM4 52h2v2H4zm8 0h2v2h-2zM0 56h2v2H0zm8 0h2v2H8zm8 0h2v2h-2zM4 56h2v2H4zm8 0h2v2h-2zM0 68h2v2H0zm8 0h2v2H8zm8 0h2v2h-2zM4 68h2v2H4zm8 0h2v2h-2zM0 72h2v2H0zm8 0h2v2H8zm8 0h2v2h-2zM4 72h2v2H4zm8 0h2v2h-2zM0 84h2v2H0zm8 0h2v2H8zm8 0h2v2h-2zM4 84h2v2H4zm8 0h2v2h-2zM0 88h2v2H0zm8 0h2v2H8zm8 0h2v2h-2zM4 88h2v2H4zm8 0h2v2h-2zM0 60h2v2H0zm8 0h2v2H8zm8 0h2v2h-2zM4 60h2v2H4zm8 0h2v2h-2zM0 64h2v2H0zm8 0h2v2H8zm8 0h2v2h-2zM4 64h2v2H4zm8 0h2v2h-2zM0 76h2v2H0zm8 0h2v2H8zm8 0h2v2h-2zM4 76h2v2H4zm8 0h2v2h-2zM0 80h2v2H0zm8 0h2v2H8zm8 0h2v2h-2zM4 80h2v2H4zm8 0h2v2h-2zM0 92h2v2H0zm8 0h2v2H8zm8 0h2v2h-2zM4 92h2v2H4zm8 0h2v2h-2zM0 96h2v2H0zm8 0h2v2H8zm8 0h2v2h-2zM4 96h2v2H4zm8 0h2v2h-2zm-12 4h2v2H0zm8 0h2v2H8zm8 0h2v2h-2zm-12 0h2v2H4zm8 0h2v2h-2zm-12 4h2v2H0zm8 0h2v2H8zm8 0h2v2h-2zm-12 0h2v2H4zm8 0h2v2h-2zm-12 4h2v2H0zm8 0h2v2H8zm8 0h2v2h-2zm-12 0h2v2H4zm8 0h2v2h-2zm-12 4h2v2H0zm8 0h2v2H8zm8 0h2v2h-2zm-12 0h2v2H4zm8 0h2v2h-2zm-12 4h2v2H0zm8 0h2v2H8zm8 0h2v2h-2zm-12 0h2v2H4zm8 0h2v2h-2zm-12 4h2v2H0zm8 0h2v2H8zm8 0h2v2h-2zm-12 0h2v2H4zm8 0h2v2h-2zm-12 4h2v2H0zm8 0h2v2H8zm8 0h2v2h-2zm-12 0h2v2H4zm8 0h2v2h-2z"/></g></g><g id="Group-12" transform="translate(305 54)" fill="#2898BC"><path id="Rectangle-33" d="M28 24h4v60h-4z"/><path d="M24.806 0H42c6.627 0 12 5.373 12 12s-5.373 12-12 12H6a6 6 0 0 1-6-6v-2a6 6 0 0 1 6-6h2.155a8 8 0 0 0 6.247-3.002l2.596-3.245A10 10 0 0 1 24.806 0z" id="Rectangle-35"/></g><g id="Group-18" transform="translate(0 24)"><path id="Rectangle-33" fill="#2898BC" d="M32 24h4v90h-4z"/><path d="M24.806 0H42c6.627 0 12 5.373 12 12s-5.373 12-12 12H6a6 6 0 0 1-6-6v-2a6 6 0 0 1 6-6h2.155a8 8 0 0 0 6.247-3.002l2.596-3.245A10 10 0 0 1 24.806 0z" id="Rectangle-35" fill="#BCF2EB"/><path d="M20 24h4v5.578a10 10 0 0 0 4.453 8.32l1.313.876A14 14 0 0 1 36 50.422V54h-4v-3.578a10 10 0 0 0-4.453-8.32l-1.313-.876A14 14 0 0 1 20 29.578V24z" id="Line" fill="#2898BC" fill-rule="nonzero"/></g><g id="Group-25" transform="translate(385 73)"><path id="Rectangle-23" fill="#2898BC" d="M12 21h2v42h-2z"/><rect id="Rectangle-2" stroke="#FFF" stroke-width="2" fill="#FFBB03" transform="rotate(45 13 12.928)" x="5" y="4.928" width="16" height="16" rx="2"/></g></g><g id="Group-67" transform="translate(219 108)"><g id="Page-1"><path d="M69.62 16.366a3 3 0 0 0-2.448-2.8L51.384 10.63a14.001 14.001 0 0 1-6.089-2.755l-5.672-4.456A15.998 15.998 0 0 0 29.74 0h-8.077a10 10 0 0 0-8.575 4.855L11.02 8.3A3.5 3.5 0 0 1 8.019 10H4.5A4.5 4.5 0 0 0 0 14.5V22a2 2 0 0 0 2 2h3.227c.925 0 1.74-.633 1.942-1.536a7.002 7.002 0 0 1 13.346-1.03A4.017 4.017 0 0 0 24.245 24h23.51c1.655 0 3.123-1.025 3.73-2.565a7.002 7.002 0 0 1 13.128.264c.488 1.403 1.866 2.301 3.35 2.301H69a1 1 0 0 0 .949-1.049l-.33-6.584z" id="Fill-1" fill="url(#linearGradient-1)"/><path d="M19.5 24.5a5.5 5.5 0 1 1-11 0 5.5 5.5 0 0 1 11 0" id="Fill-3" fill="#1A1A1A"/><path d="M16.25 14h-1.5a.75.75 0 0 1 0-1.5h1.5a.75.75 0 0 1 0 1.5" id="Fill-5" fill="#000"/><path d="M29.75 14h-1.5a.75.75 0 0 1 0-1.5h1.5a.75.75 0 0 1 0 1.5" id="Fill-7" fill="#000"/><path d="M16.5 24.5a2.5 2.5 0 1 1-5 0 2.5 2.5 0 0 1 5 0" id="Fill-9" fill="#FFF"/><path d="M2 19H0v-4h1a2 2 0 0 1 2 2v1a1 1 0 0 1-1 1" id="Fill-11" fill="#FF5F5F"/><path d="M69 19a2.5 2.5 0 0 1-2.5-2.5V16a1 1 0 0 1 1-1h.5a2 2 0 0 1 2 2v1a1 1 0 0 1-1 1" id="Fill-13" fill="#FFDC5F"/><path d="M42.28 10H29.5A2.5 2.5 0 0 1 27 7.5v-3a2 2 0 0 1 2-2h.068c3.198 0 6.306 1.057 8.84 3.007l4.677 3.597a.5.5 0 0 1-.305.896" id="Fill-15" fill="#FFF"/><path d="M15.65 10a1.5 1.5 0 0 1-1.287-2.271l.952-1.588A7.5 7.5 0 0 1 21.746 2.5h.754a2 2 0 0 1 2 2V8a2 2 0 0 1-2 2h-6.85z" id="Fill-17" fill="#FFF"/><path d="M63.5 24.5a5.5 5.5 0 1 1-11 0 5.5 5.5 0 0 1 11 0" id="Fill-19" fill="#1A1A1A"/><path d="M60.5 24.5a2.5 2.5 0 1 1-5 0 2.5 2.5 0 0 1 5 0" id="Fill-21" fill="#FFF"/></g></g></g></g></g></g></svg>