<svg width="64" height="64" xmlns="http://www.w3.org/2000/svg"><g id="UI-Set" fill="none" fill-rule="evenodd"><g id="01.-Icons" transform="translate(-1198 -1678)" fill="#BCF2EB"><g id="Group-20" transform="translate(1148 1628)"><g id="Illustration/-Credit/-Phone" transform="translate(50 50)"><path d="M28.364 55.748c-2.164-1.248-5.588-4.1-10.78-9.288-5.236-5.236-8.088-8.664-9.332-10.824C-5.94 15.916 2.008 4.576 4.196 2.388 6.76-.172 14.496-.6 14.556.756c.06 1.352 6.972 16.372 7.036 17.728.056 1.356-4.56 5.972-5.912 7.324-1.34 1.34 9.032 13.06 9.228 13.28.224.196 11.948 10.572 13.284 9.232 1.352-1.352 5.968-5.968 7.324-5.908 1.352.06 16.376 6.972 17.732 7.028 1.352.064.928 7.8-1.636 10.364-2.188 2.188-13.528 10.136-33.248-4.056z" id="10-Phone-s"/></g></g></g></g></svg>