<svg width="28" height="59" xmlns="http://www.w3.org/2000/svg"><g id="UI-Set" fill="none" fill-rule="evenodd"><g id="01.-Icons" transform="translate(-1012 -1681)" fill="#404040"><g id="Group-47" transform="translate(944 1628)"><g id="Illustration/-Credit/-Question" transform="translate(68 53)"><path d="M11.917 42.375c.052-2.917.501-5.306 1.348-7.168.846-1.862 2.44-3.887 4.785-6.074 2.343-2.188 3.984-3.945 4.922-5.274.937-1.328 1.62-2.708 2.05-4.14.43-1.433.645-3.151.645-5.157 0-3.776-1.003-6.744-3.008-8.906-2.005-2.161-4.766-3.242-8.281-3.242-3.75 0-6.7 1.12-8.848 3.36-2.148 2.239-3.249 5.117-3.3 8.632H.12C.172 10.187 1.54 6.79 4.222 4.211 6.904 1.633 10.289.344 14.378.344c4.088 0 7.344 1.289 9.765 3.867 2.422 2.578 3.633 6.055 3.633 10.43 0 2.994-.586 5.657-1.758 7.988-1.171 2.33-3.45 5.032-6.836 8.105-3.437 2.683-5.156 6.563-5.156 11.641h-2.11zm-.938 13.71c0-.598.209-1.112.625-1.542.417-.43.925-.645 1.524-.645s1.113.215 1.543.645c.43.43.644.944.644 1.543s-.215 1.107-.644 1.523c-.43.417-.944.625-1.543.625a2.073 2.073 0 0 1-1.524-.625 2.073 2.073 0 0 1-.625-1.523z" id="?"/></g></g></g></g></svg>