<svg width="64" height="64" xmlns="http://www.w3.org/2000/svg"><g id="01.-A-B-Home-page" fill="none" fill-rule="evenodd"><g id="C-01.1-Home-Page-1440" transform="translate(-1084 -312)"><g id="Group-6" transform="translate(1084 312)"><g id="Group-15"><circle id="Oval-3" fill="#FFF" cx="32" cy="32" r="32"/><g id="Icon/-20px/-Like" transform="translate(15 12)"><g id="Icon/-Like" transform="translate(1.8 1.8)" fill-rule="nonzero"><rect id="Rectangle-2" fill="#2898BC" y="9" width="12.6" height="23.4" rx="1"/><path d="M26.268 12.198c-.86 0-2.007.038-3.443.116.922-3.221 1.413-5.727 1.46-7.55 0-2.967-1.253-4.764-3.79-4.764-2.904 0-2.523 3.562-6.096 8.073v23.334c2.28.644 4.322.993 6.097.993 4.653 0 7.997-1.36 8.832-4.09.7-2.29 2.22-10.522 2.171-11.807.002-2.784-2.068-4.305-5.23-4.305" id="Fill-1" fill="#FFBB03"/><path d="M26.268 12.198c-.86 0-2.007.038-3.443.116.922-3.221 1.413-5.727 1.46-7.55 0-2.967-1.253-4.764-3.79-4.764-2.904 0-2.523 3.562-6.096 8.073v2.806c2.54-2.65 3.683-5.081 4.533-6.89.943-2.007 1.09-2.083 1.564-2.083.695 0 1.989 0 1.989 2.807-.04 1.609-.506 3.98-1.383 7.05l-.74 2.592 2.555-.137a65.321 65.321 0 0 1 3.351-.114c1.169 0 2.133.257 2.718.724.306.244.713.684.713 1.742.007 1.118-1.418 8.978-2.084 11.153-.531 1.734-3.192 2.771-7.12 2.771-1.695 0-3.74-.354-6.096-1.054v1.967c2.28.644 4.322.993 6.097.993 4.653 0 7.997-1.36 8.832-4.09.7-2.29 2.22-10.522 2.171-11.807.002-2.784-2.068-4.305-5.23-4.305" id="Fill-4" fill="#FFBB03"/></g></g></g></g></g></g></svg>