<svg width="64" height="65" xmlns="http://www.w3.org/2000/svg" xmlns:xlink="http://www.w3.org/1999/xlink"><defs><circle id="path-1" cx="32" cy="32" r="32"/><filter x="-.8%" y="-.8%" width="101.6%" height="103.1%" filterUnits="objectBoundingBox" id="filter-2"><feOffset dy="1" in="SourceAlpha" result="shadowOffsetOuter1"/><feColorMatrix values="0 0 0 0 0 0 0 0 0 0 0 0 0 0 0 0 0 0 0.25 0" in="shadowOffsetOuter1"/></filter></defs><g id="01.-A-B-Home-page" fill="none" fill-rule="evenodd"><g id="C-01.1-Home-Page-1440" transform="translate(-1084 -392)"><g id="Group-8" transform="translate(1084 392)"><g id="Group"><g id="Oval-3"><use fill="#000" filter="url(#filter-2)" xlink:href="#path-1"/><use fill="#FFF" xlink:href="#path-1"/></g><g transform="translate(14 6)" id="Illustration/-Credit/-Wallet"><rect id="Rectangle-11" fill="#136A5E" y="15.275" width="34.824" height="28.2" rx="8"/><ellipse id="Oval-6" fill="#FFBB03" cx="15.507" cy="16.156" rx="5.169" ry="5.581"/><rect id="Rectangle-11" fill="#02C5AB" y="18.8" width="34.824" height="28.2" rx="8"/><path d="M27.553 28.2H35a2 2 0 0 1 2 2v5.4a2 2 0 0 1-2 2h-7.447a4.7 4.7 0 0 1 0-9.4z" id="Rectangle-12" fill="#2898BC"/><ellipse id="Oval-5" fill="#FFF" cx="27.75" cy="32.9" rx="2.176" ry="2.35"/><ellipse id="Oval-6" fill="#FFBB03" cx="24.213" cy="5.581" rx="5.169" ry="5.581"/></g></g></g></g></g></svg>