<svg width="1408" height="212" xmlns="http://www.w3.org/2000/svg" xmlns:xlink="http://www.w3.org/1999/xlink"><defs><linearGradient x1="50%" y1="0%" x2="50%" y2="98.481%" id="linearGradient-1"><stop stop-color="#FDE473" offset="0%"/><stop stop-color="#FFBF1A" offset="100%"/></linearGradient><linearGradient x1="50%" y1="0%" x2="50%" y2="100%" id="linearGradient-2"><stop stop-color="#FF9898" offset="0%"/><stop stop-color="#FF5F5F" offset="100%"/></linearGradient><path d="M7 24H4a4 4 0 0 1-4-4V10l11.136-6.96A20 20 0 0 1 21.736 0h5.443c5.243 0 10.334 1.76 14.457 5l.954.749a28 28 0 0 0 12.176 5.51l10.077 1.874a6 6 0 0 1 4.895 5.6l.158 3.167A2 2 0 0 1 67.9 24H65a7 7 0 0 0-14 0H21a7 7 0 0 0-14 0z" id="path-3"/><path d="M7 24H4a4 4 0 0 1-4-4V10l11.136-6.96A20 20 0 0 1 21.736 0h5.443c5.243 0 10.334 1.76 14.457 5l.954.749a28 28 0 0 0 12.176 5.51l10.077 1.874a6 6 0 0 1 4.895 5.6l.158 3.167A2 2 0 0 1 67.9 24H65a7 7 0 0 0-14 0H21a7 7 0 0 0-14 0z" id="path-5"/><linearGradient x1="50%" y1="0%" x2="50%" y2="100%" id="linearGradient-7"><stop stop-color="#51C9DF" offset="0%"/><stop stop-color="#2898BC" offset="100%"/></linearGradient></defs><g id="UI-Set" fill="none" fill-rule="evenodd"><g id="01.-Icons" transform="translate(-16 -2114)"><g id="Group-49" transform="translate(16 2114)"><path d="M793.02 68.876l-28.04 32.248A20 20 0 0 1 749.888 108h-65.52a20 20 0 0 0-15.365 7.196l-8.006 9.608A20 20 0 0 1 645.633 132H481.64a20 20 0 0 1-13.335-5.095l-7.611-6.81a20 20 0 0 0-13.336-5.094h-28.271a20 20 0 0 1-16.084-8.112l-5.008-6.777A20 20 0 0 0 381.912 92h-7.588a20 20 0 0 0-17.15 9.71L354 107a30.896 30.896 0 0 1-26.493 15H213.704a20 20 0 0 1-16.641-8.906l-8.126-12.188A20 20 0 0 0 172.297 92H72c-39.765 0-72 32.235-72 72h1408v-28c0-33.137-26.863-60-60-60H959.862a20 20 0 0 1-12.279-4.213l-7.166-5.574A20 20 0 0 0 928.137 62H808.114a20 20 0 0 0-15.092 6.876z" id="Fill-1" fill="#1A1A1A"/><g id="Group-20" transform="translate(80 124)"><path id="Rectangle-20" fill="#BCF2EB" d="M12 0l12 14H0z"/><path id="Rectangle-20" fill="#1E96BE" d="M42 0l12 14H24L12 0z"/><path id="Rectangle-21" fill="#D6D6D6" d="M24 14h30v26H24z"/><path id="Rectangle-21" fill="#FFF" d="M0 14h24v26H0z"/><g id="Group-9" transform="translate(26 16)" fill="#213C4A"><path id="Rectangle-32" d="M0 0h2v2H0zm8 0h2v2H8zm8 0h2v2h-2zm8 0h2v2h-2zM4 0h2v2H4zm8 0h2v2h-2zm8 0h2v2h-2zM0 4h2v2H0zm8 0h2v2H8zm8 0h2v2h-2zm8 0h2v2h-2zM4 4h2v2H4zm8 0h2v2h-2zm8 0h2v2h-2zM0 16h2v2H0zm8 0h2v2H8zm8 0h2v2h-2zm8 0h2v2h-2zM4 16h2v2H4zm8 0h2v2h-2zm8 0h2v2h-2zM0 20h2v2H0zm8 0h2v2H8zm8 0h2v2h-2zm8 0h2v2h-2zM4 20h2v2H4zm8 0h2v2h-2zm8 0h2v2h-2zM0 8h2v2H0zm8 0h2v2H8zm8 0h2v2h-2zm8 0h2v2h-2zM4 8h2v2H4zm8 0h2v2h-2zm8 0h2v2h-2zM0 12h2v2H0zm8 0h2v2H8zm8 0h2v2h-2zm8 0h2v2h-2zM4 12h2v2H4zm8 0h2v2h-2zm8 0h2v2h-2z"/></g></g><g id="Group-26" transform="translate(976 149)"><path d="M7.863 0h7.006a8 8 0 0 1 4.942 1.71l2.824 2.218a7 7 0 0 0 3.073 1.382l6.832 1.243A2.996 2.996 0 0 1 35 9.5v.5a2 2 0 0 1-2 2H2a2 2 0 0 1-2-2V8.363C0 6.198.801 4.11 2.25 2.5A7.552 7.552 0 0 1 7.863 0z" id="Rectangle-35" fill="#BCF2EB" transform="matrix(-1 0 0 1 35 0)"/><circle id="Oval-7" fill="#FFF" cx="29" cy="12" r="3"/><circle id="Oval-7" fill="#FFF" cx="7" cy="12" r="3"/></g><path d="M887.642 14.142l-8.284-8.284A20 20 0 0 0 865.216 0h-150.31A20 20 0 0 0 699.5 7.244L685 24.756A20 20 0 0 1 669.595 32h-163.23a20 20 0 0 0-19.324 14.847l-8.082 30.306A20 20 0 0 1 459.634 92h-17.521a20 20 0 0 0-18.341 12.025L419 115h28.359a20 20 0 0 1 13.336 5.095l7.61 6.81A20 20 0 0 0 481.641 132h163.992a20 20 0 0 0 15.364-7.196l8.006-9.608A20 20 0 0 1 684.367 108h65.52a20 20 0 0 0 15.093-6.876l28.04-32.248A20 20 0 0 1 808.113 62h120.025a20 20 0 0 1 12.279 4.213l7.166 5.574A20 20 0 0 0 959.863 76H1348c33.137 0 60 26.863 60 60V76c0-30.928-25.072-56-56-56H901.784a20 20 0 0 1-14.142-5.858z" id="Fill-23" fill="#BCF2EB"/><path d="M743 47c0 9.941-8.059 18-18 18s-18-8.059-18-18 8.059-18 18-18 18 8.059 18 18" id="Fill-24" fill="#FFF"/><g id="Group-5" transform="translate(459 132)"><g id="Group-11"><rect id="Rectangle-22" fill="#FFF" width="5" height="15" rx="2"/><circle id="Oval-6" fill="#FF5F5F" cx="2.5" cy="2.5" r="1.5"/><circle id="Oval-6" fill="#E0B053" cx="2.5" cy="7.5" r="1.5"/><circle id="Oval-6" fill="#77BFB3" cx="2.5" cy="12.5" r="1.5"/></g><path id="Rectangle-23" fill="#FFF" d="M2 15h1v17H2z"/></g><g id="Group-5" transform="translate(944 132)"><g id="Group-11"><rect id="Rectangle-22" fill="#FFF" width="5" height="15" rx="2"/><circle id="Oval-6" fill="#FF5F5F" cx="2.5" cy="2.5" r="1.5"/><circle id="Oval-6" fill="#E0B053" cx="2.5" cy="7.5" r="1.5"/><circle id="Oval-6" fill="#77BFB3" cx="2.5" cy="12.5" r="1.5"/></g><path id="Rectangle-23" fill="#FFF" d="M2 15h1v17H2z"/></g><g id="Group-5" transform="translate(145 132)"><g id="Group-11"><rect id="Rectangle-22" fill="#FFF" width="5" height="15" rx="2"/><circle id="Oval-6" fill="#FF5F5F" cx="2.5" cy="2.5" r="1.5"/><circle id="Oval-6" fill="#E0B053" cx="2.5" cy="7.5" r="1.5"/><circle id="Oval-6" fill="#77BFB3" cx="2.5" cy="12.5" r="1.5"/></g><path id="Rectangle-23" fill="#FFF" d="M2 15h1v17H2z"/></g><g id="Group-59" transform="translate(795 102)"><path d="M0 62h34V0H8a8 8 0 0 0-8 8v54z" id="Fill-9" fill="#FFF"/><path id="Fill-29" fill="#D6D6D6" d="M34 62h38V8H34z"/><path d="M0 8h34V0H8a8 8 0 0 0-8 8z" id="Fill-31" fill="#BCF2EB"/><path id="Fill-32" fill="#2898BC" d="M34 8h38V0H34z"/><g id="Group-9" transform="translate(36 10)" fill="#213C4A"><path id="Rectangle-32" d="M0 0h2v2H0zm8 0h2v2H8zm8 0h2v2h-2zm8 0h2v2h-2zM4 0h2v2H4zm8 0h2v2h-2zm8 0h2v2h-2zm8 0h2v2h-2zm4 0h2v2h-2zM0 4h2v2H0zm8 0h2v2H8zm8 0h2v2h-2zm8 0h2v2h-2zM4 4h2v2H4zm8 0h2v2h-2zm8 0h2v2h-2zm8 0h2v2h-2zm4 0h2v2h-2zM0 16h2v2H0zm8 0h2v2H8zm8 0h2v2h-2zm8 0h2v2h-2zM4 16h2v2H4zm8 0h2v2h-2zm8 0h2v2h-2zm8 0h2v2h-2zm4 0h2v2h-2zM0 20h2v2H0zm8 0h2v2H8zm8 0h2v2h-2zm8 0h2v2h-2zM4 20h2v2H4zm8 0h2v2h-2zm8 0h2v2h-2zm8 0h2v2h-2zm4 0h2v2h-2zM0 32h2v2H0zm8 0h2v2H8zm8 0h2v2h-2zm8 0h2v2h-2zM4 32h2v2H4zm8 0h2v2h-2zm8 0h2v2h-2zm8 0h2v2h-2zm4 0h2v2h-2zM0 36h2v2H0zm8 0h2v2H8zm8 0h2v2h-2zm8 0h2v2h-2zM4 36h2v2H4zm8 0h2v2h-2zm8 0h2v2h-2zm8 0h2v2h-2zm4 0h2v2h-2zM0 8h2v2H0zm8 0h2v2H8zm8 0h2v2h-2zm8 0h2v2h-2zM4 8h2v2H4zm8 0h2v2h-2zm8 0h2v2h-2zm8 0h2v2h-2zm4 0h2v2h-2zM0 12h2v2H0zm8 0h2v2H8zm8 0h2v2h-2zm8 0h2v2h-2zM4 12h2v2H4zm8 0h2v2h-2zm8 0h2v2h-2zm8 0h2v2h-2zm4 0h2v2h-2zM0 24h2v2H0zm8 0h2v2H8zm8 0h2v2h-2zm8 0h2v2h-2zM4 24h2v2H4zm8 0h2v2h-2zm8 0h2v2h-2zm8 0h2v2h-2zm4 0h2v2h-2zM0 28h2v2H0zm8 0h2v2H8zm8 0h2v2h-2zm8 0h2v2h-2zM4 28h2v2H4zm8 0h2v2h-2zm8 0h2v2h-2zm8 0h2v2h-2zm4 0h2v2h-2zM0 40h2v2H0zm8 0h2v2H8zm8 0h2v2h-2zm8 0h2v2h-2zM4 40h2v2H4zm8 0h2v2h-2zm8 0h2v2h-2zm8 0h2v2h-2zm4 0h2v2h-2zM0 44h2v2H0zm8 0h2v2H8zm8 0h2v2h-2zm8 0h2v2h-2zM4 44h2v2H4zm8 0h2v2h-2zm8 0h2v2h-2zm8 0h2v2h-2zm4 0h2v2h-2zM0 48h2v2H0zm8 0h2v2H8zm8 0h2v2h-2zm8 0h2v2h-2zM4 48h2v2H4zm8 0h2v2h-2zm8 0h2v2h-2zm8 0h2v2h-2zm4 0h2v2h-2z"/></g></g><g id="Group-17" transform="translate(867 34)"><path d="M0 128l50 2V0H20C8.954 0 0 8.954 0 20v108z" id="Fill-25" fill="#FFF"/><path id="Fill-28" fill="#D6D6D6" d="M28 130h22V0H28z"/><path id="Fill-30" fill="#D6D6D6" d="M28 130H0V68l28 28z"/><g id="Group-10" transform="translate(30 2)" fill="#213C4A"><path id="Rectangle-32" d="M0 12h2v2H0zm8 0h2v2H8zm8 0h2v2h-2zM4 12h2v2H4zm8 0h2v2h-2zM0 16h2v2H0zm8 0h2v2H8zm8 0h2v2h-2zM4 16h2v2H4zm8 0h2v2h-2zM0 28h2v2H0zm8 0h2v2H8zm8 0h2v2h-2zM4 28h2v2H4zm8 0h2v2h-2zM0 32h2v2H0zm8 0h2v2H8zm8 0h2v2h-2zM4 32h2v2H4zm8 0h2v2h-2zM0 4h2v2H0zm8 0h2v2H8zm8 0h2v2h-2zM4 4h2v2H4zm8 0h2v2h-2zM0 0h2v2H0zm8 0h2v2H8zm8 0h2v2h-2zM4 0h2v2H4zm8 0h2v2h-2zM0 8h2v2H0zm8 0h2v2H8zm8 0h2v2h-2zM4 8h2v2H4zm8 0h2v2h-2zM0 20h2v2H0zm8 0h2v2H8zm8 0h2v2h-2zM4 20h2v2H4zm8 0h2v2h-2zM0 24h2v2H0zm8 0h2v2H8zm8 0h2v2h-2zM4 24h2v2H4zm8 0h2v2h-2zM0 36h2v2H0zm8 0h2v2H8zm8 0h2v2h-2zM4 36h2v2H4zm8 0h2v2h-2zM0 40h2v2H0zm8 0h2v2H8zm8 0h2v2h-2zM4 40h2v2H4zm8 0h2v2h-2zM0 44h2v2H0zm8 0h2v2H8zm8 0h2v2h-2zM4 44h2v2H4zm8 0h2v2h-2zM0 48h2v2H0zm8 0h2v2H8zm8 0h2v2h-2zM4 48h2v2H4zm8 0h2v2h-2zM0 52h2v2H0zm8 0h2v2H8zm8 0h2v2h-2zM4 52h2v2H4zm8 0h2v2h-2zM0 56h2v2H0zm8 0h2v2H8zm8 0h2v2h-2zM4 56h2v2H4zm8 0h2v2h-2zM0 68h2v2H0zm8 0h2v2H8zm8 0h2v2h-2zM4 68h2v2H4zm8 0h2v2h-2zM0 72h2v2H0zm8 0h2v2H8zm8 0h2v2h-2zM4 72h2v2H4zm8 0h2v2h-2zM0 84h2v2H0zm8 0h2v2H8zm8 0h2v2h-2zM4 84h2v2H4zm8 0h2v2h-2zM0 88h2v2H0zm8 0h2v2H8zm8 0h2v2h-2zM4 88h2v2H4zm8 0h2v2h-2zM0 60h2v2H0zm8 0h2v2H8zm8 0h2v2h-2zM4 60h2v2H4zm8 0h2v2h-2zM0 64h2v2H0zm8 0h2v2H8zm8 0h2v2h-2zM4 64h2v2H4zm8 0h2v2h-2zM0 76h2v2H0zm8 0h2v2H8zm8 0h2v2h-2zM4 76h2v2H4zm8 0h2v2h-2zM0 80h2v2H0zm8 0h2v2H8zm8 0h2v2h-2zM4 80h2v2H4zm8 0h2v2h-2zM0 92h2v2H0zm8 0h2v2H8zm8 0h2v2h-2zM4 92h2v2H4zm8 0h2v2h-2zM0 96h2v2H0zm8 0h2v2H8zm8 0h2v2h-2zM4 96h2v2H4zm8 0h2v2h-2zm-12 4h2v2H0zm8 0h2v2H8zm8 0h2v2h-2zm-12 0h2v2H4zm8 0h2v2h-2zm-12 4h2v2H0zm8 0h2v2H8zm8 0h2v2h-2zm-12 0h2v2H4zm8 0h2v2h-2zm-12 4h2v2H0zm8 0h2v2H8zm8 0h2v2h-2zm-12 0h2v2H4zm8 0h2v2h-2zm-12 4h2v2H0zm8 0h2v2H8zm8 0h2v2h-2zm-12 0h2v2H4zm8 0h2v2h-2zm-12 4h2v2H0zm8 0h2v2H8zm8 0h2v2h-2zm-12 0h2v2H4zm8 0h2v2h-2zm-12 4h2v2H0zm8 0h2v2H8zm8 0h2v2h-2zm-12 0h2v2H4zm8 0h2v2h-2zm-12 4h2v2H0zm8 0h2v2H8zm8 0h2v2h-2zm-12 0h2v2H4zm8 0h2v2h-2z"/></g></g><g id="Group-12" transform="translate(733 84)" fill="#2898BC"><path id="Rectangle-33" d="M28 24h4v80h-4z"/><path d="M24.806 0H42c6.627 0 12 5.373 12 12s-5.373 12-12 12H6a6 6 0 0 1-6-6v-2a6 6 0 0 1 6-6h2.155a8 8 0 0 0 6.247-3.002l2.596-3.245A10 10 0 0 1 24.806 0z" id="Rectangle-35"/></g><g id="Group-12" transform="translate(1019 84)" fill="#2898BC"><path id="Rectangle-33" d="M28 24h4v80h-4z"/><path d="M24.806 0H42c6.627 0 12 5.373 12 12s-5.373 12-12 12H6a6 6 0 0 1-6-6v-2a6 6 0 0 1 6-6h2.155a8 8 0 0 0 6.247-3.002l2.596-3.245A10 10 0 0 1 24.806 0z" id="Rectangle-35"/></g><g id="Group-18" transform="translate(288 74)"><path id="Rectangle-33" fill="#2898BC" d="M32 24h4v90h-4z"/><path d="M24.806 0H42c6.627 0 12 5.373 12 12s-5.373 12-12 12H6a6 6 0 0 1-6-6v-2a6 6 0 0 1 6-6h2.155a8 8 0 0 0 6.247-3.002l2.596-3.245A10 10 0 0 1 24.806 0z" id="Rectangle-35" fill="#BCF2EB"/><path d="M22 24v5.578a12 12 0 0 0 5.344 9.984l1.312.876A12 12 0 0 1 34 50.422V54" id="Line" stroke="#2898BC" stroke-width="4"/></g><g id="Group-22" transform="translate(1123 35)"><path d="M0 130h80V0H20C8.954 0 0 8.954 0 20v110z" id="Fill-21" fill="#FFF"/><path id="Fill-27" fill="#D6D6D6" d="M50 130h38V0H50z"/><g id="Group-21" transform="translate(52 2)" fill="#213C4A"><path id="Rectangle-32" d="M0 12h2v2H0zm8 0h2v2H8zm8 0h2v2h-2zM4 12h2v2H4zm8 0h2v2h-2zM0 16h2v2H0zm8 0h2v2H8zm8 0h2v2h-2zM4 16h2v2H4zm8 0h2v2h-2zM0 28h2v2H0zm8 0h2v2H8zm8 0h2v2h-2zM4 28h2v2H4zm8 0h2v2h-2zM0 32h2v2H0zm8 0h2v2H8zm8 0h2v2h-2zM4 32h2v2H4zm8 0h2v2h-2zM0 4h2v2H0zm8 0h2v2H8zm8 0h2v2h-2zM4 4h2v2H4zm8 0h2v2h-2zM0 0h2v2H0zm8 0h2v2H8zm8 0h2v2h-2zM4 0h2v2H4zm8 0h2v2h-2zM0 8h2v2H0zm8 0h2v2H8zm8 0h2v2h-2zM4 8h2v2H4zm8 0h2v2h-2zM0 20h2v2H0zm8 0h2v2H8zm8 0h2v2h-2zM4 20h2v2H4zm8 0h2v2h-2zM0 24h2v2H0zm8 0h2v2H8zm8 0h2v2h-2zM4 24h2v2H4zm8 0h2v2h-2zM0 36h2v2H0zm8 0h2v2H8zm8 0h2v2h-2zM4 36h2v2H4zm8 0h2v2h-2zM0 40h2v2H0zm8 0h2v2H8zm8 0h2v2h-2zM4 40h2v2H4zm8 0h2v2h-2zM0 44h2v2H0zm8 0h2v2H8zm8 0h2v2h-2zM4 44h2v2H4zm8 0h2v2h-2zM0 48h2v2H0zm8 0h2v2H8zm8 0h2v2h-2zM4 48h2v2H4zm8 0h2v2h-2zM0 52h2v2H0zm8 0h2v2H8zm8 0h2v2h-2zM4 52h2v2H4zm8 0h2v2h-2zM0 56h2v2H0zm8 0h2v2H8zm8 0h2v2h-2zM4 56h2v2H4zm8 0h2v2h-2zM0 68h2v2H0zm8 0h2v2H8zm8 0h2v2h-2zM4 68h2v2H4zm8 0h2v2h-2zM0 72h2v2H0zm8 0h2v2H8zm8 0h2v2h-2zM4 72h2v2H4zm8 0h2v2h-2zM0 84h2v2H0zm8 0h2v2H8zm8 0h2v2h-2zM4 84h2v2H4zm8 0h2v2h-2zM0 88h2v2H0zm8 0h2v2H8zm8 0h2v2h-2zM4 88h2v2H4zm8 0h2v2h-2zM0 60h2v2H0zm8 0h2v2H8zm8 0h2v2h-2zM4 60h2v2H4zm8 0h2v2h-2zM0 64h2v2H0zm8 0h2v2H8zm8 0h2v2h-2zM4 64h2v2H4zm8 0h2v2h-2zM0 76h2v2H0zm8 0h2v2H8zm8 0h2v2h-2zM4 76h2v2H4zm8 0h2v2h-2zM0 80h2v2H0zm8 0h2v2H8zm8 0h2v2h-2zM4 80h2v2H4zm8 0h2v2h-2zM0 92h2v2H0zm8 0h2v2H8zm8 0h2v2h-2zM4 92h2v2H4zm8 0h2v2h-2zM0 96h2v2H0zm8 0h2v2H8zm8 0h2v2h-2zM4 96h2v2H4zm8 0h2v2h-2zm-12 4h2v2H0zm8 0h2v2H8zm8 0h2v2h-2zm-12 0h2v2H4zm8 0h2v2h-2zm-12 4h2v2H0zm8 0h2v2H8zm8 0h2v2h-2zm-12 0h2v2H4zm8 0h2v2h-2zm-12 4h2v2H0zm8 0h2v2H8zm8 0h2v2h-2zm-12 0h2v2H4zm8 0h2v2h-2zm-12 4h2v2H0zm8 0h2v2H8zm8 0h2v2h-2zm-12 0h2v2H4zm8 0h2v2h-2zm-12 4h2v2H0zm8 0h2v2H8zm8 0h2v2h-2zm-12 0h2v2H4zm8 0h2v2h-2zm-12 4h2v2H0zm8 0h2v2H8zm8 0h2v2h-2zm-12 0h2v2H4zm8 0h2v2h-2zm-12 4h2v2H0zm8 0h2v2H8zm8 0h2v2h-2zm-12 0h2v2H4zm8 0h2v2h-2zm8-112h2v2h-2zm8 0h2v2h-2zm-4 0h2v2h-2zm8 0h2v2h-2zm-12 4h2v2h-2zm8 0h2v2h-2zm-4 0h2v2h-2zm8 0h2v2h-2zM20 28h2v2h-2zm8 0h2v2h-2zm-4 0h2v2h-2zm8 0h2v2h-2zm-12 4h2v2h-2zm8 0h2v2h-2zm-4 0h2v2h-2zm8 0h2v2h-2zM20 4h2v2h-2zm8 0h2v2h-2zm0-4h2v2h-2z"/><path id="Rectangle-32" d="M28 4h2v2h-2zm4 0h2v2h-2zm0-4h2v2h-2zm-8 4h2v2h-2zm-4-4h2v2h-2zm4 0h2v2h-2zm-4 8h2v2h-2zm8 0h2v2h-2zm-4 0h2v2h-2zm8 0h2v2h-2zM20 20h2v2h-2zm8 0h2v2h-2zm-4 0h2v2h-2zm8 0h2v2h-2zm-12 4h2v2h-2zm8 0h2v2h-2zm-4 0h2v2h-2zm8 0h2v2h-2zM20 36h2v2h-2zm8 0h2v2h-2zm-4 0h2v2h-2zm8 0h2v2h-2zm-12 4h2v2h-2zm8 0h2v2h-2zm-4 0h2v2h-2zm8 0h2v2h-2zm-12 4h2v2h-2zm8 0h2v2h-2zm-4 0h2v2h-2zm8 0h2v2h-2zm-12 4h2v2h-2zm8 0h2v2h-2zm-4 0h2v2h-2zm8 0h2v2h-2zm-12 4h2v2h-2zm8 0h2v2h-2zm-4 0h2v2h-2zm8 0h2v2h-2zm-12 4h2v2h-2zm8 0h2v2h-2zm-4 0h2v2h-2zm8 0h2v2h-2zM20 68h2v2h-2zm8 0h2v2h-2zm-4 0h2v2h-2zm8 0h2v2h-2zm-12 4h2v2h-2zm8 0h2v2h-2zm-4 0h2v2h-2zm8 0h2v2h-2zM20 84h2v2h-2zm8 0h2v2h-2zm-4 0h2v2h-2zm8 0h2v2h-2zm-12 4h2v2h-2zm8 0h2v2h-2zm-4 0h2v2h-2zm8 0h2v2h-2zM20 60h2v2h-2zm8 0h2v2h-2zm-4 0h2v2h-2zm8 0h2v2h-2zm-12 4h2v2h-2zm8 0h2v2h-2zm-4 0h2v2h-2zm8 0h2v2h-2zM20 76h2v2h-2zm8 0h2v2h-2zm-4 0h2v2h-2zm8 0h2v2h-2zm-12 4h2v2h-2zm8 0h2v2h-2zm-4 0h2v2h-2zm8 0h2v2h-2zM20 92h2v2h-2zm8 0h2v2h-2zm-4 0h2v2h-2zm8 0h2v2h-2zm-12 4h2v2h-2zm8 0h2v2h-2zm-4 0h2v2h-2zm8 0h2v2h-2zm-12 4h2v2h-2zm8 0h2v2h-2zm-4 0h2v2h-2zm8 0h2v2h-2zm-12 4h2v2h-2zm8 0h2v2h-2zm-4 0h2v2h-2zm8 0h2v2h-2zm-12 4h2v2h-2zm8 0h2v2h-2zm-4 0h2v2h-2zm8 0h2v2h-2zm-12 4h2v2h-2zm8 0h2v2h-2zm-4 0h2v2h-2zm8 0h2v2h-2zm-12 4h2v2h-2zm8 0h2v2h-2zm-4 0h2v2h-2zm8 0h2v2h-2zm-12 4h2v2h-2zm8 0h2v2h-2zm-4 0h2v2h-2zm8 0h2v2h-2zm-12 4h2v2h-2zm8 0h2v2h-2zm-4 0h2v2h-2zm8 0h2v2h-2z"/></g></g><g id="Group-12" transform="translate(1359 112)"><path id="Rectangle-33" fill="#2898BC" d="M14 12h2v40h-2z"/><path d="M12.403 0H21a6 6 0 1 1 0 12H3a3 3 0 0 1-3-3V8a3 3 0 0 1 3-3h1.078A4 4 0 0 0 7.2 3.499l1.298-1.622A5 5 0 0 1 12.403 0z" id="Rectangle-35" fill="#BCF2EB"/></g><g id="Group-12" transform="translate(153 112)"><path id="Rectangle-33" fill="#2898BC" d="M14 12h2v40h-2z"/><path d="M12.403 0H21a6 6 0 1 1 0 12H3a3 3 0 0 1-3-3V8a3 3 0 0 1 3-3h1.078A4 4 0 0 0 7.2 3.499l1.298-1.622A5 5 0 0 1 12.403 0z" id="Rectangle-35" fill="#BCF2EB"/></g><g id="Group-20" transform="translate(1243 127)"><path id="Fill-19" fill="#FFF" d="M0 38h40V8H0z"/><path id="Fill-27" fill="#D6D6D6" d="M38 38h30V8H38z"/><path d="M0 8h68a8 8 0 0 0-8-8H8a8 8 0 0 0-8 8z" id="Fill-32" fill="#2898BC"/><g id="Group-9" transform="translate(40 10)" fill="#213C4A"><path id="Rectangle-32" d="M0 0h2v2H0zm8 0h2v2H8zm8 0h2v2h-2zm8 0h2v2h-2zM4 0h2v2H4zm8 0h2v2h-2zm8 0h2v2h-2zM0 4h2v2H0zm8 0h2v2H8zm8 0h2v2h-2zm8 0h2v2h-2zM4 4h2v2H4zm8 0h2v2h-2zm8 0h2v2h-2zM0 16h2v2H0zm8 0h2v2H8zm8 0h2v2h-2zm8 0h2v2h-2zM4 16h2v2H4zm8 0h2v2h-2zm8 0h2v2h-2zM0 20h2v2H0zm8 0h2v2H8zm8 0h2v2h-2zm8 0h2v2h-2zM4 20h2v2H4zm8 0h2v2h-2zm8 0h2v2h-2zM0 24h2v2H0zm8 0h2v2H8zm8 0h2v2h-2zm8 0h2v2h-2zM4 24h2v2H4zm8 0h2v2h-2zm8 0h2v2h-2zM0 8h2v2H0zm8 0h2v2H8zm8 0h2v2h-2zm8 0h2v2h-2zM4 8h2v2H4zm8 0h2v2h-2zm8 0h2v2h-2zM0 12h2v2H0zm8 0h2v2H8zm8 0h2v2h-2zm8 0h2v2h-2zM4 12h2v2H4zm8 0h2v2h-2zm8 0h2v2h-2z"/></g></g><g id="Group-5" transform="translate(660 61)"><g id="Group-11"><rect id="Rectangle-22" fill="#2898BC" width="20" height="60" rx="8"/><circle id="Oval-6" fill="#FF5F5F" cx="10" cy="10" r="6"/><circle id="Oval-6" fill="#FFBB03" cx="10" cy="30" r="6"/><circle id="Oval-6" fill="#C8EFEA" cx="10" cy="50" r="6"/></g><path id="Rectangle-23" fill="#2898BC" d="M8 60h4v68H8z"/></g><g id="Group-5" transform="translate(536 128)"><g id="Group-11"><rect id="Rectangle-22" fill="#FFF" width="10" height="30" rx="4"/><circle id="Oval-6" fill="#FF5F5F" cx="5" cy="5" r="3"/><circle id="Oval-6" fill="#E0B053" cx="5" cy="15" r="3"/><circle id="Oval-6" fill="#77BFB3" cx="5" cy="25" r="3"/></g><path id="Rectangle-23" fill="#FFF" d="M4 30h2v34H4z"/></g><g id="Group-19" transform="translate(410 137)"><path id="Rectangle-33" fill="#2898BC" d="M16 16h4v24h-4z"/><path d="M22.142 0H30a8 8 0 1 1 0 16H5A5 5 0 1 1 5 6h3.686a8 8 0 0 0 5.657-2.343l.728-.728A10 10 0 0 1 22.142 0z" id="Rectangle-35" fill="#BCF2EB" transform="matrix(-1 0 0 1 38 0)"/></g><g id="Group-25" transform="translate(1327 128)"><path id="Rectangle-23" fill="#2898BC" d="M12 21h2v42h-2z"/><rect id="Rectangle-2" stroke="#FFF" stroke-width="2" fill="#FFBB03" transform="rotate(45 13 12.928)" x="5" y="4.928" width="16" height="16" rx="2"/></g><g id="Group-67" transform="translate(570 148)"><g id="Page-1" transform="translate(10)"><path d="M139.24 32.732a6 6 0 0 0-4.896-5.599l-31.577-5.875a28.002 28.002 0 0 1-12.177-5.51L79.246 6.836A31.997 31.997 0 0 0 59.478 0H43.324a20 20 0 0 0-17.15 9.71L22.04 16.6a7 7 0 0 1-6.002 3.4H9a9 9 0 0 0-9 9v15a4 4 0 0 0 4 4h6.453c1.851 0 3.481-1.266 3.885-3.072C15.738 38.674 21.323 34 28 34c5.921 0 10.983 3.675 13.03 8.87 1.213 3.08 4.15 5.13 7.46 5.13h47.02c3.31 0 6.246-2.05 7.46-5.13C105.016 37.674 110.08 34 116 34c6.12 0 11.323 3.926 13.226 9.398.976 2.806 3.731 4.602 6.701 4.602h1.973c.033 0 .066 0 .1-.003a1.999 1.999 0 0 0 1.897-2.097l-.658-13.168z" id="Fill-1" fill="url(#linearGradient-1)"/><path d="M39 49c0 6.075-4.925 11-11 11s-11-4.925-11-11 4.925-11 11-11 11 4.925 11 11" id="Fill-3" fill="#1A1A1A"/><path d="M32.5 28h-3a1.5 1.5 0 0 1 0-3h3a1.5 1.5 0 0 1 0 3" id="Fill-5" fill="#000"/><path d="M59.5 28h-3a1.5 1.5 0 0 1 0-3h3a1.5 1.5 0 0 1 0 3" id="Fill-7" fill="#000"/><path d="M33 49a5 5 0 1 1-10.001-.001A5 5 0 0 1 33 49" id="Fill-9" fill="#FFF"/><path d="M4 38H0v-8h2a4 4 0 0 1 4 4v2a2 2 0 0 1-2 2" id="Fill-11" fill="#FF5F5F"/><path d="M138 38a5 5 0 0 1-5-5v-1a2 2 0 0 1 2-2h1a4 4 0 0 1 4 4v2a2 2 0 0 1-2 2" id="Fill-13" fill="#FFDC5F"/><path d="M84.56 20H59a5 5 0 0 1-5-5V9a4 4 0 0 1 4-4h.137a28.996 28.996 0 0 1 17.68 6.014l9.353 7.193c.757.583.345 1.793-.61 1.793" id="Fill-15" fill="#FFF"/><path d="M31.299 20c-2.332 0-3.773-2.544-2.572-4.543l1.904-3.174A15 15 0 0 1 43.492 5H45a4 4 0 0 1 4 4v7a4 4 0 0 1-4 4H31.298z" id="Fill-17" fill="#FFF"/><path d="M127 49c0 6.075-4.925 11-11 11s-11-4.925-11-11 4.925-11 11-11 11 4.925 11 11" id="Fill-19" fill="#1A1A1A"/><path d="M121 49a5 5 0 1 1-10.001-.001A5 5 0 0 1 121 49" id="Fill-21" fill="#FFF"/></g><rect id="Rectangle-3" fill-opacity=".08" fill="#000" y="56" width="160" height="8" rx="4"/></g><g id="Group-13" transform="translate(862 154)"><rect id="Rectangle-3" fill-opacity=".08" fill="#000" y="27" width="80" height="6" rx="3"/><g id="Group-8" transform="translate(5)"><g id="Group-4"><mask id="mask-4" fill="#fff"><use xlink:href="#path-3"/></mask><use id="Combined-Shape" fill="url(#linearGradient-2)" xlink:href="#path-3"/><path id="Rectangle-5" fill="#BCF2EB" mask="url(#mask-4)" d="M0 18h4v2H0z"/><path id="Rectangle-4" fill="#BCF2EB" mask="url(#mask-4)" d="M66 18h4v2h-4z"/></g><g id="Group-7" transform="translate(52 18)"><circle id="Oval-7" fill="#1A1A1A" cx="6" cy="6" r="6"/><circle id="Oval-7" fill="#FFF" cx="6" cy="6" r="2.5"/></g><g id="Group-6" transform="translate(8 18)"><circle id="Oval-7" fill="#1A1A1A" cx="6" cy="6" r="6"/><circle id="Oval-7" fill="#FFF" cx="6" cy="6" r="2.5"/></g></g></g><g id="Group-13" transform="matrix(-1 0 0 1 288 154)"><rect id="Rectangle-3" fill-opacity=".08" fill="#000" y="27" width="80" height="6" rx="3"/><g id="Group-8" transform="translate(5)"><g id="Group-4"><mask id="mask-6" fill="#fff"><use xlink:href="#path-5"/></mask><use id="Combined-Shape" fill="#BCF2EB" xlink:href="#path-5"/></g><g id="Group-7" transform="translate(52 18)"><circle id="Oval-7" fill="#1A1A1A" cx="6" cy="6" r="6"/><circle id="Oval-7" fill="#FFF" cx="6" cy="6" r="2.5"/></g><g id="Group-6" transform="translate(8 18)"><circle id="Oval-7" fill="#1A1A1A" cx="6" cy="6" r="6"/><circle id="Oval-7" fill="#FFF" cx="6" cy="6" r="2.5"/></g></g></g><g id="Group-2" transform="translate(1051 204)" fill="#000" fill-opacity=".08"><rect id="Rectangle-3" width="124" height="8" rx="4"/></g><g id="Page-1" transform="translate(1061 148)"><path d="M98 0H52.416a12 12 0 0 0-10.733 6.633l-5.919 11.839A10 10 0 0 1 26.819 24H16C9.373 24 4 29.373 4 36v2a2 2 0 0 1-2 2 2 2 0 0 0-2 2v3a3 3 0 0 0 3 3h1.637c2.313 0 4.268-1.601 4.858-3.837C11.19 37.738 17.042 33 24 33c5.999 0 11.175 3.521 13.574 8.609 1.83 3.88 5.691 6.391 9.98 6.391h13.493c3.923 0 7.604-2.229 9.133-5.842C72.458 36.776 77.788 33 84 33c7.344 0 13.455 5.277 14.748 12.246C99.042 46.831 100.388 48 102 48a2 2 0 0 0 2-2V6a6 6 0 0 0-6-6" id="Fill-1" fill="url(#linearGradient-7)"/><path d="M108 36h-4V12h4a4 4 0 0 1 4 4v16a4 4 0 0 1-4 4" id="Fill-3" fill="#1A1A1A"/><path d="M36 48c0 6.627-5.373 12-12 12s-12-5.373-12-12 5.373-12 12-12 12 5.373 12 12" id="Fill-5" fill="#1A1A1A"/><path d="M64 24H44.625c-3.01 0-4.941-3.199-3.539-5.863l5.227-9.931A5.999 5.999 0 0 1 51.622 5H74a2 2 0 0 1 2 2v5c0 6.627-5.373 12-12 12" id="Fill-7" fill="#FFF"/><path d="M96 48c0 6.627-5.373 12-12 12s-12-5.373-12-12 5.373-12 12-12 12 5.373 12 12" id="Fill-9" fill="#1A1A1A"/><path d="M30 48a6 6 0 1 1-12 0 6 6 0 0 1 12 0" id="Fill-11" fill="#FFF"/><path d="M90 48a6 6 0 1 1-12 0 6 6 0 0 1 12 0" id="Fill-13" fill="#FFF"/><path d="M89 24h-2a6 6 0 0 1-6-6V7a2 2 0 0 1 2-2h14a2 2 0 0 1 2 2v7c0 5.523-4.477 10-10 10" id="Fill-15" fill="#FFF"/><path d="M104 36h-3a3 3 0 0 1-3-3v-4a5 5 0 0 1 5-5h1v12z" id="Fill-17" fill="#FF5F5F"/><path d="M4 36a2 2 0 0 1-2-2v-2a2 2 0 1 1 4 0v2a2 2 0 0 1-2 2" id="Fill-19" fill="#FFBB03"/></g></g></g></g></svg>