<svg xmlns="http://www.w3.org/2000/svg">

    <!--SiteHeader-->

    <symbol id="burger" viewBox="0 0 24 24">
        <title>burger</title>
        <g stroke="none" stroke-width="1">
            <g id="Icon/-24px/-Menu/">
                <path d="M1.5,0 L22.5,0 C23.3284271,-1.52179594e-16 24,0.671572875 24,1.5 C24,2.32842712 23.3284271,3 22.5,3 L1.5,3 C0.671572875,3 1.01453063e-16,2.32842712 0,1.5 C-1.01453063e-16,0.671572875 0.671572875,1.52179594e-16 1.5,0 Z M1.5,10.5 L22.5,10.5 C23.3284271,10.5 24,11.1715729 24,12 C24,12.8284271 23.3284271,13.5 22.5,13.5 L1.5,13.5 C0.671572875,13.5 1.01453063e-16,12.8284271 0,12 C-1.01453063e-16,11.1715729 0.671572875,10.5 1.5,10.5 Z M1.5,21 L22.5,21 C23.3284271,21 24,21.6715729 24,22.5 C24,23.3284271 23.3284271,24 22.5,24 L1.5,24 C0.671572875,24 1.01453063e-16,23.3284271 0,22.5 C-1.01453063e-16,21.6715729 0.671572875,21 1.5,21 Z" id="Combined-Shape"></path>
            </g>
        </g>
    </symbol>

    <symbol id="heart" viewBox="0 0 25 24">
        <title>heart</title>
        <g stroke="none" stroke-width="1">
            <g transform="translate(-417.000000, -236.000000)">
                <g transform="translate(417.000000, 236.000000)">
                    <path d="M12.49965,24 L12.0682459,23.7472336 C11.8049436,23.5926703 5.57316931,19.8993773 2.01730143,14.3035047 C0.127871389,11.3326454 -0.459627284,8.19526775 0.362013196,5.4711973 C1.0352781,3.24155844 2.59622348,1.47817114 4.75839013,0.509802526 C5.51313295,0.171642057 6.29189031,0 7.07322066,0 C9.57502158,0 11.516769,1.7317915 12.49965,2.83593667 C13.4833887,1.7317915 15.4242784,0 17.926937,0 C18.7082674,0 19.4870247,0.170788116 20.2409099,0.509802526 C22.4030765,1.47817114 23.9648796,3.2407045 24.6381445,5.4711973 C25.459785,8.19441381 24.8714286,11.3309376 22.9828563,14.3043587 C19.4269884,19.8993773 13.1952141,23.5926703 12.9319118,23.7472336 L12.49965,24 Z" id="Icon/-Header/-Favs-24px"></path>
                </g>
            </g>
        </g>
    </symbol>

    <symbol id="remove" viewBox="0 0 20 20">
        <title>heart</title>
        <path fill-rule="nonzero" d="M10 18a8 8 0 1 0 0-16 8 8 0 0 0 0 16zm3.536-11.536a1 1 0 0 1 0 1.415l-1.768 1.767a.5.5 0 0 0 0 .708l1.768 1.767a1 1 0 0 1-1.414 1.414l-1.768-1.767a.5.5 0 0 0-.708 0L7.88 13.536a1 1 0 0 1-1.414-1.414l1.767-1.768a.5.5 0 0 0 0-.708L6.464 7.88a1 1 0 0 1 1.414-1.414l1.768 1.767a.5.5 0 0 0 .708 0l1.767-1.768a1 1 0 0 1 1.415 0zM10 20C4.477 20 0 15.523 0 10S4.477 0 10 0s10 4.477 10 10-4.477 10-10 10z"/>
    </symbol>

    <symbol id="heart-outline" viewBox="0 0 25 24">
        <title>heart-outline</title>
        <g stroke="none" stroke-width="1">
            <g fill-rule="nonzero">
                <path d="M14.8389851,18.7310742 C17.1280584,16.8843525 19.0881675,14.8394665 20.4504822,12.6959179 C21.8969175,10.4186098 22.3185733,8.16910592 21.7661288,6.3381032 C21.3453688,4.94414644 20.3864236,3.8621129 19.0105219,3.24588464 C18.6399459,3.07924044 18.2798626,3 17.926937,3 C16.8865703,3 15.7359257,3.71331508 14.7395835,4.83160646 L12.498673,7.3467974 L10.2588522,4.83063594 C9.26492758,3.71408462 8.11304168,3 7.07322066,3 C6.72142738,3 6.35977532,3.07966343 5.98463147,3.24774558 C4.61383053,3.86168559 3.6549736,4.94406851 3.2342064,6.33751491 C2.68133856,8.17049537 3.10286254,10.4201559 4.54933919,12.6945346 C5.9121047,14.83912 7.87219621,16.8842038 10.1612467,18.7310273 C10.9642056,19.3788607 11.7544613,19.958703 12.5000897,20.4629216 C13.2457356,19.958707 14.036009,19.3788793 14.8389851,18.7310742 Z M10.6832678,1.21763007 L12.49965,2.83593667 L14.3215051,1.21416915 C15.3010364,0.542688225 16.5259665,0 17.926937,0 C18.7082674,0 19.4870247,0.170788116 20.2409099,0.509802526 C22.4030765,1.47817114 23.9648796,3.2407045 24.6381445,5.4711973 C25.459785,8.19441381 24.8714286,11.3309376 22.9828563,14.3043587 C19.4269884,19.8993773 13.1952141,23.5926703 12.9319118,23.7472336 L12.49965,24 L12.0682459,23.7472336 C11.8049436,23.5926703 5.57316931,19.8993773 2.01730143,14.3035047 C0.127871389,11.3326454 -0.459627284,8.19526775 0.362013196,5.4711973 C1.0352781,3.24155844 2.59622348,1.47817114 4.75839013,0.509802526 C5.51313295,0.171642057 6.29189031,0 7.07322066,0 C8.47611642,0 9.70290591,0.544553947 10.6832678,1.21763007 Z" id="Icon/-Header/-Favs-24px"></path>
            </g>
        </g>
    </symbol>

    <symbol id="compare" viewBox="0 0 24 24">
        <title>heart-outline</title>
        <g stroke="none" stroke-width="1">
            <g transform="translate(-128.000000, -236.000000)">
                <g transform="translate(128.000000, 236.000000)">
                    <path d="M1.79289322,22.9142136 L1.08578644,22.2071068 C0.695262146,21.8165825 0.695262146,21.1834175 1.08578644,20.7928932 L20.7928932,1.08578644 C21.1834175,0.695262146 21.8165825,0.695262146 22.2071068,1.08578644 L22.9142136,1.79289322 C23.3047379,2.18341751 23.3047379,2.81658249 22.9142136,3.20710678 L3.20710678,22.9142136 C2.81658249,23.3047379 2.18341751,23.3047379 1.79289322,22.9142136 Z M4,1.94289029e-16 L5,2.22044605e-16 C5.55228475,-3.69935854e-16 6,0.44771525 6,1 L6,2.5 C6,2.77614237 6.22385763,3 6.5,3 L8,3 C8.55228475,3 9,3.44771525 9,4 L9,5 C9,5.55228475 8.55228475,6 8,6 L6.5,6 C6.22385763,6 6,6.22385763 6,6.5 L6,8 C6,8.55228475 5.55228475,9 5,9 L4,9 C3.44771525,9 3,8.55228475 3,8 L3,6.5 C3,6.22385763 2.77614237,6 2.5,6 L1,6 C0.44771525,6 6.76353751e-17,5.55228475 0,5 L4.4408921e-16,4 C1.31190137e-16,3.44771525 0.44771525,3 1,3 L2.5,3 C2.77614237,3 3,2.77614237 3,2.5 L3,1 C3,0.44771525 3.44771525,-2.96197961e-16 4,-8.8817842e-16 Z M24,18 L24,19 C24,19.5522847 23.5522847,20 23,20 L15,20 C14.4477153,20 14,19.5522847 14,19 L14,18 C14,17.4477153 14.4477153,17 15,17 L23,17 C23.5522847,17 24,17.4477153 24,18 Z" id="Combined-Shape"></path>
                </g>
            </g>
        </g>
    </symbol>

    <!--SiteHeader-->

    <symbol id="sort-icon" viewBox="0 0 16 14">
        <title>sort-icon</title>
        <g stroke="none" stroke-width="1">
            <path d="M3.87628835,0.430043826 L6.27440423,3.1707477 C6.45624526,3.37856601 6.43518651,3.69444732 6.22736819,3.87628835 C6.13622244,3.95604088 6.01922746,4 5.89811589,4 L4,4 L4,13 C4,13.2761424 3.77614237,13.5 3.5,13.5 C3.22385763,13.5 3,13.2761424 3,13 L3,4 L1.10188411,4 C0.825741738,4 0.601884113,3.77614237 0.601884113,3.5 C0.601884113,3.37888843 0.645843237,3.26189344 0.725595766,3.1707477 L3.12371165,0.430043826 C3.30555268,0.22222551 3.62143399,0.201166756 3.8292523,0.383007782 C3.84595769,0.397624995 3.86167113,0.41333844 3.87628835,0.430043826 Z M15.2744042,10.8292523 L12.8762883,13.5699562 C12.6944473,13.7777745 12.378566,13.7988332 12.1707477,13.6169922 C12.1540423,13.602375 12.1383289,13.5866616 12.1237117,13.5699562 L9.72559577,10.8292523 C9.54375474,10.621434 9.56481349,10.3055527 9.77263181,10.1237117 C9.86377756,10.0439591 9.98077254,10 10.1018841,10 L12,10 L12,1 C12,0.723857625 12.2238576,0.5 12.5,0.5 C12.7761424,0.5 13,0.723857625 13,1 L13,10 L14.8981159,10 C15.1742583,10 15.3981159,10.2238576 15.3981159,10.5 C15.3981159,10.6211116 15.3541568,10.7381066 15.2744042,10.8292523 Z" id="Combined-Shape" fill-rule="nonzero"></path>
        </g>
    </symbol>

    <symbol id="icon-check" viewBox="0 0 20 20">
        <title>Check</title>
        <path d="M7.984,15L4,11,6,9l2,2,6-6,2,2Z"/>
    </symbol>

    <symbol id="telegram" viewBox="0 0 14 14">
        <title>telegram</title>
        <path d="M2.9,10.9l2.2-0.7l0.3,0.1c0.6,0.2,1.2,0.3,1.8,0.3c2.8,0,5-1.8,5-4s-2.2-4-5-4s-5,1.8-5,4
	c0,0.8,0.3,1.6,0.9,2.3l0.4,0.5L2.9,10.9L2.9,10.9z M1.2,12.5l1.2-3c-0.8-0.8-1.2-1.9-1.2-3c0-2.8,2.7-5,6-5s6,2.2,6,5s-2.7,5-6,5
	c-0.7,0-1.4-0.1-2.1-0.3L1.2,12.5z"/>
    </symbol>

    <symbol id="phone" viewBox="0 0 14 14">
        <title>phone</title>
        <path d="M6.3,11.4c-0.4-0.2-1-0.8-2-1.7c-1-1-1.5-1.6-1.8-2C-0.1,4,1.4,1.9,1.8,1.4C2.3,1,3.7,0.9,3.7,1.1
	C3.7,1.4,5,4.2,5,4.5c0,0.3-0.9,1.1-1.1,1.4C3.7,6.1,5.6,8.3,5.7,8.3c0,0,2.2,2,2.5,1.7c0.3-0.3,1.1-1.1,1.4-1.1
	c0.3,0,3.1,1.3,3.3,1.3c0.3,0,0.2,1.5-0.3,1.9C12.1,12.6,10,14.1,6.3,11.4L6.3,11.4z"/>
    </symbol>


    <symbol id="close" viewBox="0 0 20 20">
        <title>close</title>
        <g stroke="none" stroke-width="1">
            <g transform="translate(-1016.000000, -464.000000)">
                <g transform="translate(1016.000000, 464.000000)">
                    <path d="M10,8.58578644 L18.1464466,0.439339828 C18.3417088,0.244077682 18.6582912,0.244077682 18.8535534,0.439339828 L19.5606602,1.14644661 C19.7559223,1.34170876 19.7559223,1.65829124 19.5606602,1.85355339 L11.4142136,10 L19.5606602,18.1464466 C19.7559223,18.3417088 19.7559223,18.6582912 19.5606602,18.8535534 L18.8535534,19.5606602 C18.6582912,19.7559223 18.3417088,19.7559223 18.1464466,19.5606602 L10,11.4142136 L1.85355339,19.5606602 C1.65829124,19.7559223 1.34170876,19.7559223 1.14644661,19.5606602 L0.439339828,18.8535534 C0.244077682,18.6582912 0.244077682,18.3417088 0.439339828,18.1464466 L8.58578644,10 L0.439339828,1.85355339 C0.244077682,1.65829124 0.244077682,1.34170876 0.439339828,1.14644661 L1.14644661,0.439339828 C1.34170876,0.244077682 1.65829124,0.244077682 1.85355339,0.439339828 L10,8.58578644 Z" id="Combined-Shape"></path>
                </g>
            </g>
        </g>
    </symbol>


    <symbol id="right-arrow" viewBox="0 0 12 20">
        <title>bottom-arrow</title>
        <g stroke-width="1">
            <g transform="translate(-460.000000, -532.000000)">
                <g transform="translate(460.000000, 532.000000)">
                    <path d="M10.1464466,19.6464466 L0.853553391,10.3535534 C0.658291245,10.1582912 0.658291245,9.84170876 0.853553391,9.64644661 L10.1464466,0.353553391 C10.3417088,0.158291245 10.6582912,0.158291245 10.8535534,0.353553391 L11.6464466,1.14644661 C11.8417088,1.34170876 11.8417088,1.65829124 11.6464466,1.85355339 L3.85355339,9.64644661 C3.65829124,9.84170876 3.65829124,10.1582912 3.85355339,10.3535534 L11.6464466,18.1464466 C11.8417088,18.3417088 11.8417088,18.6582912 11.6464466,18.8535534 L10.8535534,19.6464466 C10.6582912,19.8417088 10.3417088,19.8417088 10.1464466,19.6464466 Z" id="Path-3" transform="translate(6.250000, 10.000000) scale(-1, 1) translate(-6.250000, -10.000000) "></path>
                </g>
            </g>
        </g>
    </symbol>


    <symbol id="facebook" viewBox="0 0 20 20">
        <title>facebook</title>
        <g stroke="none" stroke-width="1">
            <g transform="translate(-792.000000, -532.000000)">
                <g transform="translate(792.000000, 532.000000)">
                    <path d="M20.0001667,18.9166667 C20.0001667,19.5125 19.5126667,20 18.9168333,20 L13.7993333,20 L13.7993333,12.255 L16.3993333,12.255 L16.7885,9.23666667 L13.7993333,9.23666667 L13.7993333,7.30916667 C13.7993333,6.43583333 14.0426667,5.84 15.2951667,5.84 L16.8943333,5.83916667 L16.8943333,3.14 C16.6176667,3.10333333 15.6685,3.02083333 14.5651667,3.02083333 C12.2601667,3.02083333 10.6826667,4.4275 10.6826667,7.01083333 L10.6826667,9.23666667 L8.076,9.23666667 L8.076,12.255 L10.6826667,12.255 L10.6826667,20 L1.0835,20 C0.487666667,20 0.000166666667,19.5125 0.000166666667,18.9166667 L0.000166666667,1.08333333 C0.000166666667,0.4875 0.487666667,-3.55271368e-15 1.0835,-3.55271368e-15 L18.9168333,-3.55271368e-15 C19.5126667,-3.55271368e-15 20.0001667,0.4875 20.0001667,1.08333333 L20.0001667,18.9166667 Z" id="Fill-1"></path>
                </g>
            </g>
        </g>
    </symbol>


    <symbol id="vkontakte" viewBox="0 0 20 20">
        <title>vkontakte</title>
        <g stroke="none" stroke-width="1">
            <g transform="translate(-724.000000, -532.000000)">
                <g transform="translate(724.000000, 532.000000)">
                    <path d="M15.3625,11.48825 C16.4575,12.5049167 16.6841667,12.9990833 16.7216667,13.06075 C17.175,13.8124167 16.2191667,13.8715833 16.2191667,13.8715833 L14.3908333,13.8974167 C14.3908333,13.8974167 13.9983333,13.9749167 13.4816667,13.6199167 C12.7975,13.15075 12.1525,11.9299167 11.6508333,12.0899167 C11.1408333,12.2515833 11.1566667,13.3490833 11.1566667,13.3490833 C11.1566667,13.3490833 11.1608333,13.58325 11.045,13.70825 C10.9183333,13.8440833 10.6716667,13.8715833 10.6716667,13.8715833 L9.85333333,13.8715833 C9.85333333,13.8715833 8.04833333,13.9799167 6.45833333,12.3249167 C4.72416667,10.5199167 3.19333333,6.93741667 3.19333333,6.93741667 C3.19333333,6.93741667 3.105,6.70241667 3.20083333,6.58908333 C3.30916667,6.46158333 3.6025,6.45325 3.6025,6.45325 L5.55833333,6.44075 C5.55833333,6.44075 5.7425,6.47075 5.87416667,6.56825 C5.98333333,6.64825 6.04416667,6.79741667 6.04416667,6.79741667 C6.04416667,6.79741667 6.36,7.59658333 6.77833333,8.31991667 C7.59583333,9.73158333 7.97583333,10.04075 8.25333333,9.88908333 C8.6575,9.66908333 8.53666667,7.89325 8.53666667,7.89325 C8.53666667,7.89325 8.54416667,7.24908333 8.33333333,6.96241667 C8.17,6.73991667 7.86166667,6.67491667 7.72583333,6.65658333 C7.61583333,6.64241667 7.79666667,6.38658333 8.03,6.27241667 C8.3825,6.09991667 9.00416667,6.08991667 9.73833333,6.09741667 C10.31,6.10325 10.475,6.13908333 10.6991667,6.19325 C11.3733333,6.35575 11.1441667,6.98491667 11.1441667,8.49241667 C11.1441667,8.97575 11.0575,9.65491667 11.4058333,9.87991667 C11.5558333,9.97658333 11.9216667,9.89408333 12.8383333,8.33825 C13.2725,7.60075 13.5983333,6.73325 13.5983333,6.73325 C13.5983333,6.73325 13.6691667,6.57908333 13.78,6.51325 C13.8933333,6.44491667 14.0458333,6.46575 14.0458333,6.46575 L16.1041667,6.45325 C16.1041667,6.45325 16.7225,6.37991667 16.8225,6.65908333 C16.9275,6.95158333 16.5916667,7.63575 15.7508333,8.75658333 C14.37,10.5965833 14.2166667,10.4240833 15.3625,11.48825 M16.6666667,-8.33333335e-05 L3.33333333,-8.33333335e-05 C1.5,-8.33333335e-05 0,1.49991667 0,3.33325 L0,16.6665833 C0,18.4999167 1.5,19.9999167 3.33333333,19.9999167 L16.6666667,19.9999167 C18.5,19.9999167 20,18.4999167 20,16.6665833 L20,3.33325 C20,1.49991667 18.5,-8.33333335e-05 16.6666667,-8.33333335e-05" id="vk"></path>
                </g>
            </g>
        </g>
    </symbol>


    <symbol id="instagram" viewBox="0 0 20 20">
        <title>instagram</title>
        <g stroke="none" stroke-width="1">
            <g transform="translate(-656.000000, -532.000000)">
                <g transform="translate(656.000000, 532.000000)">
                    <path d="M15.3331865,3.46088095 C14.6706468,3.46088095 14.1335833,3.99798413 14.1335833,4.66048413 C14.1335833,5.32302381 14.6706468,5.86012698 15.3331865,5.86012698 C15.9957262,5.86012698 16.5327897,5.32302381 16.5327897,4.66048413 C16.5327897,3.99798413 15.9957262,3.46088095 15.3331865,3.46088095 M9.9968373,13.3291349 C8.15648016,13.3291349 6.6645754,11.8372302 6.6645754,9.99683333 C6.6645754,8.15647619 8.15648016,6.66457143 9.9968373,6.66457143 C11.8371944,6.66457143 13.3291389,8.15647619 13.3291389,9.99683333 C13.3291389,11.8372302 11.8371944,13.3291349 9.9968373,13.3291349 M9.9968373,4.86334127 C7.16167857,4.86334127 4.86334524,7.1616746 4.86334524,9.99683333 C4.86334524,12.8319921 7.16167857,15.1303651 9.9968373,15.1303651 C12.831996,15.1303651 15.130369,12.8319921 15.130369,9.99683333 C15.130369,7.1616746 12.831996,4.86334127 9.9968373,4.86334127 M9.9968373,7.93650808e-06 C7.28187698,7.93650808e-06 6.94144048,0.011515873 5.87517063,0.0601269841 C4.81108333,0.108698413 4.08441667,0.277706349 3.44850397,0.524809524 C2.7911627,0.780285714 2.23362302,1.12211111 1.67786905,1.67786508 C1.12211508,2.23361905 0.780289683,2.79115873 0.524813492,3.4485 C0.277710317,4.0844127 0.108702381,4.81107937 0.0601309524,5.87516667 C0.0114801587,6.94143651 1.19047619e-05,7.28183333 1.19047619e-05,9.99683333 C1.19047619e-05,12.7118333 0.0114801587,13.0522698 0.0601309524,14.1185397 C0.108702381,15.1825873 0.277710317,15.909254 0.524813492,16.5451667 C0.780289683,17.2025476 1.12211508,17.7600476 1.67786905,18.3158016 C2.23362302,18.8715952 2.7911627,19.213381 3.44850397,19.4688571 C4.08441667,19.716 4.81108333,19.8850079 5.87517063,19.9335397 C6.94144048,19.9821905 7.28187698,19.9936984 9.9968373,19.9936984 C12.7118373,19.9936984 13.0522738,19.9821905 14.1185437,19.9335397 C15.1825913,19.8850079 15.9092579,19.716 16.5451706,19.4688571 C17.2025516,19.213381 17.7600516,18.8715952 18.3158056,18.3158016 C18.8715992,17.7600476 19.2133849,17.2025476 19.4688611,16.5451667 C19.716004,15.909254 19.8849722,15.1825873 19.9335437,14.1185397 C19.9821944,13.0522698 19.9937024,12.7118333 19.9937024,9.99683333 C19.9937024,7.28187302 19.9821944,6.94143651 19.9335437,5.87516667 C19.8849722,4.81107937 19.716004,4.0844127 19.4688611,3.4485 C19.2133849,2.79115873 18.8715992,2.23361905 18.3158056,1.67786508 C17.7600516,1.12211111 17.2025516,0.780285714 16.5451706,0.524809524 C15.9092579,0.277706349 15.1825913,0.108698413 14.1185437,0.0601269841 C13.0522738,0.011515873 12.7118373,7.93650808e-06 9.9968373,7.93650808e-06 M9.9968373,1.8012381 C12.666123,1.8012381 12.9822738,1.81139683 14.0364405,1.85949206 C15.0110833,1.90397619 15.5404484,2.06683333 15.8927103,2.2037381 C16.3593373,2.3850873 16.6923532,2.60171429 17.0421548,2.95151587 C17.3919563,3.30135714 17.608623,3.63437302 17.7899722,4.101 C17.926877,4.4532619 18.0896944,4.9825873 18.1341786,5.95726984 C18.1822738,7.01139683 18.1924722,7.3275873 18.1924722,9.99683333 C18.1924722,12.666119 18.1822738,12.9822698 18.1341786,14.0364365 C18.0896944,15.0110794 17.926877,15.5404444 17.7899722,15.8927063 C17.608623,16.3593333 17.3919563,16.6923492 17.0421548,17.0421508 C16.6923532,17.3919524 16.3593373,17.608619 15.8927103,17.7899683 C15.5404484,17.926873 15.0110833,18.0896905 14.0364405,18.1341746 C12.9824325,18.1822698 12.6663214,18.1924683 9.9968373,18.1924683 C7.32739286,18.1924683 7.01124206,18.1822698 5.95727381,18.1341746 C4.98259127,18.0896905 4.45326587,17.926873 4.10100397,17.7899683 C3.63437698,17.608619 3.30136111,17.3919524 2.95155952,17.0421508 C2.60171825,16.6923492 2.38505159,16.3593333 2.20374206,15.8927063 C2.0668373,15.5404444 1.90398016,15.0110794 1.85949603,14.0364365 C1.81140079,12.9822698 1.80124206,12.666119 1.80124206,9.99683333 C1.80124206,7.3275873 1.81140079,7.01139683 1.85949603,5.95726984 C1.90398016,4.9825873 2.0668373,4.4532619 2.20374206,4.101 C2.38505159,3.63437302 2.60171825,3.30135714 2.95151984,2.95155556 C3.30136111,2.60171429 3.63437698,2.3850873 4.10100397,2.2037381 C4.45326587,2.06683333 4.98259127,1.90397619 5.95727381,1.85949206 C7.01140079,1.81139683 7.32755159,1.8012381 9.9968373,1.8012381" id="Fill-1"></path>
                </g>
            </g>
        </g>
    </symbol>


    <symbol id="youtube" viewBox="0 0 20 14">
        <title>youtube</title>
        <g stroke="none" stroke-width="1">
            <g transform="translate(-860.000000, -535.000000)">
                <g transform="translate(860.000000, 532.000000)">
                    <path d="M7.935,12.3357576 L7.93416667,6.88686869 L13.3383333,9.62060606 L7.935,12.3357576 Z M19.8,5.94222222 C19.8,5.94222222 19.605,4.60646465 19.005,4.01737374 C18.2441667,3.24484848 17.3916667,3.24161616 17.0008333,3.19636364 C14.2025,3 10.0041667,3 10.0041667,3 L9.995,3 C9.995,3 5.7975,3 2.99833333,3.19636364 C2.6075,3.24161616 1.755,3.24484848 0.995,4.01737374 C0.395,4.60646465 0.2,5.94222222 0.2,5.94222222 C0.2,5.94222222 0,7.51232323 0,9.08161616 L0,10.5531313 C0,12.1224242 0.2,13.6917172 0.2,13.6917172 C0.2,13.6917172 0.395,15.0282828 0.995,15.6165657 C1.755,16.3890909 2.755,16.3648485 3.2,16.4456566 C4.8,16.5943434 10,16.640404 10,16.640404 C10,16.640404 14.2025,16.6339394 17.0008333,16.4383838 C17.3916667,16.3931313 18.2441667,16.3890909 19.005,15.6165657 C19.605,15.0282828 19.8,13.6917172 19.8,13.6917172 C19.8,13.6917172 20,12.1224242 20,10.5531313 L20,9.08161616 C20,7.51232323 19.8,5.94222222 19.8,5.94222222 L19.8,5.94222222 Z"></path>
                </g>
            </g>
        </g>
    </symbol>


    <symbol id="arrow" viewBox="0 0 12 20">
        <title>arrow</title>
        <g stroke="none" stroke-width="1">
            <g id="01.-Icons" transform="translate(-460.000000, -532.000000)">
                <g transform="translate(460.000000, 532.000000)">
                    <path d="M10.1464466,19.6464466 L0.853553391,10.3535534 C0.658291245,10.1582912 0.658291245,9.84170876 0.853553391,9.64644661 L10.1464466,0.353553391 C10.3417088,0.158291245 10.6582912,0.158291245 10.8535534,0.353553391 L11.6464466,1.14644661 C11.8417088,1.34170876 11.8417088,1.65829124 11.6464466,1.85355339 L3.85355339,9.64644661 C3.65829124,9.84170876 3.65829124,10.1582912 3.85355339,10.3535534 L11.6464466,18.1464466 C11.8417088,18.3417088 11.8417088,18.6582912 11.6464466,18.8535534 L10.8535534,19.6464466 C10.6582912,19.8417088 10.3417088,19.8417088 10.1464466,19.6464466 Z" id="Path-3" transform="translate(6.250000, 10.000000) scale(-1, 1) translate(-6.250000, -10.000000) "></path>
                </g>
            </g>
        </g>
    </symbol>


    <!--small-->

    <symbol id="doc" viewBox="0 0 10 12">
        <title>doc</title>
        <g stroke="none" stroke-width="1">
            <g transform="translate(-874.000000, -756.000000)">
                <g transform="translate(874.000000, 756.000000)">
                    <path d="M4,7.46069873e-14 L1.27009514e-13,4 L1.27009514e-13,4.999 L1.27009514e-13,12 L10,12 L10,7.46069873e-14 L4,7.46069873e-14 Z M1,4.999 L5.001,4.999 L5.001,4 L5.001,1 L9,1 L9,11 L1,11 L1,4.999 Z M4,1.414 L4,4 L1.414,4 L4,1.414 Z M3,6.999 L7.001,6.999 L7.001,5.999 L3,5.999 L3,6.999 Z M3,9 L7.001,9 L7.001,8 L3,8 L3,9 Z" id="Fill-1"></path>
                </g>
            </g>
        </g>
    </symbol>

    <symbol id="calender" viewBox="0 0 13 12">
        <title>calender</title>
        <g stroke="none" stroke-width="1"  >
            <g transform="translate(-629.000000, -756.000000)">
                <g transform="translate(629.000000, 756.000000)">
                    <path d="M1,4 L1,11 L12,11 L12,4 L1,4 Z M10,1 L12,1 C12.5522847,1 13,1.44771525 13,2 L13,11 C13,11.5522847 12.5522847,12 12,12 L1,12 C0.44771525,12 6.76353751e-17,11.5522847 0,11 L0,2 C-6.76353751e-17,1.44771525 0.44771525,1 1,1 L3,1 L3,0 L4,0 L4,1 L9,1 L9,0 L10,0 L10,1 Z M10,2 L10,3 L9,3 L9,2 L4,2 L4,3 L3,3 L3,2 L1,2 L1,3 L12,3 L12,2 L10,2 Z" id="Combined-Shape" fill-rule="nonzero"></path>
                    <rect id="Rectangle-20"  x="3" y="6" width="1" height="1"></rect>
                    <rect id="Rectangle-20"  x="7" y="6" width="1" height="1"></rect>
                    <rect id="Rectangle-20"  x="9" y="6" width="1" height="1"></rect>
                    <rect id="Rectangle-20"  x="5" y="8" width="1" height="1"></rect>
                    <rect id="Rectangle-20"  x="7" y="8" width="1" height="1"></rect>
                    <rect id="Rectangle-20"  x="5" y="6" width="1" height="1"></rect>
                    <rect id="Rectangle-20"  x="3" y="8" width="1" height="1"></rect>
                </g>
            </g>
        </g>
    </symbol>


    <symbol id="gear" viewBox="0 0 13 12">
        <title>gear</title>
        <g stroke="none" stroke-width="1" >
            <g transform="translate(-666.000000, -756.000000)">
                <g transform="translate(666.000000, 756.000000)">
                    <path d="M1,1 L1,11 L12,11 L12,1 L1,1 Z M1,0 L12,0 C12.5522847,-1.01453063e-16 13,0.44771525 13,1 L13,11 C13,11.5522847 12.5522847,12 12,12 L1,12 C0.44771525,12 6.76353751e-17,11.5522847 0,11 L0,1 C-6.76353751e-17,0.44771525 0.44771525,1.01453063e-16 1,0 Z" id="Rectangle-16" fill-rule="nonzero"></path>
                    <path d="M4,6 L6,6 L6,3 L7,3 L7,6 L9,6 L9,3 L10,3 L10,9 L9,9 L9,7 L7,7 L7,9 L6,9 L6,7 L4,7 L3,7 L3,3 L4,3 L4,6 Z" id="Combined-Shape" fill-rule="evenodd"></path>
                </g>
            </g>
        </g>
    </symbol>


    <symbol id="drive" viewBox="0 0 13 12">
        <title>drive</title>
        <g stroke="none" stroke-width="1" >
            <g transform="translate(-703.000000, -756.000000)">
                <g transform="translate(703.000000, 756.000000)">
                    <path d="M6.5,11 C9.25606323,11 11.5,8.75606409 11.5,6 C11.5,3.24393591 9.25606323,1 6.5,1 C3.7439329,1 1.5,3.24393382 1.5,6 C1.5,8.75606618 3.7439329,11 6.5,11 Z M6.5,12 C3.19164682,12 0.5,9.3083496 0.5,6 C0.5,2.6916504 3.19164682,0 6.5,0 C9.80834675,0 12.5,2.69164993 12.5,6 C12.5,9.30835007 9.80834675,12 6.5,12 Z M6.4983333,9 C8.15212257,9 9.4983333,7.65379687 9.4983333,6 C9.4983333,4.3462188 8.15211347,3 6.4983333,3 C4.84454859,3 3.4983333,4.34621618 3.4983333,6 C3.4983333,7.6537995 4.84453949,9 6.4983333,9 Z M6.4983333,9.5 C4.568405,9.5 2.9983333,7.92994975 2.9983333,6 C2.9983333,4.07007502 4.568405,2.5 6.4983333,2.5 C8.42825445,2.5 9.9983333,4.07007502 9.9983333,6 C9.9983333,7.92994975 8.42825445,9.5 6.4983333,9.5 Z" id="Shape"></path>
                    <path d="M6.5,7 C7.05100548,7 7.5,6.55100617 7.5,6 C7.5,5.44900879 7.05099564,5 6.5,5 C5.94900033,5 5.5,5.44900614 5.5,6 C5.5,6.55100882 5.94899049,7 6.5,7 Z M6.5,7.5 C5.6728468,7.5 5,6.82714987 5,6 C5,5.17287493 5.6728468,4.5 6.5,4.5 C7.32714652,4.5 8,5.17287493 8,6 C8,6.82714987 7.32714652,7.5 6.5,7.5 Z M6.22916667,3.29166667 L6.77083333,3.29166667 L6.77083333,3.83333333 L6.22916667,3.83333333 L6.22916667,3.29166667 Z M6.22916667,8.16666667 L6.77083333,8.16666667 L6.77083333,8.70833333 L6.22916667,8.70833333 L6.22916667,8.16666667 Z M8.66666667,5.72916667 L9.20833333,5.72916667 L9.20833333,6.27083333 L8.66666667,6.27083333 L8.66666667,5.72916667 Z M3.79166667,5.72916667 L4.33333333,5.72916667 L4.33333333,6.27083333 L3.79166667,6.27083333 L3.79166667,5.72916667 Z M7.84066222,4.27634894 L8.22365441,3.89338384 L8.60661951,4.27637602 L8.22362732,4.65934113 L7.84066222,4.27634894 Z M4.39361719,7.72366438 L4.77660262,7.34067895 L5.15958805,7.72366438 L4.77660262,8.10664981 L4.39361719,7.72366438 Z M7.84066207,7.72365043 L8.22365426,7.34068532 L8.60661937,7.72367751 L8.22362718,8.10664262 L7.84066207,7.72365043 Z M4.39361717,4.27636244 L4.7766026,3.89337701 L5.15958802,4.27636244 L4.7766026,4.65934786 L4.39361717,4.27636244 Z" id="Combined-Shape"></path>
                </g>
            </g>
        </g>
    </symbol>


    <symbol id="engine" viewBox="0 0 13 12">
        <title>engine</title>
        <g stroke="none" stroke-width="1">
            <g transform="translate(-592.000000, -756.000000)">
                <g transform="translate(592.000000, 756.000000)">
                    <path d="M1,6.5 L1,8.5 L1.51937515,8.5 C2.1269426,8.5 2.7015684,8.77617944 3.08111277,9.2506099 L4.18038089,10.624695 C4.37015307,10.8619103 4.65746597,11 4.96124969,11 L8.03875031,11 C8.34253403,11 8.62984693,10.8619103 8.81961911,10.624695 L9.91888723,9.2506099 C10.2984316,8.77617944 10.8730574,8.5 11.4806248,8.5 L12,8.5 L12,6.5 L11.4806248,6.5 C10.8730574,6.5 10.2984316,6.22382056 9.91888723,5.7493901 L8.81961911,4.37530495 C8.62984693,4.13808972 8.34253403,4 8.03875031,4 L4.96124969,4 C4.65746597,4 4.37015307,4.13808972 4.18038089,4.37530495 L3.08111277,5.7493901 C2.7015684,6.22382056 2.1269426,6.5 1.51937515,6.5 L1,6.5 Z M7,3 L8.03875031,3 C8.64631775,3 9.22094355,3.27617944 9.60048792,3.7506099 L10.699756,5.12469505 C10.8895282,5.36191028 11.1768411,5.5 11.4806248,5.5 L12,5.5 L12,5 L13,5 L13,10 L12,10 L12,9.5 L11.4806248,9.5 C11.1768411,9.5 10.8895282,9.63808972 10.699756,9.87530495 L9.60048792,11.2493901 C9.22094355,11.7238206 8.64631775,12 8.03875031,12 L4.96124969,12 C4.35368225,12 3.77905645,11.7238206 3.39951208,11.2493901 L2.30024396,9.87530495 C2.11047178,9.63808972 1.82315887,9.5 1.51937515,9.5 L0,9.5 L0,5.5 L1.51937515,5.5 C1.82315887,5.5 2.11047178,5.36191028 2.30024396,5.12469505 L3.39951208,3.7506099 C3.77905645,3.27617944 4.35368225,3 4.96124969,3 L6,3 L6,1 L7,1 L7,3 Z M4,-8.8817842e-16 L9,-8.8817842e-16 L9,1 L4,1 L4,-8.8817842e-16 Z M4,-8.8817842e-16 L9,-8.8817842e-16 L9,1 L4,1 L4,-8.8817842e-16 Z" id="Combined-Shape"></path>
                </g>
            </g>
        </g>
    </symbol>


    <symbol id="blue-check" viewBox="0 0 12 12">
        <title>blue-check</title>
        <g id="UI-Set" stroke="none" stroke-width="1" fill="none" fill-rule="evenodd">
            <g id="01.-Icons" transform="translate(-484.000000, -756.000000)">
                <g id="Icon/-Small/-Check/" transform="translate(484.000000, 756.000000)">
                    <circle fill="#2898BC" cx="6" cy="6" r="6"></circle>
                    <g transform="translate(2.000000, 3.000000)" fill="#FFFFFF" id="Rectangle-8">
                        <path d="M0.686886724,2.17504209 L0.979779943,1.88214887 C1.17504209,1.68688672 1.49162458,1.68688672 1.68688672,1.88214887 L2.97977994,3.17504209 C3.17504209,3.37030423 3.49162458,3.37030423 3.68688672,3.17504209 L6.64644661,0.215482203 C6.84170876,0.0202200573 7.15829124,0.0202200573 7.35355339,0.215482203 L7.64644661,0.508375422 C7.84170876,0.703637568 7.84170876,1.02022006 7.64644661,1.2154822 L3.68688672,5.17504209 C3.49162458,5.37030423 3.17504209,5.37030423 2.97977994,5.17504209 L0.686886724,2.88214887 C0.491624578,2.68688672 0.491624578,2.37030423 0.686886724,2.17504209 Z"></path>
                    </g>
                </g>
            </g>
        </g>
    </symbol>


    <symbol id="turquoise-check" viewBox="0 0 12 12">
        <title>blue-check</title>
        <g stroke="none" stroke-width="1" fill="none" fill-rule="evenodd">
            <g id="01.-Icons" transform="translate(-484.000000, -756.000000)">
                <g id="Icon/-Small/-Check/" transform="translate(484.000000, 756.000000)">
                    <circle fill="#02c5ab" cx="6" cy="6" r="6"></circle>
                    <g transform="translate(2.000000, 3.000000)" fill="#FFFFFF" id="Rectangle-8">
                        <path d="M0.686886724,2.17504209 L0.979779943,1.88214887 C1.17504209,1.68688672 1.49162458,1.68688672 1.68688672,1.88214887 L2.97977994,3.17504209 C3.17504209,3.37030423 3.49162458,3.37030423 3.68688672,3.17504209 L6.64644661,0.215482203 C6.84170876,0.0202200573 7.15829124,0.0202200573 7.35355339,0.215482203 L7.64644661,0.508375422 C7.84170876,0.703637568 7.84170876,1.02022006 7.64644661,1.2154822 L3.68688672,5.17504209 C3.49162458,5.37030423 3.17504209,5.37030423 2.97977994,5.17504209 L0.686886724,2.88214887 C0.491624578,2.68688672 0.491624578,2.37030423 0.686886724,2.17504209 Z"></path>
                    </g>
                </g>
            </g>
        </g>
    </symbol>



    <symbol id="download" viewBox="0 0 11 12">
        <title>download</title>
        <g id="UI-Set" stroke="none" stroke-width="1" fill="none" fill-rule="evenodd">
            <g id="01.-Icons" transform="translate(-378.000000, -756.000000)" fill="#404040">
                <g id="Icon/-Small/-Download/" transform="translate(378.000000, 756.000000)">
                    <rect id="Rectangle-10" x="0" y="11" width="11" height="1"></rect>
                    <path d="M6,6 L8,6 L5.5,9 L3,6 L5,6 L5,0 L6,0 L6,6 Z" id="Combined-Shape"></path>
                </g>
            </g>
        </g>
    </symbol>



    <symbol id="check-green" viewBox="0 0 12 12">
        <title>check-green</title>
        <g stroke="none" stroke-width="1" fill="none" fill-rule="evenodd">
            <g transform="translate(-520.000000, -756.000000)">
                <g transform="translate(520.000000, 756.000000)">
                    <circle fill="#02C5AB" cx="6" cy="6" r="6"></circle>
                    <g transform="translate(2.000000, 3.000000)" fill="#FFFFFF" id="Rectangle-8">
                        <path d="M0.686886724,2.17504209 L0.979779943,1.88214887 C1.17504209,1.68688672 1.49162458,1.68688672 1.68688672,1.88214887 L2.97977994,3.17504209 C3.17504209,3.37030423 3.49162458,3.37030423 3.68688672,3.17504209 L6.64644661,0.215482203 C6.84170876,0.0202200573 7.15829124,0.0202200573 7.35355339,0.215482203 L7.64644661,0.508375422 C7.84170876,0.703637568 7.84170876,1.02022006 7.64644661,1.2154822 L3.68688672,5.17504209 C3.49162458,5.37030423 3.17504209,5.37030423 2.97977994,5.17504209 L0.686886724,2.88214887 C0.491624578,2.68688672 0.491624578,2.37030423 0.686886724,2.17504209 Z"></path>
                    </g>
                </g>
            </g>
        </g>
    </symbol>


    <symbol id="compare-plus" viewBox="0 0 24 24">
        <title>compare-plus</title>
        <g stroke="none" stroke-width="1" fill-rule="evenodd">
            <g transform="translate(-1152.000000, -462.000000)">
                <g transform="translate(1152.000000, 462.000000)">
                    <g>
                        <path d="M12,22 C17.5228475,22 22,17.5228475 22,12 C22,6.4771525 17.5228475,2 12,2 C6.4771525,2 2,6.4771525 2,12 C2,17.5228475 6.4771525,22 12,22 Z M12,24 C5.372583,24 0,18.627417 0,12 C0,5.372583 5.372583,0 12,0 C18.627417,0 24,5.372583 24,12 C24,18.627417 18.627417,24 12,24 Z" fill-rule="nonzero"></path>
                        <path d="M12,6 L12,6 C12.5522847,6 13,6.44771525 13,7 L13,10.5 C13,10.7761424 13.2238576,11 13.5,11 L17,11 C17.5522847,11 18,11.4477153 18,12 L18,12 C18,12.5522847 17.5522847,13 17,13 L13.5,13 C13.2238576,13 13,13.2238576 13,13.5 L13,17 C13,17.5522847 12.5522847,18 12,18 L12,18 C11.4477153,18 11,17.5522847 11,17 L11,13.5 C11,13.2238576 10.7761424,13 10.5,13 L7,13 C6.44771525,13 6,12.5522847 6,12 L6,12 C6,11.4477153 6.44771525,11 7,11 L10.5,11 C10.7761424,11 11,10.7761424 11,10.5 L11,7 C11,6.44771525 11.4477153,6 12,6 Z" fill-rule="nonzero"></path>
                    </g>
                </g>
            </g>
        </g>
    </symbol>


    <symbol id="compare-minus" viewBox="0 0 20 20">
        <title>compare-minus</title>
        <g stroke="none" stroke-width="1">
            <g class="background" transform="translate(-540.000000, -464.000000)">
                <g transform="translate(540.000000, 464.000000)">
                    <path d="M10,20 C4.4771525,20 0,15.5228475 0,10 C0,4.4771525 4.4771525,0 10,0 C15.5228475,0 20,4.4771525 20,10 C20,15.5228475 15.5228475,20 10,20 Z M15,10 C15,9.44771525 14.5522847,9 14,9 L6,9 C5.44771525,9 5,9.44771525 5,10 C5,10.5522847 5.44771525,11 6,11 L14,11 C14.5522847,11 15,10.5522847 15,10 Z" id="Combined-Shape"></path>
                </g>
            </g>
        </g>
    </symbol>



    <symbol id="favorites-icon" viewBox="0 0 21 20">
        <title>favorites-icon</title>
        <g>
            <g transform="translate(-197.000000, -464.000000)">
                <g id="Icon/-20px/-Favs/" transform="translate(197.000000, 464.000000)">
                    <path d="M12.6159904,16.0010509 C14.5537397,14.4309483 16.2157544,12.6894928 17.3789163,10.8513268 C18.6531461,8.83640032 19.0310201,6.8116832 18.5273222,5.13496863 C18.1361156,3.8332722 17.2409519,2.81880492 15.9710019,2.24755155 C15.6019922,2.08088847 15.236015,2 14.8742878,2 C13.8445784,2 12.7776688,2.66428816 11.867333,3.69049931 L10.3705219,5.37783743 L8.87444142,3.68985138 C7.96610806,2.66500406 6.89804864,2 5.86877277,2 C5.50805451,2 5.14101724,2.08120204 4.76857668,2.24880027 C3.50216418,2.81845983 2.60710897,3.83322514 2.2158558,5.13457771 C1.71183687,6.81288708 2.0896151,8.83786509 3.36392118,10.8502625 C4.52738222,12.689182 6.18938532,14.4308095 8.12711961,16.0010019 C8.98294944,16.6945013 9.7580402,17.2513198 10.3715079,17.6547249 C10.9854283,17.2510434 11.7603625,16.6943415 12.6159904,16.0010509 Z M10.3711745,2.36328056 L11.8679075,1.03670973 C12.6763897,0.460804197 13.7009239,0 14.8742878,0 C15.522571,0 16.1687194,0.14232343 16.7942309,0.424835439 C18.5882177,1.23180929 19.8840725,2.70058708 20.442692,4.55933108 C21.1244212,6.82867817 20.6362519,9.44244796 19.0692709,11.9202989 C16.1189062,16.5828144 10.948296,19.6605586 10.7298295,19.7893613 L10.3711745,20 L10.0132311,19.7893613 C9.79476459,19.6605586 4.62415437,16.5828144 1.67378967,11.9195873 C0.106097089,9.4438712 -0.381360658,6.82938979 0.300368571,4.55933108 C0.858988034,2.7012987 2.15413125,1.23180929 3.94811808,0.424835439 C4.57434117,0.143035047 5.22048955,0 5.86877277,0 C7.04163112,0 8.06614032,0.460722915 8.88261231,1.02750608 L10.3711745,2.36328056 Z" id="Shape"></path>
                </g>
            </g>
        </g>
    </symbol>


    <symbol id="favorites-icon-filled" viewBox="0 0 21 20">
        <title>favorites-icon</title>
        <g>
            <g transform="translate(-266.000000, -464.000000)">
                <g transform="translate(266.000000, 464.000000)">
                    <path d="M10.3711745,20 L10.0132311,19.7893613 C9.79476459,19.6605586 4.62415437,16.5828144 1.67378967,11.9195873 C0.106097089,9.4438712 -0.381360658,6.82938979 0.300368571,4.55933108 C0.858988034,2.7012987 2.15413125,1.23180929 3.94811808,0.424835439 C4.57434117,0.143035047 5.22048955,0 5.86877277,0 C7.94456,0 9.55566122,1.44315958 10.3711745,2.36328056 C11.1873993,1.44315958 12.797789,0 14.8742878,0 C15.522571,0 16.1687194,0.14232343 16.7942309,0.424835439 C18.5882177,1.23180929 19.8840725,2.70058708 20.442692,4.55933108 C21.1244212,6.82867817 20.6362519,9.44244796 19.0692709,11.9202989 C16.1189062,16.5828144 10.948296,19.6605586 10.7298295,19.7893613 L10.3711745,20 Z" id="Shape"></path>
                </g>
            </g>
        </g>
    </symbol>


    <symbol id="report" viewBox="0 0 10 12">
        <title>report-icon</title>
        <g stroke="none" stroke-width="1" fill="none" fill-rule="evenodd">
            <g transform="translate(-309.000000, -756.000000)">
                <g transform="translate(309.000000, 756.000000)">
                    <rect fill="#404040" x="0" y="7" width="1" height="5"></rect>
                    <path d="M0.5,0.5 L0.5,6.5 L9.13841016,6.5 L7.42412445,3.5 L9.13841016,0.5 L0.5,0.5 Z" id="Rectangle-3" stroke="#FF5F5F" stroke-width="1" fill="#FF5F5F"></path>
                </g>
            </g>
        </g>
    </symbol>


    <symbol id="share" viewBox="0 0 11 12">
        <title>share-icon</title>
        <g stroke-width="1">
            <g transform="translate(-449.000000, -756.000000)">
                <g transform="translate(449.000000, 756.000000)">
                    <path d="M3,5 L3,6 L1,6 L1,11 L10,11 L10,6 L8,6 L8,5 L10,5 C10.5522847,5 11,5.44771525 11,6 L11,11 C11,11.5522847 10.5522847,12 10,12 L1,12 C0.44771525,12 -5.67757835e-14,11.5522847 -5.68434189e-14,11 L-5.68434189e-14,6 C-5.69110542e-14,5.44771525 0.44771525,5 1,5 L3,5 Z" id="Rectangle-9" fill-rule="nonzero"></path>
                    <path d="M5,3 L3,3 L5.5,0 L8,3 L6,3 L6,9 L5,9 L5,3 Z" id="Combined-Shape" fill-rule="evenodd"></path>
                </g>
            </g>
        </g>
    </symbol>

    <symbol id="mail" viewBox="0 0 12 10">
        <title>mail-icon</title>
        <g id="UI-Set" stroke="none" stroke-width="1" fill="none" fill-rule="evenodd">
            <g id="01.-Icons" transform="translate(-237.000000, -757.000000)" fill="#FFBB03" fill-rule="nonzero">
                <g id="Icon/-Small/-Email/" transform="translate(237.000000, 757.000000)">
                    <path d="M1,1 L1,9 L11,9 L11,1 L1,1 Z M6.01314902,3.70998272 L9.39953399,1 L11,1 L6.0150229,4.98926936 L1,1 L2.6063534,1 L6.01314902,3.70998272 Z M6.01314902,3.70998272 L9.39953399,1 L11,1 L6.0150229,4.98926936 L1,1 L2.6063534,1 L6.01314902,3.70998272 Z M0,0 L12,0 L12,10 L0,10 L0,0 Z" id="12-Email"></path>
                </g>
            </g>
        </g>
    </symbol>

    <symbol id="arrow-back" viewBox="0 0 12 20">
        <title>arrow-back</title>
        <g stroke="none" stroke-width="1" fill-rule="evenodd">
            <g id="01.-Icons" transform="translate(-460.000000, -532.000000)" fill="#1A1A1A">
                <g transform="translate(460.000000, 532.000000)">
                    <path d="M10.1464466,19.6464466 L0.853553391,10.3535534 C0.658291245,10.1582912 0.658291245,9.84170876 0.853553391,9.64644661 L10.1464466,0.353553391 C10.3417088,0.158291245 10.6582912,0.158291245 10.8535534,0.353553391 L11.6464466,1.14644661 C11.8417088,1.34170876 11.8417088,1.65829124 11.6464466,1.85355339 L3.85355339,9.64644661 C3.65829124,9.84170876 3.65829124,10.1582912 3.85355339,10.3535534 L11.6464466,18.1464466 C11.8417088,18.3417088 11.8417088,18.6582912 11.6464466,18.8535534 L10.8535534,19.6464466 C10.6582912,19.8417088 10.3417088,19.8417088 10.1464466,19.6464466 Z" transform="translate(6.250000, 10.000000) scale(-1, 1) translate(-6.250000, -10.000000) "></path>
                </g>
            </g>
        </g>
    </symbol>

    <!--brand icons-->

    <symbol id="brand-warranty" viewBox="0 0 32 31">
        <title>warranty</title>
        <g stroke="none" stroke-width="1" fill="none" fill-rule="evenodd">
            <g transform="translate(-670.000000, -1503.000000)" fill="#BCF2EB">
                <g id="01-banner-warranty" transform="translate(638.000000, 1471.000000)">
                    <g id="Illustrations/-Warranty" transform="translate(30.000000, 30.000000)">
                        <path d="M17.5346589,28.2446443 L9.21333761,32.6194218 C8.72449303,32.8764226 8.11986587,32.6884761 7.86286506,32.1996315 C7.76052599,32.004971 7.72521132,31.7820029 7.76238816,31.5652453 L9.35161911,22.2993179 C9.40725704,21.9749238 9.29970856,21.6439236 9.06402247,21.4141865 L2.33193216,14.8520203 C1.93644858,14.4665191 1.92835627,13.8334058 2.31385749,13.4379222 C2.46736609,13.2804386 2.6685085,13.1779514 2.88614553,13.1463269 L12.1896655,11.7944463 C12.5153757,11.7471178 12.7969413,11.5425485 12.9426033,11.247405 L17.1032639,2.81698575 C17.3476862,2.32173209 17.9473121,2.11839309 18.4425657,2.36281539 C18.6397783,2.46014562 18.7994058,2.61977315 18.8967361,2.81698575 L23.0573967,11.247405 C23.2030587,11.5425485 23.4846243,11.7471178 23.8103345,11.7944463 L33.1138545,13.1463269 C33.6603993,13.2257445 34.0390808,13.7331874 33.9596632,14.2797322 C33.9280387,14.4973693 33.8255515,14.6985117 33.6680678,14.8520203 L26.9359775,21.4141865 C26.7002914,21.6439236 26.592743,21.9749238 26.6483809,22.2993179 L28.2376118,31.5652453 C28.3309728,32.1095818 27.965385,32.6265377 27.4210486,32.7198987 C27.2042909,32.7570755 26.9813229,32.7217609 26.7866624,32.6194218 L18.4653411,28.2446443 C18.1740171,28.0914862 17.8259829,28.0914862 17.5346589,28.2446443 Z" id="Star"></path>
                    </g>
                </g>
            </g>
        </g>
    </symbol>

    <symbol id="brand-credit" viewBox="0 0 36 26">
        <title>credit</title>
        <g stroke="none" stroke-width="1" fill="none" fill-rule="evenodd">
            <g transform="translate(-812.000000, -1506.000000)">
                <g transform="translate(782.000000, 1471.000000)">
                    <g transform="translate(30.000000, 35.000000)">
                        <rect id="Rectangle-3" fill="#BCF2EB" x="0" y="0" width="36" height="26" rx="4"></rect>
                        <rect id="Rectangle-4" fill="#404040" x="0" y="4" width="36" height="4"></rect>
                        <rect id="Rectangle-4" fill="#A8A8A8" x="4" y="18" width="18" height="2"></rect>
                        <circle id="Oval-2" fill="#FF5F5F" cx="29" cy="19" r="3"></circle>
                    </g>
                </g>
            </g>
        </g>
    </symbol>

    <symbol id="brand-service" viewBox="0 0 28 32">
        <title>credit</title>
        <g stroke="none" stroke-width="1" fill="none" fill-rule="evenodd">
            <g transform="translate(-960.000000, -1503.000000)">
                <g transform="translate(926.000000, 1471.000000)">
                    <g id="Illustrations/-Service" transform="translate(34.000000, 32.000000)">
                        <path d="M12,2.02615702e-14 C14.3912055,1.38323768 16,3.96861301 16,6.92974244 L16,8 C16,12.418278 12.418278,16 8,16 C3.581722,16 5.41083001e-16,12.418278 0,8 L0,6.92974244 C-3.62633767e-16,3.96861301 1.60879452,1.38323768 4,2.17603713e-14 L4,5.92974244 C4,8.13888144 5.790861,9.92974244 8,9.92974244 C10.209139,9.92974244 12,8.13888144 12,5.92974244 L12,1.95399252e-14 Z" id="Combined-Shape" fill="#BCF2EB"></path>
                        <path d="M5,12 L11,12 L11,29 C11,30.6568542 9.65685425,32 8,32 L8,32 C6.34314575,32 5,30.6568542 5,29 L5,12 Z" id="Rectangle-2" fill="#BCF2EB"></path>
                        <rect id="Rectangle-3" fill="#FFFFFF" x="23" y="0" width="2" height="16"></rect>
                        <path d="M23,0 L25,0 C25.5522847,-1.01453063e-16 26,0.44771525 26,1 L26,4 C26,5.1045695 25.1045695,6 24,6 L24,6 C22.8954305,6 22,5.1045695 22,4 L22,1 C22,0.44771525 22.4477153,1.01453063e-16 23,0 Z" id="Rectangle-3" fill="#FFFFFF"></path>
                        <path d="M21,16 L27,16 C27.5522847,16 28,16.4477153 28,17 L28,28 C28,30.209139 26.209139,32 24,32 L24,32 C21.790861,32 20,30.209139 20,28 L20,17 C20,16.4477153 20.4477153,16 21,16 Z" id="Rectangle-3" fill="#404040"></path>
                    </g>
                </g>
            </g>
        </g>
    </symbol>

    <!--/brand icons-->

    <symbol id="icon-fire" viewBox="0 0 28 32">
        <title>credit</title>
        <defs>
            <radialGradient cx="50%" cy="87.6988206%" fx="50%" fy="87.6988206%" r="79.7386601%" gradientTransform="translate(0.500000,0.876988),scale(1.000000,0.774186),rotate(95.816226),scale(1.000000,0.477523),translate(-0.500000,-0.876988)" id="radialGradient-1">
                <stop stop-color="#FFDD82" offset="0%"></stop>
                <stop stop-color="#FFBA00" offset="58.2300726%"></stop>
                <stop stop-color="#FF5F5F" offset="100%"></stop>
            </radialGradient>
        </defs>
        <g stroke="none" stroke-width="1" fill="none" fill-rule="evenodd">
            <g transform="translate(-1152.000000, -462.000000)" fill="url(#radialGradient-1)" fill-rule="nonzero">
                <g transform="translate(1152.000000, 462.000000)">
                    <path d="M8.37023926,23.2078857 C3.86523438,23.2078857 0.899588253,19.9615638 0.998504639,19.7337189 C1.0826416,19.539917 2.58853149,20.6263733 2.58853149,20.1681213 C2.58853149,19.4596252 0.148529053,17.9743958 0.148529053,15.01651 C0.148529053,12.4719238 1.7022522,10.2815247 2.13015747,10.2815247 C2.3097229,10.2815247 1.71182251,13.138855 3.78361816,13.138855 C4.81785889,13.138855 4.39593708,11.4121346 4.81785889,9.44165039 C4.99522494,8.61330494 5.30903656,8.03731768 5.59844971,7.39331055 C5.90691187,6.70691521 6.18763433,5.97700461 6.24510498,5.91326904 C6.33881196,5.809347 7.00671387,6.29534912 7.70556641,5.64428711 C8.86325168,4.56576931 7.70795335,1.01676849 8.02758789,0.843933105 C8.11465297,0.796854569 8.8583401,1.40925584 9.85266113,2.19696045 C11.7207677,3.67688103 14.3452667,6.0873155 14.2597046,8.09814453 C14.1322474,11.0935666 14.1256409,11.9245605 15.006958,11.9245605 C16.1872559,11.9245605 15.8082886,10.2225647 16.0439453,10.2225647 C16.2796021,10.2225647 17.4643555,13.3491211 17.4643555,14.9262085 C17.4643555,18.376709 14.7177429,19.6394958 14.7177429,20.1681213 C14.7177429,20.617218 15.6326172,20.2473755 15.708252,20.4420471 C15.7838867,20.6367188 12.526062,23.2078857 8.37023926,23.2078857 Z M1.19078064,9.96533203 C1.0506134,9.96533203 1.02304845,9.49380642 1.02706909,9.2069397 C1.03063716,8.95236312 1.08263362,8.68521972 1.16723633,8.42370605 C1.32117429,7.94787161 1.62986156,7.52747128 1.8503418,7.31005859 C2.51715088,6.65252686 2.56765747,5.96893311 2.76879883,5.96893311 C2.96994019,5.96893311 2.90505981,7.53320312 2.51715088,8.35647583 C2.12924194,9.17974854 1.33094788,9.96533203 1.19078064,9.96533203 Z" id="Combined-Shape"></path>
                </g>
            </g>
        </g>
    </symbol>

    <symbol id="service" viewBox="0 0 28 32">
        <title>service</title>
        <g stroke="none" stroke-width="1" fill="none" fill-rule="evenodd">
            <g transform="translate(-114.000000, -790.000000)">
                <g transform="translate(64.000000, 742.000000)">
                    <g transform="translate(16.000000, 16.000000)">
                        <g id="Illustrations/-Service" transform="translate(34.000000, 32.000000)">
                            <path d="M12,2.02615702e-14 C14.3912055,1.38323768 16,3.96861301 16,6.92974244 L16,8 C16,12.418278 12.418278,16 8,16 C3.581722,16 5.41083001e-16,12.418278 0,8 L0,6.92974244 C-3.62633767e-16,3.96861301 1.60879452,1.38323768 4,2.17603713e-14 L4,5.92974244 C4,8.13888144 5.790861,9.92974244 8,9.92974244 C10.209139,9.92974244 12,8.13888144 12,5.92974244 L12,1.95399252e-14 Z" id="Combined-Shape" fill="#BCF2EB"></path>
                            <path d="M5,12 L11,12 L11,29 C11,30.6568542 9.65685425,32 8,32 L8,32 C6.34314575,32 5,30.6568542 5,29 L5,12 Z" id="Rectangle-2" fill="#BCF2EB"></path>
                            <rect id="Rectangle-3" fill="#FFFFFF" x="23" y="0" width="2" height="16"></rect>
                            <path d="M23,0 L25,0 C25.5522847,-1.01453063e-16 26,0.44771525 26,1 L26,4 C26,5.1045695 25.1045695,6 24,6 L24,6 C22.8954305,6 22,5.1045695 22,4 L22,1 C22,0.44771525 22.4477153,1.01453063e-16 23,0 Z" id="Rectangle-3" fill="#FFFFFF"></path>
                            <path d="M21,16 L27,16 C27.5522847,16 28,16.4477153 28,17 L28,28 C28,30.209139 26.209139,32 24,32 L24,32 C21.790861,32 20,30.209139 20,28 L20,17 C20,16.4477153 20.4477153,16 21,16 Z" id="Rectangle-3" fill="#404040"></path>
                        </g>
                    </g>
                </g>
            </g>
        </g>
    </symbol>


    <!--popup min icons (not styling)-->

    <symbol id="clocks" viewBox="0 0 14 14">
        <title>service</title>
        <g fill="none" fill-rule="nonzero">
            <circle cx="6" cy="6" r="5.5" stroke="#404040"/>
            <path fill="#404040" d="M5 3h1v3H5zM5 6h4v1H5z"/>
        </g>
    </symbol>

    <symbol id="map-pin" viewBox="0 0 8 12">
        <title>service</title>
        <g fill="#404040" fill-rule="nonzero">
            <path d="M7 4a3 3 0 1 0-6 0c0 1.057 1 3.178 3 6.213C6 7.178 7 5.057 7 4zm-3 8C1.333 8.14 0 5.473 0 4a4 4 0 1 1 8 0c0 1.473-1.333 4.14-4 8z"/>
            <circle cx="4" cy="4" r="1"/>
        </g>
    </symbol>

</svg>


