<svg width="129" height="40" xmlns="http://www.w3.org/2000/svg"><defs><linearGradient x1="100%" y1="0%" x2="0%" y2="100%" id="linearGradient-1"><stop stop-color="#00BDA3" offset="0%"/><stop stop-color="#039B87" offset="100%"/></linearGradient></defs><g id="Symbols" fill="none" fill-rule="evenodd"><g id="Header/-3" transform="translate(-64 -33)"><g id="Logo/" transform="translate(64 33)"><path d="M77.028 20.32c-1.774 0-3.578 1.11-3.578 3.845 0 2.308 1.374 3.818 3.578 3.818 2.203 0 3.577-1.51 3.577-3.818 0-2.734-1.803-3.845-3.577-3.845zm0 10.17c-3.635 0-6.44-2.678-6.44-6.353 0-3.703 2.805-6.324 6.44-6.324 3.634 0 6.439 2.621 6.439 6.324 0 3.675-2.805 6.353-6.44 6.353zm-9.192-9.8v9.43H65.03v-9.43h-1.173v-2.563h1.173V13.74h2.805v4.387h2.146v2.563h-2.146zm-7.092 8.318c-1.087 1.082-2.575 1.482-3.92 1.482-1.23 0-2.719-.37-3.806-1.482-1.116-1.11-1.288-2.393-1.288-3.931v-6.95h2.805v6.865c0 .712.029 1.538.515 2.164.372.485 1.03.827 1.831.827.801 0 1.46-.342 1.832-.827.486-.626.515-1.452.515-2.164v-6.865h2.804v6.95c0 1.538-.171 2.82-1.288 3.931zM42.892 20.32c-2.03 0-3.347 1.71-3.347 3.845 0 2.08 1.316 3.818 3.347 3.818 1.775 0 3.406-1.282 3.406-3.789 0-2.62-1.63-3.874-3.406-3.874zm3.235 9.8v-1.255c-1.23 1.425-2.748 1.625-3.606 1.625-3.72 0-5.838-3.077-5.838-6.382 0-3.902 2.69-6.295 5.866-6.295.888 0 2.433.228 3.578 1.71v-1.396h2.804v11.992h-2.804z" id="Fill-6" fill="#000"/><path d="M126.853 20.69v9.43h-2.804v-9.43h-1.173v-2.563h1.173V13.74h2.804v4.387H129v2.563h-2.147zm-11.498-.37c-1.775 0-3.577 1.111-3.577 3.845 0 2.308 1.373 3.818 3.577 3.818 2.204 0 3.577-1.51 3.577-3.818 0-2.734-1.802-3.845-3.577-3.845zm0 10.17c-3.635 0-6.44-2.678-6.44-6.353 0-3.703 2.805-6.324 6.44-6.324 3.634 0 6.439 2.621 6.439 6.324 0 3.675-2.805 6.353-6.44 6.353zm-14.23-10.17c-1.774 0-3.405 1.254-3.405 3.874 0 2.507 1.631 3.789 3.406 3.789 2.032 0 3.349-1.738 3.349-3.818 0-2.136-1.317-3.845-3.35-3.845zm.373 10.17a4.795 4.795 0 0 1-3.606-1.766v7.918h-2.805V18.127h2.805v1.31c1.03-1.225 2.375-1.624 3.578-1.624 3.176 0 5.866 2.421 5.866 6.239 0 4.045-2.976 6.438-5.838 6.438zM88.746 20.32c-.371 0-.916.2-.916.77 0 .74.773 1.025 1.603 1.423 1.345.627 1.918.969 2.29 1.225 1.23.883 1.459 1.88 1.459 2.678 0 2.279-1.917 4.074-4.407 4.074-.4 0-3.09-.086-4.178-2.963l2.346-1.083c.258.77.916 1.539 1.975 1.539.859 0 1.402-.513 1.402-1.282 0-.883-.715-1.225-1.287-1.51-1.203-.57-1.775-.77-2.404-1.167-1.002-.656-1.432-1.482-1.432-2.621 0-2.279 1.69-3.59 3.778-3.59 1.775 0 2.89 1.111 3.435 2.365l-2.318 1.225c-.258-.684-.773-1.083-1.346-1.083z" id="Fill-8" fill="#02C5AB"/><path d="M29.346.305L8.489 11.813C3.476 14.14 0 19.2 0 25.073c0 8.074 6.569 14.623 14.673 14.623 8.07 0 14.617-6.496 14.67-14.525l.003.002V.305z" id="Fill-1" fill="url(#linearGradient-1)"/><path d="M14.673 10.451C6.569 10.451 0 16.998 0 25.074s6.57 14.622 14.673 14.622c8.104 0 14.673-6.546 14.673-14.622S22.776 10.45 14.673 10.45" id="Fill-4" fill="#02C5AB"/><path d="M23.284 25.897c-.064.537-.425 1.42-.425 1.42s-.064 1.241-.236 1.615c-.175.371-.547.689-1.011.689-.632 0 .148-1.269-2.026-1.269H9.456c-2.174 0-1.395 1.269-2.026 1.269-.463 0-.835-.318-1.01-.689-.173-.374-.237-1.616-.237-1.616s-.362-.882-.425-1.42c-.084-.713.05-.957.527-1.91.578-1.159 1.43-1.248 2.361-.293.901.92 1.351 2.306 1.351 2.306s-1.114-.387-1.39-.48c-.057.19-.798.633-1.184.067-.326-.48.026-.986.342-1.101.316-.114 1.035.26 1.035.26s-.566-.648-1.08-.693c-.515-.047-.69.289-.773.57-.064.216-.346 1.177.578 1.466.542.167.767.152 1.051.213.281.054.501.317.501.317s.553.289.92.314c.366.026.464.118.483-.252.02-.37-.373-1.748-.638-2.27-.301-.605-.946-1.386-1.26-1.663-.188-.41.27-.569.27-.569H20.19s.457.16.27.57c-.314.276-.958 1.057-1.26 1.661-.265.523-.658 1.9-.639 2.27.02.371.118.28.483.253.367-.025.92-.314.92-.314s.22-.263.502-.317c.283-.06.508-.046 1.05-.213.925-.29.643-1.25.578-1.467-.083-.28-.258-.616-.772-.57-.515.046-1.08.694-1.08.694s.72-.374 1.035-.26c.317.115.668.62.342 1.101-.386.566-1.127.123-1.185-.067-.275.093-1.39.48-1.39.48s.45-1.386 1.352-2.306c.932-.955 1.782-.866 2.36.293.477.953.611 1.197.528 1.91m-13.682-7.88c.544-.195 4.387-.228 4.869-.231.488.003 4.374.036 4.918.231.564.202 1.676 2.977 1.86 3.477.018.05-.04.088-.04.088H19.82c-.258-.527-.92-.873-1.701-.873-.778 0-1.441.346-1.7.873H7.832s-.084-.038-.065-.088c.184-.5 1.27-3.275 1.834-3.477m13.05 4.854l-.127-.593s.7-.262 1.08-.41c.381-.147.283-.83.059-.958-.224-.129-1.049-.114-1.25-.018-.198.096-.108.218-.166.867-.366-1.006-.837-2.135-1.607-3.364-.496-.79-.756-.846-1.225-.942-1.374-.285-4.319-.342-4.895-.35V17.1h-.1v.001c-.572.009-3.472.066-4.845.351-.47.096-.68.152-1.175.942-.771 1.23-1.241 2.358-1.608 3.364-.057-.65.032-.771-.167-.867-.2-.096-1.024-.11-1.249.018-.224.128-.322.811.058.959.38.147 1.08.41 1.08.41l-.128.592s-1.802 1.862-1.023 4.41a627.7 627.7 0 0 0 .076 4.783l2.375-.01s-.021-1.045-.021-1.257c0-.211.51-.209.51-.209l6.116.006h.1l6.168-.006s.535-.002.535.21c0 .21-.008 1.257-.008 1.257l2.38.009s.047-2.136.078-4.782c.78-2.549-1.02-4.411-1.02-4.411m-1.681 5.359c.106.183.28.208.375.34.085.117.092.348.15.447.121.212.707-.03.75-.265.058-.316.291-.846.2-1.042-.094-.2-1.675.17-1.475.52m-14.377-.52c-.092.196.142.726.2 1.042.044.235.63.477.75.266.057-.1.065-.33.15-.448.095-.132.27-.157.375-.34.2-.35-1.381-.72-1.475-.52m10.968-3.017c-.86 0-2.596-.006-2.999-.007h-.086c-.403.001-2.14.007-2.999.007-.978 0-.676.905-.676.905s.167.546.267.793c.1.245.467.76 1.134.76.607 0 2.06-.007 2.317-.008.257 0 1.71.008 2.317.008.666 0 1.034-.515 1.134-.76.1-.247.266-.793.266-.793s.303-.905-.675-.905" id="Fill-11" fill="#FFF"/></g></g></g></svg>