<svg width="36" height="30" xmlns="http://www.w3.org/2000/svg" xmlns:xlink="http://www.w3.org/1999/xlink"><defs><path d="M2.089 8.1H4.95a1.35 1.35 0 0 1 0 2.7H2.46c-.78 0-1.442-.576-1.548-1.35A1.188 1.188 0 0 1 2.089 8.1z" id="path-1"/><filter x="-27.8%" y="-55.6%" width="155.6%" height="211.1%" filterUnits="objectBoundingBox" id="filter-2"><feGaussianBlur stdDeviation="1" in="SourceAlpha" result="shadowBlurInner1"/><feOffset dy="-1" in="shadowBlurInner1" result="shadowOffsetInner1"/><feComposite in="shadowOffsetInner1" in2="SourceAlpha" operator="arithmetic" k2="-1" k3="1" result="shadowInnerInner1"/><feColorMatrix values="0 0 0 0 0 0 0 0 0 0 0 0 0 0 0 0 0 0 0.1 0" in="shadowInnerInner1"/></filter><path d="M31.05 8.1h2.806a1.18 1.18 0 0 1 1.168 1.35 1.578 1.578 0 0 1-1.562 1.35H31.05a1.35 1.35 0 0 1 0-2.7z" id="path-3"/><filter x="-27.8%" y="-55.6%" width="155.6%" height="211.1%" filterUnits="objectBoundingBox" id="filter-4"><feGaussianBlur stdDeviation="1" in="SourceAlpha" result="shadowBlurInner1"/><feOffset dy="-1" in="shadowBlurInner1" result="shadowOffsetInner1"/><feComposite in="shadowOffsetInner1" in2="SourceAlpha" operator="arithmetic" k2="-1" k3="1" result="shadowInnerInner1"/><feColorMatrix values="0 0 0 0 0 0 0 0 0 0 0 0 0 0 0 0 0 0 0.1 0" in="shadowInnerInner1"/></filter><path d="M2.16 11.34l.27-.113a4.2 4.2 0 0 0 2.434-2.76l1.121-4.063A6 6 0 0 1 11.769 0H24.23a6 6 0 0 1 5.784 4.404l1.043 3.781a4.8 4.8 0 0 0 2.781 3.155h.001A3.51 3.51 0 0 1 36 14.58v6.72a3 3 0 0 1-3 3H3a3 3 0 0 1-3-3v-6.72a3.51 3.51 0 0 1 2.16-3.24z" id="path-5"/><filter x="-4.2%" y="-6.2%" width="108.3%" height="112.3%" filterUnits="objectBoundingBox" id="filter-6"><feGaussianBlur stdDeviation="1" in="SourceAlpha" result="shadowBlurInner1"/><feOffset dy="-1" in="shadowBlurInner1" result="shadowOffsetInner1"/><feComposite in="shadowOffsetInner1" in2="SourceAlpha" operator="arithmetic" k2="-1" k3="1" result="shadowInnerInner1"/><feColorMatrix values="0 0 0 0 0 0 0 0 0 0 0 0 0 0 0 0 0 0 0.1 0" in="shadowInnerInner1"/></filter><path d="M5.468 0h10.664a4.8 4.8 0 0 1 4.68 3.736L21.6 7.2H0l.787-3.464A4.8 4.8 0 0 1 5.467 0z" id="path-7"/></defs><g id="01.-A-B-Home-page" fill="none" fill-rule="evenodd"><g id="D-01.1-Home-Page-1440" transform="translate(-1085 -210)"><g id="02-New-auto" transform="translate(1084 206)"><path id="Rectangle-2" fill-opacity="0" fill="#FFF" fill-rule="nonzero" d="M0 0h38v38H0z"/><g id="Group-3" transform="translate(1 4.6)"><path d="M.9 23.4h5.4v4.2a1.2 1.2 0 0 1-1.2 1.2h-3a1.2 1.2 0 0 1-1.2-1.2v-4.2zm28.8 0h5.4v4.2a1.2 1.2 0 0 1-1.2 1.2h-3a1.2 1.2 0 0 1-1.2-1.2v-4.2z" id="Rectangle-20" fill="#0C1A30"/><g id="Rectangle-23"><use fill="#FF5F5F" xlink:href="#path-1"/><use fill="#000" filter="url(#filter-2)" xlink:href="#path-1"/></g><g id="Rectangle-23"><use fill="#FF5F5F" xlink:href="#path-3"/><use fill="#000" filter="url(#filter-4)" xlink:href="#path-3"/></g><g id="Rectangle-6"><use fill="#FF5F5F" xlink:href="#path-5"/><use fill="#000" filter="url(#filter-6)" xlink:href="#path-5"/></g><g id="Group-2" transform="translate(7.2 1.8)"><mask id="mask-8" fill="#fff"><use xlink:href="#path-7"/></mask><use id="Rectangle-22" fill="#FFF" xlink:href="#path-7"/><rect id="Rectangle" fill="#FF5F5F" fill-rule="nonzero" mask="url(#mask-8)" x="8.1" y=".9" width="5.4" height="1.8" rx=".9"/><circle id="Oval" stroke="#0C1A30" stroke-width="1.5" mask="url(#mask-8)" cx="16.2" cy="8.1" r="2.85"/></g><path d="M0 14.64c0-.465.625-.6 1.25-.6h.624c1.866 0 4.34 1.049 4.957 2.211.328.617.64 1.389-.016 1.389-2.442 0-6.815-1.2-6.815-3z" id="Fill-13" fill="#FFBB03"/><path d="M28.8 14.64c0-.465.625-.6 1.25-.6h.624c1.866 0 4.34 1.049 4.957 2.211.328.617.64 1.389-.016 1.389-2.442 0-6.815-1.2-6.815-3z" id="Fill-13" fill="#FFBB03" transform="matrix(-1 0 0 1 64.8 0)"/></g></g></g></g></svg>