<svg width="38" height="38" xmlns="http://www.w3.org/2000/svg" xmlns:xlink="http://www.w3.org/1999/xlink"><defs><path id="path-1" d="M0 0h38v38H0z"/></defs><g id="01.-A-B-Home-page" fill="none" fill-rule="evenodd"><g id="D-01.1-Home-Page-1440" transform="translate(-1084 -152)"><g id="icon/-keys" transform="translate(1084 152)"><mask id="mask-2" fill="#fff"><use xlink:href="#path-1"/></mask><use id="Rectangle" fill-opacity="0" fill="#FFF" fill-rule="nonzero" xlink:href="#path-1"/><g id="Group-8" mask="url(#mask-2)"><g transform="translate(0 -2)" fill-rule="nonzero"><path d="M8 19.155a7.155 7.155 0 1 0 0-14.31 7.155 7.155 0 0 0 0 14.31z" id="Oval-8" stroke="#0C1A30" stroke-width="1.69"/><g id="Group-4" transform="translate(3 16)"><ellipse id="Combined-Shape" fill="#136A5E" cx="7" cy="12" rx="7" ry="12"/><circle id="Oval-7" fill="#FFF" cx="7" cy="17" r="3"/><circle id="Oval-7" fill="#FF5F5F" cx="7" cy="7" r="3"/></g><g id="Group-24" transform="rotate(45 10.172 24.556)"><path d="M16 6h14a2 2 0 1 1 0 4H16V6z" id="Rectangle-7" fill="#CCC"/><path d="M6 0h4a6 6 0 0 1 6 6v4a6 6 0 0 1-6 6H6a6 6 0 0 1-6-6V6a6 6 0 0 1 6-6zM4.5 4A1.5 1.5 0 0 0 3 5.5v5a1.5 1.5 0 0 0 3 0v-5A1.5 1.5 0 0 0 4.5 4z" id="Combined-Shape" fill="#0C1A30"/></g></g></g></g></g></g></svg>