<svg width="64" height="65" xmlns="http://www.w3.org/2000/svg" xmlns:xlink="http://www.w3.org/1999/xlink"><defs><circle id="path-1" cx="32" cy="32" r="32"/><filter x="-.8%" y="-.8%" width="101.6%" height="103.1%" filterUnits="objectBoundingBox" id="filter-2"><feOffset dy="1" in="SourceAlpha" result="shadowOffsetOuter1"/><feColorMatrix values="0 0 0 0 0 0 0 0 0 0 0 0 0 0 0 0 0 0 0.25 0" in="shadowOffsetOuter1"/></filter></defs><g id="01.-A-B-Home-page" fill="none" fill-rule="evenodd"><g id="C-01.1-Home-Page-1440" transform="translate(-1084 -152)"><g id="Group-10" transform="translate(1084 152)"><g id="Group-4"><g id="Oval-3"><use fill="#000" filter="url(#filter-2)" xlink:href="#path-1"/><use fill="#FFF" xlink:href="#path-1"/></g><g id="Icon/-Warranty" transform="translate(14 14)" fill="#FFBB03"><path d="M17.535 29.356l-9.497 4.993a1 1 0 0 1-1.451-1.055L8.4 22.72a1 1 0 0 0-.288-.885L.43 14.345a1 1 0 0 1 .554-1.706l10.618-1.542a1 1 0 0 0 .753-.548L17.103.93a1 1 0 0 1 1.794 0l4.748 9.62a1 1 0 0 0 .753.548l10.618 1.542a1 1 0 0 1 .554 1.706l-7.683 7.49a1 1 0 0 0-.288.884l1.814 10.575a1 1 0 0 1-1.45 1.055l-9.498-4.993a1 1 0 0 0-.93 0z" id="Star"/></g></g></g></g></g></svg>