<svg width="64" height="65" xmlns="http://www.w3.org/2000/svg" xmlns:xlink="http://www.w3.org/1999/xlink"><defs><circle id="path-1" cx="32" cy="32" r="32"/><filter x="-.8%" y="-.8%" width="101.6%" height="103.1%" filterUnits="objectBoundingBox" id="filter-2"><feOffset dy="1" in="SourceAlpha" result="shadowOffsetOuter1"/><feColorMatrix values="0 0 0 0 0 0 0 0 0 0 0 0 0 0 0 0 0 0 0.25 0" in="shadowOffsetOuter1"/></filter><path d="M2.183 9H5.5a1.5 1.5 0 0 1 0 3H2.733c-.867 0-1.602-.64-1.72-1.5l-.019-.136A1.2 1.2 0 0 1 2.183 9z" id="path-3"/><filter x="-25%" y="-50%" width="150%" height="200%" filterUnits="objectBoundingBox" id="filter-4"><feGaussianBlur stdDeviation="1" in="SourceAlpha" result="shadowBlurInner1"/><feOffset dy="-1" in="shadowBlurInner1" result="shadowOffsetInner1"/><feComposite in="shadowOffsetInner1" in2="SourceAlpha" operator="arithmetic" k2="-1" k3="1" result="shadowInnerInner1"/><feColorMatrix values="0 0 0 0 0 0 0 0 0 0 0 0 0 0 0 0 0 0 0.1 0" in="shadowInnerInner1"/></filter><path d="M34.5 9h3.246a1.2 1.2 0 0 1 1.187 1.373l-.018.127A1.753 1.753 0 0 1 37.18 12H34.5a1.5 1.5 0 0 1 0-3z" id="path-5"/><filter x="-25%" y="-50%" width="150%" height="200%" filterUnits="objectBoundingBox" id="filter-6"><feGaussianBlur stdDeviation="1" in="SourceAlpha" result="shadowBlurInner1"/><feOffset dy="-1" in="shadowBlurInner1" result="shadowOffsetInner1"/><feComposite in="shadowOffsetInner1" in2="SourceAlpha" operator="arithmetic" k2="-1" k3="1" result="shadowInnerInner1"/><feColorMatrix values="0 0 0 0 0 0 0 0 0 0 0 0 0 0 0 0 0 0 0.1 0" in="shadowInnerInner1"/></filter><path d="M2.4 12.6l.51-.213a4.2 4.2 0 0 0 2.434-2.76l1.441-5.223A6 6 0 0 1 12.569 0H27.43a6 6 0 0 1 5.784 4.404l1.363 4.941a4.8 4.8 0 0 0 2.781 3.155l.241.1a3.9 3.9 0 0 1 2.4 3.6V24a3 3 0 0 1-3 3H3a3 3 0 0 1-3-3v-7.8a3.9 3.9 0 0 1 2.4-3.6z" id="path-7"/><filter x="-3.8%" y="-5.6%" width="107.5%" height="111.1%" filterUnits="objectBoundingBox" id="filter-8"><feGaussianBlur stdDeviation="1" in="SourceAlpha" result="shadowBlurInner1"/><feOffset dy="-1" in="shadowBlurInner1" result="shadowOffsetInner1"/><feComposite in="shadowOffsetInner1" in2="SourceAlpha" operator="arithmetic" k2="-1" k3="1" result="shadowInnerInner1"/><feColorMatrix values="0 0 0 0 0 0 0 0 0 0 0 0 0 0 0 0 0 0 0.1 0" in="shadowInnerInner1"/></filter><path d="M5.65 0h12.7a4.8 4.8 0 0 1 4.681 3.736L24 8H0l.969-4.264A4.8 4.8 0 0 1 5.649 0z" id="path-9"/></defs><g id="01.-A-B-Home-page" fill="none" fill-rule="evenodd"><g id="C-01.1-Home-Page-1440" transform="translate(-1084 -232)"><g id="Group-5" transform="translate(1084 232)"><g id="Group-11"><g id="Oval-3"><use fill="#000" filter="url(#filter-2)" xlink:href="#path-1"/><use fill="#FFF" xlink:href="#path-1"/></g><g id="Group-3" transform="translate(12 16)"><path d="M1 26h6v4.8A1.2 1.2 0 0 1 5.8 32H2.2A1.2 1.2 0 0 1 1 30.8V26zm32 0h6v4.8a1.2 1.2 0 0 1-1.2 1.2h-3.6a1.2 1.2 0 0 1-1.2-1.2V26z" id="Rectangle-20" fill="#0C1A30"/><g id="Rectangle-23"><use fill="#FF5F5F" xlink:href="#path-3"/><use fill="#000" filter="url(#filter-4)" xlink:href="#path-3"/></g><g id="Rectangle-23"><use fill="#FF5F5F" xlink:href="#path-5"/><use fill="#000" filter="url(#filter-6)" xlink:href="#path-5"/></g><g id="Rectangle-6"><use fill="#FF5F5F" xlink:href="#path-7"/><use fill="#000" filter="url(#filter-8)" xlink:href="#path-7"/></g><g id="Group-2" transform="translate(8 2)"><mask id="mask-10" fill="#fff"><use xlink:href="#path-9"/></mask><use id="Rectangle-22" fill="#FFF" xlink:href="#path-9"/><rect id="Rectangle" fill="#FF5F5F" fill-rule="nonzero" mask="url(#mask-10)" x="9" y="1" width="6" height="2" rx="1"/><path d="M18 11.5a2.5 2.5 0 1 0 0-5 2.5 2.5 0 0 0 0 5zm0 1.5a4 4 0 1 1 0-8 4 4 0 0 1 0 8z" id="Oval" fill="#0C1A30" fill-rule="nonzero" mask="url(#mask-10)"/></g><path d="M0 16.267c0-.517.694-.667 1.388-.667h.694c2.073 0 4.822 1.165 5.508 2.457.364.685.711 1.543-.017 1.543C4.859 19.6 0 18.267 0 16.267z" id="Fill-13" fill="#FFBB03"/><path d="M32 16.267c0-.517.694-.667 1.388-.667h.694c2.073 0 4.822 1.165 5.508 2.457.364.685.711 1.543-.017 1.543-2.714 0-7.573-1.333-7.573-3.333z" id="Fill-13" fill="#FFBB03" transform="matrix(-1 0 0 1 72 0)"/></g></g></g></g></g></svg>