<svg width="140" height="60" xmlns="http://www.w3.org/2000/svg"><g id="02.-Brand" fill="none" fill-rule="evenodd"><g id="02.1.4-Brand-1440" transform="translate(-64 -142)"><g id="Preloader-car" transform="matrix(-1 0 0 1 204 142)"><g id="Page-1"><path d="M139.24 32.732l.657 13.168A1.999 1.999 0 0 1 137.9 48h-1.973c-2.97 0-5.725-1.796-6.7-4.602C127.322 37.926 122.12 34 116 34c-5.92 0-10.984 3.675-13.03 8.87-1.214 3.08-4.15 5.13-7.46 5.13H48.49c-3.31 0-6.247-2.05-7.46-5.13C38.983 37.674 33.921 34 28 34c-6.677 0-12.263 4.674-13.662 10.93-.404 1.805-2.034 3.07-3.885 3.07H4a4 4 0 0 1-4-4V29a9 9 0 0 1 9-9h7.037a7 7 0 0 0 6.002-3.399l4.135-6.892A20 20 0 0 1 43.324 0h16.154a31.997 31.997 0 0 1 19.768 6.836l11.344 8.912a28.002 28.002 0 0 0 12.177 5.51l31.577 5.875a6 6 0 0 1 4.895 5.6zM84.56 20c.955 0 1.367-1.21.61-1.793l-9.352-7.193A28.996 28.996 0 0 0 58.137 5H58a4 4 0 0 0-4 4v6a5 5 0 0 0 5 5h25.56zm-53.261 0h13.7a4 4 0 0 0 4-4V9a4 4 0 0 0-4-4h-1.507a15 15 0 0 0-12.861 7.283l-1.904 3.174c-1.2 1.999.24 4.543 2.572 4.543z" id="Combined-Shape" fill-opacity=".04" fill="#000" fill-rule="nonzero"/><path d="M39 49c0 6.075-4.925 11-11 11s-11-4.925-11-11 4.925-11 11-11 11 4.925 11 11zm-6 0a5 5 0 1 0-10.001.001A5 5 0 0 0 33 49z" id="Combined-Shape" fill="#CCC"/><path d="M32.5 28h-3a1.5 1.5 0 0 1 0-3h3a1.5 1.5 0 0 1 0 3" id="Fill-5" fill="#CCC"/><path d="M59.5 28h-3a1.5 1.5 0 0 1 0-3h3a1.5 1.5 0 0 1 0 3" id="Fill-7" fill="#CCC"/><path d="M4 38H0v-8h2a4 4 0 0 1 4 4v2a2 2 0 0 1-2 2" id="Fill-11" fill="#CCC"/><path d="M138 38a5 5 0 0 1-5-5v-1a2 2 0 0 1 2-2h1a4 4 0 0 1 4 4v2a2 2 0 0 1-2 2" id="Fill-13" fill="#CCC"/><path d="M127 49c0 6.075-4.925 11-11 11s-11-4.925-11-11 4.925-11 11-11 11 4.925 11 11zm-6 0a5 5 0 1 0-10.001.001A5 5 0 0 0 121 49z" id="Combined-Shape" fill="#CCC"/></g></g></g></g></svg>