<svg width="181" height="56" xmlns="http://www.w3.org/2000/svg"><defs><linearGradient x1="100%" y1="0%" x2="0%" y2="100%" id="linearGradient-1"><stop stop-color="#00BDA3" offset="0%"/><stop stop-color="#039B87" offset="100%"/></linearGradient></defs><g id="Symbols" fill="none" fill-rule="evenodd"><g id="Footer-/-3" transform="translate(-64 -64)"><g id="Logo/" transform="translate(64 64)"><path d="M107.839 28.448c-2.484 0-5.008 1.555-5.008 5.383 0 3.23 1.922 5.345 5.008 5.345 3.085 0 5.008-2.114 5.008-5.345 0-3.828-2.524-5.383-5.008-5.383zm0 14.237c-5.088 0-9.015-3.748-9.015-8.893 0-5.184 3.927-8.853 9.015-8.853 5.088 0 9.014 3.669 9.014 8.853 0 5.145-3.926 8.893-9.014 8.893zm-12.87-13.719v13.201h-3.925v-13.2h-1.643v-3.59h1.643v-6.141h3.926v6.142h3.005v3.588H94.97zm-9.927 11.645c-1.522 1.516-3.606 2.074-5.488 2.074-1.723 0-3.807-.518-5.329-2.074-1.563-1.554-1.803-3.35-1.803-5.503v-9.73h3.926v9.61c0 .997.041 2.154.722 3.031.52.678 1.442 1.157 2.564 1.157 1.121 0 2.043-.479 2.564-1.157.681-.877.72-2.034.72-3.03v-9.611h3.927v9.73c0 2.154-.24 3.949-1.803 5.503zM60.049 28.448c-2.843 0-4.687 2.393-4.687 5.383 0 2.912 1.844 5.345 4.687 5.345 2.485 0 4.769-1.794 4.769-5.304 0-3.67-2.284-5.424-4.769-5.424zm4.529 13.72v-1.756c-1.723 1.995-3.847 2.273-5.049 2.273-5.208 0-8.173-4.307-8.173-8.933 0-5.464 3.766-8.813 8.213-8.813 1.242 0 3.406.318 5.009 2.393v-1.954h3.926v16.79h-3.926z" id="Fill-6" fill="#FFF"/><path d="M177.595 28.966v13.201h-3.926v-13.2h-1.643v-3.59h1.643v-6.141h3.926v6.141h3.005v3.59h-3.005zm-16.098-.518c-2.485 0-5.008 1.555-5.008 5.383 0 3.23 1.922 5.345 5.008 5.345 3.085 0 5.008-2.114 5.008-5.345 0-3.828-2.524-5.383-5.008-5.383zm0 14.237c-5.088 0-9.015-3.748-9.015-8.893 0-5.184 3.927-8.853 9.015-8.853 5.088 0 9.014 3.669 9.014 8.853 0 5.145-3.926 8.893-9.014 8.893zm-19.92-14.237c-2.485 0-4.769 1.755-4.769 5.424 0 3.51 2.284 5.304 4.768 5.304 2.845 0 4.689-2.433 4.689-5.345 0-2.99-1.844-5.383-4.689-5.383zm.52 14.237c-.92 0-3.285-.319-5.048-2.472V51.3h-3.927V25.377h3.927v1.835c1.442-1.715 3.325-2.273 5.008-2.273 4.448 0 8.213 3.389 8.213 8.733 0 5.664-4.166 9.013-8.173 9.013zm-17.852-14.237c-.52 0-1.282.279-1.282 1.077 0 1.037 1.081 1.436 2.244 1.994 1.883.877 2.684 1.356 3.205 1.715 1.723 1.236 2.043 2.632 2.043 3.748 0 3.19-2.684 5.703-6.17 5.703-.56 0-4.327-.12-5.85-4.147l3.286-1.516c.36 1.077 1.282 2.154 2.764 2.154 1.202 0 1.963-.718 1.963-1.794 0-1.237-1-1.715-1.802-2.114-1.683-.798-2.485-1.077-3.365-1.635-1.403-.918-2.005-2.074-2.005-3.67 0-3.19 2.365-5.024 5.29-5.024 2.484 0 4.046 1.555 4.807 3.31l-3.245 1.715c-.361-.957-1.081-1.516-1.883-1.516z" id="Fill-8" fill="#02C5AB"/><path d="M41.084.427l-29.2 16.111C4.868 19.794 0 26.88 0 35.102c0 11.304 9.196 20.473 20.543 20.473 11.297 0 20.463-9.095 20.538-20.336l.003.003V.427z" id="Fill-1" fill="url(#linearGradient-1)"/><path d="M20.542 14.632C9.197 14.632 0 23.797 0 35.103 0 46.41 9.197 55.575 20.542 55.575c11.345 0 20.542-9.166 20.542-20.472 0-11.306-9.197-20.471-20.542-20.471" id="Fill-4" fill="#02C5AB"/><path d="M32.598 36.256c-.09.751-.595 1.987-.595 1.987s-.09 1.739-.331 2.262c-.245.52-.766.964-1.415.964-.885 0 .207-1.776-2.836-1.776H13.238c-3.043 0-1.952 1.776-2.837 1.776-.648 0-1.168-.444-1.414-.964-.241-.523-.331-2.262-.331-2.262s-.506-1.236-.595-1.987c-.117-1 .07-1.34.738-2.675.81-1.623 2.001-1.748 3.306-.411 1.261 1.288 1.891 3.228 1.891 3.228s-1.56-.541-1.945-.672c-.08.267-1.118.886-1.66.095-.456-.673.038-1.38.48-1.542.442-.16 1.449.364 1.449.364s-.792-.908-1.512-.97c-.721-.066-.967.404-1.083.797-.09.303-.484 1.648.81 2.053.76.234 1.074.214 1.472.298.393.076.701.444.701.444s.774.405 1.288.44c.512.037.649.165.676-.354.027-.518-.523-2.446-.893-3.178-.422-.846-1.325-1.94-1.765-2.327-.262-.574.379-.796.379-.796h15.874s.639.222.376.796c-.44.388-1.34 1.481-1.763 2.327-.371.732-.92 2.66-.894 3.178.027.52.165.39.675.354.515-.035 1.289-.44 1.289-.44s.307-.368.702-.444c.397-.084.711-.064 1.47-.298 1.295-.405.9-1.75.81-2.053-.117-.393-.361-.863-1.081-.798-.72.063-1.512.97-1.512.97s1.007-.523 1.45-.363c.442.161.935.869.478 1.542-.54.791-1.578.172-1.66-.095-.384.13-1.946.672-1.946.672s.632-1.94 1.893-3.228c1.305-1.337 2.495-1.212 3.305.41.667 1.335.855 1.676.739 2.676M13.443 25.223c.762-.273 6.141-.32 6.816-.325.683.005 6.124.052 6.886.325.79.282 2.346 4.168 2.603 4.868.026.069-.056.122-.056.122H27.75c-.362-.738-1.29-1.222-2.382-1.222-1.09 0-2.018.484-2.38 1.222H10.965s-.117-.053-.091-.122c.258-.7 1.78-4.586 2.568-4.868m18.27 6.795l-.178-.83s.98-.367 1.513-.573c.533-.207.395-1.164.082-1.342-.315-.18-1.469-.16-1.75-.025-.277.133-.152.304-.232 1.213-.514-1.408-1.173-2.988-2.25-4.71-.695-1.106-1.059-1.184-1.716-1.318-1.923-.399-6.046-.48-6.853-.491v-.002h-.14v.002c-.8.012-4.86.092-6.782.491-.658.134-.953.212-1.646 1.319-1.08 1.72-1.737 3.3-2.25 4.709-.081-.91.044-1.08-.234-1.213-.28-.135-1.434-.156-1.749.025-.313.178-.45 1.135.08 1.342.533.206 1.514.573 1.514.573l-.18.83s-2.524 2.607-1.432 6.175c.045 3.705.107 6.695.107 6.695l3.324-.013s-.03-1.464-.03-1.76c0-.297.715-.293.715-.293l8.562.008h.143l8.634-.008s.75-.004.75.293c0 .296-.012 1.76-.012 1.76l3.332.013s.066-2.99.11-6.695c1.092-3.568-1.43-6.175-1.43-6.175m-2.352 7.502c.148.257.391.292.524.476.12.165.13.488.21.627.17.297.99-.042 1.05-.371.082-.443.409-1.185.28-1.46-.131-.28-2.344.24-2.064.728m-20.128-.728c-.129.275.199 1.017.28 1.46.06.329.88.668 1.05.371.08-.139.09-.462.21-.627.134-.184.378-.219.525-.476.28-.488-1.933-1.007-2.065-.728m15.356-4.223c-1.206 0-3.635-.008-4.199-.01h-.121c-.564.002-2.994.01-4.198.01-1.369 0-.946 1.267-.946 1.267s.234.764.373 1.11c.14.343.654 1.064 1.588 1.064.849 0 2.883-.01 3.243-.012.36.002 2.395.012 3.244.012.933 0 1.448-.72 1.587-1.065.14-.345.373-1.109.373-1.109s.424-1.267-.944-1.267" id="Fill-11" fill="#FFF"/></g></g></g></svg>